SplineFontDB: 3.2
FontName: ExtraCalories
FullName: ExtraCalories
FamilyName: ExtraCalories
Weight: Regular
Copyright: No Copyright (Cc) 2020 Met Sender / Mehmet PINARCI
UComments: "Type set is named '' Extra Calories '' Have Fun ! "
Version: 001.000
ItalicAngle: 0
UnderlinePosition: -102
UnderlineWidth: 51
Ascent: 819
Descent: 205
InvalidEm: 0
LayerCount: 2
Layer: 0 1 "Back" 1
Layer: 1 1 "Fore" 0
XUID: [1021 66 1585159542 1819]
FSType: 0
OS2Version: 0
OS2_WeightWidthSlopeOnly: 0
OS2_UseTypoMetrics: 1
CreationTime: 1582664074
ModificationTime: 1582684587
PfmFamily: 17
TTFWeight: 200
TTFWidth: 5
LineGap: 94
VLineGap: 0
OS2TypoAscent: 0
OS2TypoAOffset: 1
OS2TypoDescent: 0
OS2TypoDOffset: 1
OS2TypoLinegap: 94
OS2WinAscent: 0
OS2WinAOffset: 1
OS2WinDescent: 0
OS2WinDOffset: 1
HheadAscent: 0
HheadAOffset: 1
HheadDescent: 0
HheadDOffset: 1
OS2Vendor: 'PfEd'
MarkAttachClasses: 1
DEI: 91125
LangName: 1033
Encoding: ISO8859-1
UnicodeInterp: none
NameList: AGL For New Fonts
DisplaySize: -48
AntiAlias: 1
FitToEm: 0
WinInfo: 0 38 14
BeginPrivate: 0
EndPrivate
TeXData: 1 0 1024 460800 524288 349525 851444 1048576 349525 783286 444596 497025 792723 393216 433062 380633 303038 157286 324010 404750 52429 2506097 1059062 262144
BeginChars: 262 105

StartChar: A
Encoding: 65 65 0
Width: 1094
VWidth: 0
Flags: W
LayerCount: 2
Fore
SplineSet
102 758 m 1,0,-1
 513 806 l 1,1,-1
 986 797 l 1,2,-1
 1056.703125 726.28125 l 1,3,-1
 1092.71875 588.28125 l 1,4,-1
 1086.71875 269.296875 l 1,5,-1
 1016 340 l 1,6,-1
 847.28125 560.703125 l 1,7,-1
 831.890625 559.125 l 1,8,-1
 855.71875 535.296875 l 1,9,-1
 1112.703125 205.296875 l 1,10,-1
 1112.703125 -21.703125 l 1,11,-1
 849.71875 -11.71875 l 1,12,-1
 796.890625 41.125 l 1,13,-1
 829.703125 -27.703125 l 1,14,-1
 816.703125 -70.71875 l 1,15,-1
 86.71875 -68.71875 l 1,16,-1
 16.015625 2 l 1,17,-1
 -37 77.984375 l 1,18,-1
 -25 100 l 1,19,-1
 47 123 l 1,20,-1
 55 293 l 1,21,-1
 23 332 l 1,22,-1
 75.0625 414.953125 l 1,23,-1
 33 457 l 1,24,-1
 -6.015625 526 l 1,25,-1
 102 758 l 1,0,-1
719.25 337.296875 m 1,26,-1
 655.703125 337.296875 l 1,27,-1
 689.671875 266.0625 l 1,28,-1
 716 289 l 1,29,-1
 719.25 337.296875 l 1,26,-1
108.703125 748.71875 m 1,30,-1
 5.21875 526.4375 l 1,31,-1
 38.890625 466.890625 l 1,32,-1
 362.859375 461.0625 l 1,33,-1
 605.171875 635.125 l 1,34,-1
 623.046875 647.96875 l 1,35,-1
 620.96875 626.0625 l 1,36,-1
 610.953125 521.046875 l 1,37,-1
 610.40625 515.3125 l 1,38,-1
 605.15625 512.90625 l 1,39,-1
 378.171875 408.90625 l 1,40,-1
 376.0625 407.9375 l 1,41,-1
 373.734375 408 l 1,42,-1
 87.421875 415.84375 l 1,43,-1
 35.28125 332.78125 l 1,44,-1
 62.734375 299.359375 l 1,45,-1
 65.171875 296.375 l 1,46,-1
 64.984375 292.53125 l 1,47,-1
 56.984375 122.515625 l 1,48,-1
 56.65625 115.578125 l 1,49,-1
 50.046875 113.46875 l 1,50,-1
 -18.140625 91.6875 l 1,51,-1
 -25.265625 78.640625 l 1,52,-1
 21.234375 11.984375 l 1,53,-1
 738.578125 10.015625 l 1,54,-1
 748.296875 42.1875 l 1,55,-1
 575.96875 403.703125 l 1,56,-1
 569.15625 418 l 1,57,-1
 585 418 l 1,58,-1
 723.984375 418 l 1,59,-1
 734.6875 418 l 1,60,-1
 733.96875 407.328125 l 1,61,-1
 725.984375 288.328125 l 1,62,-1
 725.703125 284.1875 l 1,63,-1
 722.5625 281.453125 l 1,64,-1
 697.234375 259.390625 l 1,65,-1
 785.515625 68.765625 l 1,66,-1
 1032 59.390625 l 1,67,-1
 1032 272.5625 l 1,68,-1
 960.953125 363.8125 l 1,69,-1
 782.28125 593.234375 l 1,70,-1
 634.671875 515.15625 l 1,71,-1
 616.734375 505.671875 l 1,72,-1
 620.140625 525.671875 l 1,73,-1
 636.140625 619.671875 l 1,74,-1
 637.40625 627.171875 l 1,75,-1
 644.96875 627.953125 l 1,76,-1
 790.984375 642.9375 l 1,77,-1
 796.546875 643.515625 l 1,78,-1
 799.953125 639.0625 l 1,79,-1
 993.515625 385.890625 l 1,80,-1
 1006.546875 368.84375 l 1,81,-1
 1011.984375 657.796875 l 1,82,-1
 978.234375 787.140625 l 1,83,-1
 513.484375 795.984375 l 1,84,-1
 108.703125 748.71875 l 1,30,-1
EndSplineSet
Validated: 524289
EndChar

StartChar: B
Encoding: 66 66 1
Width: 1094
VWidth: 0
Flags: W
LayerCount: 2
Fore
SplineSet
102 797 m 1,0,-1
 332 823 l 1,1,-1
 370.796875 784.203125 l 1,2,-1
 373 823 l 1,3,-1
 946 772 l 1,4,-1
 1016.703125 701.296875 l 1,5,-1
 1102.71875 558.28125 l 1,6,-1
 1077 359 l 1,7,-1
 1119.71875 316.28125 l 1,8,-1
 1112.703125 81.28125 l 1,9,-1
 798.71875 -70.71875 l 1,10,-1
 714.703125 -43.703125 l 1,11,-1
 109.71875 -70.71875 l 1,12,-1
 39 0 l 1,13,-1
 -8 281.015625 l 1,14,-1
 20 289 l 1,15,-1
 49.234375 411.765625 l 1,16,-1
 6 454.984375 l 1,17,-1
 -0 648.984375 l 1,18,-1
 102 797 l 1,0,-1
775 496.5625 m 1,19,-1
 438.71875 664.28125 l 1,20,-1
 411.96875 691.03125 l 1,21,-1
 418.4375 648.171875 l 1,22,-1
 775 453 l 1,23,-1
 775 496.5625 l 1,19,-1
107.65625 787.578125 m 1,24,-1
 10.09375 646.015625 l 1,25,-1
 15.796875 461.921875 l 1,26,-1
 58.609375 445.328125 l 1,27,-1
 66.75 442.171875 l 1,28,-1
 64.734375 433.6875 l 1,29,-1
 29.71875 286.6875 l 1,30,-1
 28.375 281 l 1,31,-1
 22.75 279.390625 l 1,32,-1
 3.34375 273.84375 l 1,33,-1
 47.40625 10.390625 l 1,34,-1
 643.546875 37 l 1,35,-1
 645.34375 37.078125 l 1,36,-1
 647.0625 36.53125 l 1,37,-1
 727.25 10.75 l 1,38,-1
 1032.1875 158.359375 l 1,39,-1
 1038.71875 377.828125 l 1,40,-1
 862.65625 392.65625 l 1,41,-1
 829.015625 360.46875 l 1,42,-1
 585.90625 127.78125 l 1,43,-1
 583.015625 125 l 1,44,-1
 579 125 l 1,45,-1
 509 125 l 1,46,-1
 490.03125 125 l 1,47,-1
 500.75 140.65625 l 1,48,-1
 639.75 343.640625 l 1,49,-1
 642.546875 347.75 l 1,50,-1
 647.515625 347.984375 l 1,51,-1
 768.6875 353.8125 l 1,52,-1
 800.921875 385.65625 l 1,53,-1
 852.984375 437.109375 l 1,54,-1
 856.4375 440.53125 l 1,55,-1
 861.25 439.921875 l 1,56,-1
 995.359375 423.15625 l 1,57,-1
 1021.640625 626.828125 l 1,58,-1
 940.046875 762.5 l 1,59,-1
 382.390625 812.125 l 1,60,-1
 378.359375 741 l 1,61,-1
 779.46875 540.953125 l 1,62,-1
 785 538.1875 l 1,63,-1
 785 532 l 1,64,-1
 785 453 l 1,65,-1
 785 436.125 l 1,66,-1
 770.203125 444.234375 l 1,67,-1
 348.203125 675.21875 l 1,68,-1
 343.859375 677.59375 l 1,69,-1
 343.109375 682.5 l 1,70,-1
 323.546875 811.96875 l 1,71,-1
 107.65625 787.578125 l 1,24,-1
EndSplineSet
Validated: 524289
EndChar

StartChar: C
Encoding: 67 67 2
Width: 1096
VWidth: 0
Flags: W
LayerCount: 2
Fore
SplineSet
-11 810 m 1,0,-1
 78 809 l 1,1,-1
 148.71875 738.28125 l 1,2,-1
 152.984375 723 l 1,3,-1
 163 723 l 1,4,-1
 196 811 l 1,5,-1
 798 813 l 1,6,-1
 1061 623 l 1,7,-1
 1131.71875 552.28125 l 1,8,-1
 1097.703125 406.28125 l 1,9,-1
 943.71875 326.296875 l 1,10,-1
 890.71875 367.296875 l 1,11,-1
 853.625 365.6875 l 1,12,-1
 1037 213 l 1,13,-1
 1107.71875 142.296875 l 1,14,-1
 915.703125 -62.71875 l 1,15,-1
 255.703125 -62.71875 l 1,16,-1
 34.71875 152.296875 l 1,17,-1
 -36 223 l 1,18,-1
 -11 810 l 1,0,-1
303.6875 369.3125 m 1,19,-1
 265 407.984375 l 1,20,-1
 298 369 l 1,21,-1
 303.6875 369.3125 l 1,19,-1
333.8125 370.9375 m 1,22,-1
 335 371 l 1,23,-1
 366 401 l 1,24,-1
 518.125 404.875 l 1,25,-1
 514.703125 408.28125 l 1,26,-1
 331.703125 408.296875 l 1,27,-1
 333.8125 370.9375 l 1,22,-1
-1.421875 799.890625 m 1,28,-1
 -25.8125 227.046875 l 1,29,-1
 189.0625 18 l 1,30,-1
 840.65625 18 l 1,31,-1
 1022.453125 212.109375 l 1,32,-1
 794.484375 401.90625 l 1,33,-1
 507.25 394.59375 l 1,34,-1
 370.140625 391.09375 l 1,35,-1
 341.953125 363.8125 l 1,36,-1
 339.28125 361.21875 l 1,37,-1
 335.546875 361.015625 l 1,38,-1
 298.546875 359.015625 l 1,39,-1
 293.578125 358.75 l 1,40,-1
 290.375 362.53125 l 1,41,-1
 257.359375 401.53125 l 1,42,-1
 255.203125 404.078125 l 1,43,-1
 255.015625 407.421875 l 1,44,-1
 251.015625 478.453125 l 1,45,-1
 250.421875 489.015625 l 1,46,-1
 261 489.015625 l 1,47,-1
 456 489 l 1,48,-1
 460.875 489 l 1,49,-1
 463.875 485.15625 l 1,50,-1
 503.703125 434.21875 l 1,51,-1
 819.5625 448 l 1,52,-1
 823.21875 448.15625 l 1,53,-1
 826.125 445.921875 l 1,54,-1
 874.0625 408.828125 l 1,55,-1
 1018.296875 483.75 l 1,56,-1
 1049.75 618.78125 l 1,57,-1
 794.78125 803 l 1,58,-1
 202.9375 801.03125 l 1,59,-1
 172.359375 719.5 l 1,60,-1
 169.9375 713 l 1,61,-1
 163 713 l 1,62,-1
 102 713 l 1,63,-1
 94.40625 713 l 1,64,-1
 92.375 720.3125 l 1,65,-1
 70.390625 799.078125 l 1,66,-1
 -1.421875 799.890625 l 1,28,-1
EndSplineSet
Validated: 524289
EndChar

StartChar: D
Encoding: 68 68 3
Width: 1096
VWidth: 0
Flags: W
LayerCount: 2
Fore
SplineSet
63 805.984375 m 1,0,-1
 153 805 l 1,1,-1
 210.40625 747.59375 l 1,2,-1
 232 807 l 1,3,-1
 798 813 l 1,4,-1
 1055 621 l 1,5,-1
 1125.71875 550.28125 l 1,6,-1
 1075.703125 169.28125 l 1,7,-1
 915.703125 -62.71875 l 1,8,-1
 255.703125 -62.71875 l 1,9,-1
 185 8 l 1,10,-1
 -19 221 l 1,11,-1
 -6 544.984375 l 1,12,-1
 39.46875 531.515625 l 1,13,-1
 -0 570.984375 l 1,14,-1
 63 805.984375 l 1,0,-1
425.328125 513.90625 m 1,15,-1
 401.703125 498.28125 l 1,16,-1
 393.703125 408.28125 l 1,17,-1
 344.765625 422.21875 l 1,18,-1
 388.703125 378.28125 l 1,19,-1
 405.8125 209.671875 l 1,20,-1
 443 217 l 1,21,-1
 476 379 l 1,22,-1
 425.328125 513.90625 l 1,15,-1
377 203.984375 m 1,23,-1
 339 242 l 1,24,-1
 372 203 l 1,25,-1
 377 203.984375 l 1,23,-1
70.65625 795.90625 m 1,26,-1
 12.203125 577.90625 l 1,27,-1
 314.109375 491.921875 l 1,28,-1
 321.03125 569.890625 l 1,29,-1
 321.453125 574.6875 l 1,30,-1
 325.484375 577.34375 l 1,31,-1
 384.46875 616.34375 l 1,32,-1
 394.9375 623.265625 l 1,33,-1
 399.359375 611.515625 l 1,34,-1
 485.359375 382.515625 l 1,35,-1
 486.375 379.828125 l 1,36,-1
 485.796875 377 l 1,37,-1
 452.796875 215 l 1,38,-1
 451.46875 208.46875 l 1,39,-1
 444.9375 207.1875 l 1,40,-1
 373.9375 193.1875 l 1,41,-1
 368.171875 192.0625 l 1,42,-1
 364.375 196.546875 l 1,43,-1
 331.375 235.53125 l 1,44,-1
 329.359375 237.90625 l 1,45,-1
 329.046875 240.984375 l 1,46,-1
 308.734375 441.3125 l 1,47,-1
 3.484375 531.75 l 1,48,-1
 -8.828125 224.84375 l 1,49,-1
 189.265625 18 l 1,50,-1
 839.75 18 l 1,51,-1
 995.390625 243.6875 l 1,52,-1
 1044.328125 616.484375 l 1,53,-1
 794.734375 802.96875 l 1,54,-1
 239.03125 797.078125 l 1,55,-1
 209.40625 715.578125 l 1,56,-1
 207 709 l 1,57,-1
 200 709 l 1,58,-1
 177 709 l 1,59,-1
 169.40625 709 l 1,60,-1
 167.359375 716.3125 l 1,61,-1
 145.390625 795.078125 l 1,62,-1
 70.65625 795.90625 l 1,26,-1
EndSplineSet
Validated: 524289
EndChar

StartChar: E
Encoding: 69 69 4
Width: 1096
VWidth: 0
Flags: W
LayerCount: 2
Fore
SplineSet
-8.015625 814 m 1,0,-1
 81 813 l 1,1,-1
 138.640625 755.375 l 1,2,-1
 161 815 l 1,3,-1
 798 813 l 1,4,-1
 1050 621 l 1,5,-1
 1120.703125 550.296875 l 1,6,-1
 1092.71875 507.296875 l 1,7,-1
 973.71875 425.296875 l 1,8,-1
 896.71875 470.28125 l 1,9,-1
 821.203125 466.75 l 1,10,-1
 852 446 l 1,11,-1
 922.703125 375.296875 l 1,12,-1
 884.84375 353.546875 l 1,13,-1
 1020 311 l 1,14,-1
 1090.71875 240.28125 l 1,15,-1
 1096.71875 140.28125 l 1,16,-1
 938.703125 -66.71875 l 1,17,-1
 221.71875 -58.703125 l 1,18,-1
 151 12.015625 l 1,19,-1
 -33 227 l 1,20,-1
 -8.015625 814 l 1,0,-1
346.78125 496.828125 m 1,21,-1
 528.34375 502.65625 l 1,22,-1
 519.71875 511.296875 l 1,23,-1
 337.703125 511.28125 l 1,24,-1
 346.78125 496.828125 l 1,21,-1
1.5625 803.890625 m 1,25,-1
 -22.84375 230.5 l 1,26,-1
 155.65625 21.953125 l 1,27,-1
 863.09375 14.0625 l 1,28,-1
 1015.796875 214.109375 l 1,29,-1
 1010.4375 303.53125 l 1,30,-1
 805.375 368.078125 l 1,31,-1
 661.28125 278.5 l 1,32,-1
 658.890625 277.015625 l 1,33,-1
 656.0625 277 l 1,34,-1
 378.625 275.03125 l 1,35,-1
 344.578125 235.484375 l 1,36,-1
 335.171875 224.5625 l 1,37,-1
 328.234375 237.1875 l 1,38,-1
 289.234375 308.1875 l 1,39,-1
 281.15625 322.90625 l 1,40,-1
 297.9375 323 l 1,41,-1
 621.296875 324.984375 l 1,42,-1
 833.09375 446.6875 l 1,43,-1
 754.09375 499.90625 l 1,44,-1
 321.3125 486 l 1,45,-1
 315.578125 485.828125 l 1,46,-1
 312.53125 490.6875 l 1,47,-1
 258.53125 576.671875 l 1,48,-1
 248.90625 592 l 1,49,-1
 267 592 l 1,50,-1
 462 592 l 1,51,-1
 466.921875 592 l 1,52,-1
 469.921875 588.09375 l 1,53,-1
 509.75 536.234375 l 1,54,-1
 825.53125 550.984375 l 1,55,-1
 828.484375 551.125 l 1,56,-1
 831.046875 549.625 l 1,57,-1
 902.5625 507.84375 l 1,58,-1
 1014.703125 585.125 l 1,59,-1
 1036.546875 618.6875 l 1,60,-1
 794.609375 803.015625 l 1,61,-1
 167.921875 804.984375 l 1,62,-1
 137.359375 723.5 l 1,63,-1
 134.921875 717.015625 l 1,64,-1
 128 717 l 1,65,-1
 105.015625 717 l 1,66,-1
 97.421875 716.984375 l 1,67,-1
 95.375 724.3125 l 1,68,-1
 73.375 803.09375 l 1,69,-1
 1.5625 803.890625 l 1,25,-1
EndSplineSet
Validated: 524289
EndChar

StartChar: F
Encoding: 70 70 5
Width: 1096
VWidth: 0
Flags: W
LayerCount: 2
Fore
SplineSet
14 788 m 1,0,-1
 232 780 l 1,1,-1
 255.328125 756.671875 l 1,2,-1
 271 788 l 1,3,-1
 979 788 l 1,4,-1
 1049.71875 717.28125 l 1,5,-1
 1113.703125 578.296875 l 1,6,-1
 1096.71875 308.28125 l 1,7,-1
 908.703125 308.28125 l 1,8,-1
 838 379 l 1,9,-1
 744.71875 488.75 l 1,10,-1
 698.34375 490.65625 l 1,11,-1
 737.71875 451.28125 l 1,12,-1
 885.703125 283.296875 l 1,13,-1
 885.703125 130.296875 l 1,14,-1
 743.203125 132.796875 l 1,15,-1
 764.703125 111.296875 l 1,16,-1
 759.71875 -70.71875 l 1,17,-1
 122.71875 -56.71875 l 1,18,-1
 50.71875 -4.703125 l 1,19,-1
 -20 66 l 1,20,-1
 -30.984375 516 l 1,21,-1
 14 788 l 1,0,-1
22.421875 777.671875 m 1,22,-1
 -20.96875 515.296875 l 1,23,-1
 -10.125 71.203125 l 1,24,-1
 55.34375 23.921875 l 1,25,-1
 679.28125 10.21875 l 1,26,-1
 683.71875 172 l 1,27,-1
 587 172 l 1,28,-1
 577 172 l 1,29,-1
 577 182 l 1,30,-1
 577 205 l 1,31,-1
 577 215.1875 l 1,32,-1
 587.171875 215 l 1,33,-1
 805 211.1875 l 1,34,-1
 805 350.234375 l 1,35,-1
 662.5 511.96875 l 1,36,-1
 327.671875 510.0625 l 1,37,-1
 324 398.671875 l 1,38,-1
 323.640625 387.953125 l 1,39,-1
 312.96875 389.0625 l 1,40,-1
 283.96875 392.046875 l 1,41,-1
 274.9375 392.984375 l 1,42,-1
 275 402.078125 l 1,43,-1
 276 545.078125 l 1,44,-1
 276.015625 546.65625 l 1,45,-1
 276.515625 548.171875 l 1,46,-1
 286.515625 578.15625 l 1,47,-1
 288.890625 585.296875 l 1,48,-1
 296.40625 584.984375 l 1,49,-1
 685.40625 569 l 1,50,-1
 689.78125 568.8125 l 1,51,-1
 692.625 565.484375 l 1,52,-1
 842.625 389 l 1,53,-1
 1016.609375 389 l 1,54,-1
 1032.859375 647.109375 l 1,55,-1
 972.59375 778 l 1,56,-1
 277.1875 778 l 1,57,-1
 261.9375 747.53125 l 1,58,-1
 254.703125 733.046875 l 1,59,-1
 245 746 l 1,60,-1
 226.859375 770.1875 l 1,61,-1
 22.421875 777.671875 l 1,22,-1
EndSplineSet
Validated: 524289
EndChar

StartChar: G
Encoding: 71 71 6
Width: 1096
VWidth: 0
Flags: W
LayerCount: 2
Fore
SplineSet
2 810 m 1,0,-1
 91 809 l 1,1,-1
 148.640625 751.359375 l 1,2,-1
 171 811 l 1,3,-1
 821 825 l 1,4,-1
 1050 637 l 1,5,-1
 1120.703125 566.296875 l 1,6,-1
 1086.71875 421.28125 l 1,7,-1
 1039.703125 394.28125 l 1,8,-1
 990.71875 423.28125 l 1,9,-1
 624.703125 416.28125 l 1,10,-1
 547.609375 309.53125 l 1,11,-1
 577 281.015625 l 1,12,-1
 654.390625 286.625 l 1,13,-1
 599 342 l 1,14,-1
 624 399 l 1,15,-1
 911 414 l 1,16,-1
 981.71875 343.28125 l 1,17,-1
 1096.71875 156.28125 l 1,18,-1
 938.703125 -50.71875 l 1,19,-1
 231.703125 -62.71875 l 1,20,-1
 161 8 l 1,21,-1
 -23 223 l 1,22,-1
 2 810 l 1,0,-1
11.578125 799.890625 m 1,23,-1
 -12.84375 226.515625 l 1,24,-1
 165.53125 18.078125 l 1,25,-1
 862.984375 29.90625 l 1,26,-1
 1013.890625 227.609375 l 1,27,-1
 905.59375 403.703125 l 1,28,-1
 630.6875 389.34375 l 1,29,-1
 614.296875 352 l 1,30,-1
 728 352 l 1,31,-1
 732.46875 352 l 1,32,-1
 735.453125 348.671875 l 1,33,-1
 777.453125 301.65625 l 1,34,-1
 791 286.5 l 1,35,-1
 770.71875 285.015625 l 1,36,-1
 577.71875 271.03125 l 1,37,-1
 573.25 270.71875 l 1,38,-1
 570.03125 273.828125 l 1,39,-1
 469.046875 371.828125 l 1,40,-1
 462.828125 377.84375 l 1,41,-1
 467.890625 384.859375 l 1,42,-1
 545.890625 492.859375 l 1,43,-1
 548.8125 496.90625 l 1,44,-1
 553.8125 497 l 1,45,-1
 919.8125 503.984375 l 1,46,-1
 922.65625 504.046875 l 1,47,-1
 925.09375 502.59375 l 1,48,-1
 969.0625 476.578125 l 1,49,-1
 1007.25 498.5 l 1,50,-1
 1038.84375 633.21875 l 1,51,-1
 817.515625 814.921875 l 1,52,-1
 177.984375 801.140625 l 1,53,-1
 147.359375 719.484375 l 1,54,-1
 144.921875 712.984375 l 1,55,-1
 137.984375 713 l 1,56,-1
 116 713 l 1,57,-1
 108.484375 713.015625 l 1,58,-1
 106.390625 720.21875 l 1,59,-1
 83.46875 799.078125 l 1,60,-1
 11.578125 799.890625 l 1,23,-1
EndSplineSet
Validated: 524289
EndChar

StartChar: H
Encoding: 72 72 7
Width: 1094
VWidth: 0
Flags: W
LayerCount: 2
Fore
SplineSet
-24.015625 736 m 1,0,-1
 83 809 l 1,1,-1
 439 805 l 1,2,-1
 498.234375 745.765625 l 1,3,-1
 538 793 l 1,4,-1
 935 788 l 1,5,-1
 1035 692 l 1,6,-1
 1105.703125 621.296875 l 1,7,-1
 1136.71875 55.28125 l 1,8,-1
 1003.703125 -52.71875 l 1,9,-1
 694.703125 -50.71875 l 1,10,-1
 624 20 l 1,11,-1
 552.328125 191.75 l 1,12,-1
 552.71875 183.296875 l 1,13,-1
 546.71875 -52.71875 l 1,14,-1
 118.71875 -56.71875 l 1,15,-1
 48 14 l 1,16,-1
 -7 74 l 1,17,-1
 -24.015625 736 l 1,0,-1
513.96875 263.03125 m 1,18,-1
 528.734375 248.265625 l 1,19,-1
 523 262 l 1,20,-1
 523 263.28125 l 1,21,-1
 513.96875 263.03125 l 1,18,-1
574 397 m 1,22,-1
 550.421875 420.5625 l 1,23,-1
 553.734375 395.078125 l 1,24,-1
 574 397 l 1,22,-1
-13.875 730.8125 m 1,25,-1
 2.890625 78 l 1,26,-1
 52.375 24.046875 l 1,27,-1
 466.25 27.90625 l 1,28,-1
 472 253.90625 l 1,29,-1
 470.484375 286.375 l 1,30,-1
 384.625 281.015625 l 1,31,-1
 374.515625 280.390625 l 1,32,-1
 374.015625 290.515625 l 1,33,-1
 372.015625 331.515625 l 1,34,-1
 371.515625 341.703125 l 1,35,-1
 381.71875 342 l 1,36,-1
 522.71875 346 l 1,37,-1
 533 346.28125 l 1,38,-1
 533 336 l 1,39,-1
 533 264 l 1,40,-1
 630.6875 29.953125 l 1,41,-1
 929.46875 28.015625 l 1,42,-1
 1055.75 130.546875 l 1,43,-1
 1025.21875 687.515625 l 1,44,-1
 930.921875 778.0625 l 1,45,-1
 542.59375 782.9375 l 1,46,-1
 484.703125 714.1875 l 1,47,-1
 533.40625 455.375 l 1,48,-1
 577.765625 451.984375 l 1,49,-1
 587.640625 451.21875 l 1,50,-1
 586.96875 441.34375 l 1,51,-1
 583.96875 396.328125 l 1,52,-1
 583.40625 387.84375 l 1,53,-1
 574.9375 387.046875 l 1,54,-1
 447.9375 375.046875 l 1,55,-1
 434.765625 373.796875 l 1,56,-1
 437.171875 386.8125 l 1,57,-1
 442.15625 413.8125 l 1,58,-1
 443.671875 422 l 1,59,-1
 452 422 l 1,60,-1
 478.625 422 l 1,61,-1
 430.203125 795.09375 l 1,62,-1
 86.03125 798.96875 l 1,63,-1
 -13.875 730.8125 l 1,25,-1
EndSplineSet
Validated: 524289
EndChar

StartChar: I
Encoding: 73 73 8
Width: 1094
VWidth: 0
Flags: W
LayerCount: 2
Fore
SplineSet
-18 782 m 1,0,-1
 474 813 l 1,1,-1
 1033 844 l 1,2,-1
 1103.703125 773.28125 l 1,3,-1
 1080.71875 595.28125 l 1,4,-1
 1047.71875 560.296875 l 1,5,-1
 917.171875 566.8125 l 1,6,-1
 962.703125 521.296875 l 1,7,-1
 971.59375 179.203125 l 1,8,-1
 1024 180 l 1,9,-1
 1094.71875 109.296875 l 1,10,-1
 1092.703125 31.28125 l 1,11,-1
 1018.703125 -47.71875 l 1,12,-1
 50.71875 -82.703125 l 1,13,-1
 -20 -12 l 1,14,-1
 -18.015625 39 l 1,15,-1
 81.015625 37.96875 l 1,16,-1
 39 79.984375 l 1,17,-1
 44.984375 459 l 1,18,-1
 47.03125 458.96875 l 1,19,-1
 -12 518 l 1,20,-1
 -18 782 l 1,0,-1
-7.78125 772.625 m 1,21,-1
 -2.1875 526.5 l 1,22,-1
 115.671875 506.703125 l 1,23,-1
 145.03125 535.171875 l 1,24,-1
 147.9375 538 l 1,25,-1
 152 538 l 1,26,-1
 195 538 l 1,27,-1
 204.578125 538 l 1,28,-1
 204.984375 528.421875 l 1,29,-1
 207 481.421875 l 1,30,-1
 207.265625 475.140625 l 1,31,-1
 201.71875 472.171875 l 1,32,-1
 156.703125 448.171875 l 1,33,-1
 154.40625 446.953125 l 1,34,-1
 151.8125 447 l 1,35,-1
 54.828125 448.8125 l 1,36,-1
 49.140625 89.09375 l 1,37,-1
 120.6875 82.453125 l 1,38,-1
 137.328125 102.390625 l 1,39,-1
 143.078125 109.296875 l 1,40,-1
 150.546875 104.3125 l 1,41,-1
 183.53125 82.328125 l 1,42,-1
 188.578125 78.96875 l 1,43,-1
 187.9375 72.9375 l 1,44,-1
 183.953125 35.9375 l 1,45,-1
 182.96875 26.90625 l 1,46,-1
 173.90625 27 l 1,47,-1
 -8.390625 28.90625 l 1,48,-1
 -9.578125 -1.609375 l 1,49,-1
 943.515625 32.84375 l 1,50,-1
 1012.09375 106.0625 l 1,51,-1
 1013.734375 169.84375 l 1,52,-1
 764.15625 166 l 1,53,-1
 756.015625 165.875 l 1,54,-1
 754.25 173.828125 l 1,55,-1
 748.234375 200.828125 l 1,56,-1
 745.59375 212.671875 l 1,57,-1
 757.71875 213 l 1,58,-1
 891.75 216.71875 l 1,59,-1
 882.234375 582.53125 l 1,60,-1
 820.4375 586.015625 l 1,61,-1
 811.84375 586.5 l 1,62,-1
 811.03125 595.078125 l 1,63,-1
 807.03125 638.078125 l 1,64,-1
 805.96875 649.5625 l 1,65,-1
 817.5 648.984375 l 1,66,-1
 972.890625 641.21875 l 1,67,-1
 1000.5 670.5 l 1,68,-1
 1021.53125 833.34375 l 1,69,-1
 474.5625 803.015625 l 1,70,-1
 -7.78125 772.625 l 1,21,-1
EndSplineSet
Validated: 524289
EndChar

StartChar: J
Encoding: 74 74 9
Width: 1094
VWidth: 0
Flags: W
LayerCount: 2
Fore
SplineSet
81 795 m 1,0,-1
 155 829 l 1,1,-1
 902 786 l 1,2,-1
 1035 680 l 1,3,-1
 1105.703125 609.296875 l 1,4,-1
 1113.71875 40.28125 l 1,5,-1
 1023.703125 -72.71875 l 1,6,-1
 178.71875 -27.703125 l 1,7,-1
 108.015625 43 l 1,8,-1
 -22 227 l 1,9,-1
 -22.015625 408 l 1,10,-1
 390 383 l 1,11,-1
 703 174 l 1,12,-1
 749.71875 197.359375 l 1,13,-1
 495.703125 380.296875 l 1,14,-1
 223.71875 427.296875 l 1,15,-1
 151.703125 484.296875 l 1,16,-1
 81 555 l 1,17,-1
 81 795 l 1,0,-1
91 788.59375 m 1,18,-1
 91 559.84375 l 1,19,-1
 157.21875 507.421875 l 1,20,-1
 426.703125 460.859375 l 1,21,-1
 428.96875 460.46875 l 1,22,-1
 430.84375 459.109375 l 1,23,-1
 708.265625 259.328125 l 1,24,-1
 712 535.125 l 1,25,-1
 712.15625 547.03125 l 1,26,-1
 723.859375 544.8125 l 1,27,-1
 760.859375 537.828125 l 1,28,-1
 769.15625 536.25 l 1,29,-1
 769 527.8125 l 1,30,-1
 763 198.828125 l 1,31,-1
 762.890625 192.765625 l 1,32,-1
 757.46875 190.0625 l 1,33,-1
 707.46875 165.046875 l 1,34,-1
 702.28125 162.453125 l 1,35,-1
 697.4375 165.671875 l 1,36,-1
 386.703125 373.1875 l 1,37,-1
 -12 397.375 l 1,38,-1
 -12 230.171875 l 1,39,-1
 113.375 52.734375 l 1,40,-1
 948.375 8.265625 l 1,41,-1
 1032.953125 114.421875 l 1,42,-1
 1025.0625 675.125 l 1,43,-1
 898.25 776.1875 l 1,44,-1
 156.90625 818.875 l 1,45,-1
 91 788.59375 l 1,18,-1
EndSplineSet
Validated: 524289
EndChar

StartChar: K
Encoding: 75 75 10
Width: 1094
VWidth: 0
Flags: W
LayerCount: 2
Fore
SplineSet
39 842.015625 m 1,0,-1
 521 815 l 1,1,-1
 591.703125 744.28125 l 1,2,-1
 592.53125 741.75 l 1,3,-1
 689 817 l 1,4,-1
 1024 797 l 1,5,-1
 1094.71875 726.28125 l 1,6,-1
 1104.71875 439.28125 l 1,7,-1
 974.375 331.40625 l 1,8,-1
 1040 315 l 1,9,-1
 1110.703125 244.28125 l 1,10,-1
 1110.703125 74.296875 l 1,11,-1
 988.703125 -68.71875 l 1,12,-1
 647.703125 -58.71875 l 1,13,-1
 577 12 l 1,14,-1
 521 68 l 1,15,-1
 361.484375 281.1875 l 1,16,-1
 348.71875 275.28125 l 1,17,-1
 548.703125 -21.703125 l 1,18,-1
 542.71875 -56.71875 l 1,19,-1
 133.71875 -33.703125 l 1,20,-1
 62.71875 25.28125 l 1,21,-1
 -8 95.984375 l 1,22,-1
 -12 319 l 1,23,-1
 41 379 l 1,24,-1
 49 481 l 1,25,-1
 -12 553 l 1,26,-1
 -22 707 l 1,27,-1
 39 842.015625 l 1,0,-1
45.296875 831.640625 m 1,28,-1
 -11.859375 705.15625 l 1,29,-1
 -2.234375 556.9375 l 1,30,-1
 56.625 487.46875 l 1,31,-1
 59.296875 484.328125 l 1,32,-1
 58.96875 480.21875 l 1,33,-1
 50.96875 378.21875 l 1,34,-1
 50.703125 374.890625 l 1,35,-1
 48.5 372.375 l 1,36,-1
 -1.9375 315.28125 l 1,37,-1
 1.921875 100.75 l 1,38,-1
 66.859375 46.796875 l 1,39,-1
 463.65625 24.484375 l 1,40,-1
 467.46875 46.734375 l 1,41,-1
 269.703125 340.40625 l 1,42,-1
 263.15625 350.15625 l 1,43,-1
 273.8125 355.078125 l 1,44,-1
 299.8125 367.078125 l 1,45,-1
 307.15625 370.484375 l 1,46,-1
 312 364 l 1,47,-1
 528.578125 74.5625 l 1,48,-1
 581.265625 21.875 l 1,49,-1
 913.5 12.140625 l 1,50,-1
 1030 148.6875 l 1,51,-1
 1030 307.1875 l 1,52,-1
 544.296875 428.625 l 1,53,-1
 503.234375 369.3125 l 1,54,-1
 498.75 362.84375 l 1,55,-1
 491.40625 365.671875 l 1,56,-1
 312.40625 434.671875 l 1,57,-1
 303.828125 437.984375 l 1,58,-1
 306.390625 446.796875 l 1,59,-1
 315.40625 477.78125 l 1,60,-1
 318.34375 487.921875 l 1,61,-1
 328.3125 484.4375 l 1,62,-1
 476.625 432.484375 l 1,63,-1
 501.875 489.078125 l 1,64,-1
 505.359375 496.875 l 1,65,-1
 513.609375 494.65625 l 1,66,-1
 880.609375 396 l 1,67,-1
 1023.828125 514.5625 l 1,68,-1
 1014.328125 787.5625 l 1,69,-1
 692.171875 806.796875 l 1,70,-1
 372.140625 557.109375 l 1,71,-1
 369 554.65625 l 1,72,-1
 365.015625 555.046875 l 1,73,-1
 324.03125 559.046875 l 1,74,-1
 299.625 561.4375 l 1,75,-1
 318.734375 576.796875 l 1,76,-1
 532.34375 748.453125 l 1,77,-1
 513.625 805.390625 l 1,78,-1
 45.296875 831.640625 l 1,28,-1
EndSplineSet
Validated: 524289
EndChar

StartChar: L
Encoding: 76 76 11
Width: 1094
VWidth: 0
Flags: WO
LayerCount: 2
Fore
SplineSet
94 821 m 1,0,-1
 390 795 l 1,1,-1
 624 782 l 1,2,-1
 694.703125 711.28125 l 1,3,-1
 730.703125 646.296875 l 1,4,-1
 702.328125 511.734375 l 1,5,-1
 877 539 l 1,6,-1
 1037.984375 416 l 1,7,-1
 1108.703125 345.28125 l 1,8,-1
 1094.71875 15.296875 l 1,9,-1
 1051.71875 -29.71875 l 1,10,-1
 542.703125 -70.71875 l 1,11,-1
 142.703125 -35.703125 l 1,12,-1
 72 35 l 1,13,-1
 -18 150 l 1,14,-1
 -16 702 l 1,15,-1
 94 821 l 1,0,-1
98.015625 810.609375 m 1,16,-1
 -6.015625 698.078125 l 1,17,-1
 -7.984375 153.4375 l 1,18,-1
 77.1875 44.578125 l 1,19,-1
 472.03125 10.03125 l 1,20,-1
 976.40625 50.65625 l 1,21,-1
 1014.171875 90.1875 l 1,22,-1
 1027.78125 411.21875 l 1,23,-1
 874.328125 528.46875 l 1,24,-1
 648.046875 493.140625 l 1,25,-1
 612.40625 353.859375 l 1,26,-1
 609.15625 341.1875 l 1,27,-1
 665.5 326.6875 l 1,28,-1
 675.3125 324.15625 l 1,29,-1
 672.65625 314.375 l 1,30,-1
 614.65625 101.375 l 1,31,-1
 612.609375 93.859375 l 1,32,-1
 604.828125 94 l 1,33,-1
 492.828125 96 l 1,34,-1
 480.734375 96.21875 l 1,35,-1
 483.21875 108.0625 l 1,36,-1
 487.203125 127.046875 l 1,37,-1
 488.71875 134.1875 l 1,38,-1
 495.96875 134.9375 l 1,39,-1
 527.71875 138.1875 l 1,40,-1
 575.609375 365.28125 l 1,41,-1
 649.4375 715.421875 l 1,42,-1
 617.921875 772.3125 l 1,43,-1
 389.28125 785.015625 l 1,44,-1
 98.015625 810.609375 l 1,16,-1
EndSplineSet
Validated: 524289
EndChar

StartChar: M
Encoding: 77 77 12
Width: 1094
VWidth: 0
Flags: W
LayerCount: 2
Fore
SplineSet
-32 840 m 1,0,-1
 259 797 l 1,1,-1
 324.28125 731.703125 l 1,2,-1
 373 811 l 1,3,-1
 932 823 l 1,4,-1
 1002.71875 752.28125 l 1,5,-1
 1121.71875 627.296875 l 1,6,-1
 1075.09375 452.90625 l 1,7,-1
 1123.703125 404.28125 l 1,8,-1
 1121.71875 54.296875 l 1,9,-1
 1023.71875 -47.703125 l 1,10,-1
 590.703125 -55.71875 l 1,11,-1
 520 15 l 1,12,-1
 556.265625 135.609375 l 1,13,-1
 542.71875 134.296875 l 1,14,-1
 472 205 l 1,15,-1
 401.875 311.609375 l 1,16,-1
 384.703125 302.28125 l 1,17,-1
 483.703125 136.296875 l 1,18,-1
 487.71875 -17.71875 l 1,19,-1
 448.71875 -56.71875 l 1,20,-1
 187.703125 -29.703125 l 1,21,-1
 47.703125 70.296875 l 1,22,-1
 -23 141 l 1,23,-1
 -23 354 l 1,24,-1
 2 379 l 1,25,-1
 2 684 l 1,26,-1
 -32 717 l 1,27,-1
 -32 840 l 1,0,-1
-22 828.40625 m 1,28,-1
 -22 721.234375 l 1,29,-1
 8.96875 691.1875 l 1,30,-1
 12 688.234375 l 1,31,-1
 12 684 l 1,32,-1
 12 379 l 1,33,-1
 12 374.859375 l 1,34,-1
 9.078125 371.921875 l 1,35,-1
 -13 349.859375 l 1,36,-1
 -13 146.140625 l 1,37,-1
 120.65625 50.671875 l 1,38,-1
 374.296875 24.4375 l 1,39,-1
 406.890625 57.03125 l 1,40,-1
 403.0625 204.125 l 1,41,-1
 305.40625 367.875 l 1,42,-1
 300.078125 376.8125 l 1,43,-1
 309.234375 381.78125 l 1,44,-1
 344.234375 400.796875 l 1,45,-1
 352.3125 405.171875 l 1,46,-1
 357.359375 397.5 l 1,47,-1
 477.046875 215.546875 l 1,48,-1
 526.515625 220.328125 l 1,49,-1
 596.484375 435.09375 l 1,50,-1
 599.28125 443.6875 l 1,51,-1
 608.109375 441.765625 l 1,52,-1
 645.109375 433.78125 l 1,53,-1
 655.703125 431.484375 l 1,54,-1
 652.578125 421.125 l 1,55,-1
 533.53125 25.25 l 1,56,-1
 948.671875 32.921875 l 1,57,-1
 1041.03125 129.046875 l 1,58,-1
 1042.9375 465 l 1,59,-1
 1015.875 465 l 1,60,-1
 999.5625 397.703125 l 1,61,-1
 955.71875 216.65625 l 1,62,-1
 953.5 207.484375 l 1,63,-1
 944.21875 209.171875 l 1,64,-1
 922.21875 213.15625 l 1,65,-1
 911.53125 215.09375 l 1,66,-1
 914.34375 225.578125 l 1,67,-1
 962.453125 405.515625 l 1,68,-1
 1039.890625 695.171875 l 1,69,-1
 927.796875 812.90625 l 1,70,-1
 378.671875 801.125 l 1,71,-1
 333.796875 728.078125 l 1,72,-1
 387.25 643.65625 l 1,73,-1
 532.453125 414.359375 l 1,74,-1
 535.578125 409.40625 l 1,75,-1
 532.796875 404.25 l 1,76,-1
 498.796875 341.25 l 1,77,-1
 491.859375 328.375 l 1,78,-1
 482.390625 339.515625 l 1,79,-1
 431.375 399.53125 l 1,80,-1
 426.609375 405.125 l 1,81,-1
 430.546875 411.34375 l 1,82,-1
 458.21875 455.0625 l 1,83,-1
 355.203125 622.03125 l 1,84,-1
 252.9375 787.78125 l 1,85,-1
 -22 828.40625 l 1,28,-1
EndSplineSet
Validated: 524289
EndChar

StartChar: N
Encoding: 78 78 13
Width: 1094
VWidth: 0
Flags: W
LayerCount: 2
Fore
SplineSet
-28 776 m 1,0,-1
 14 807 l 1,1,-1
 474 434 l 1,2,-1
 544.703125 363.28125 l 1,3,-1
 531.8125 342.78125 l 1,4,-1
 699 225 l 1,5,-1
 722.03125 261.671875 l 1,6,-1
 397.703125 541.296875 l 1,7,-1
 327 612 l 1,8,-1
 289 803 l 1,9,-1
 679 809 l 1,10,-1
 1038 774 l 1,11,-1
 1108.703125 703.296875 l 1,12,-1
 1114.703125 529.296875 l 1,13,-1
 1086.71875 480.28125 l 1,14,-1
 1106.71875 9.28125 l 1,15,-1
 1059.703125 -37.71875 l 1,16,-1
 713.71875 -70.71875 l 1,17,-1
 643 0 l 1,18,-1
 643.875 88.984375 l 1,19,-1
 407.71875 281.296875 l 1,20,-1
 401.59375 273.953125 l 1,21,-1
 519 170 l 1,22,-1
 589.71875 99.296875 l 1,23,-1
 555.703125 -76.703125 l 1,24,-1
 181.71875 -45.703125 l 1,25,-1
 64.71875 25.296875 l 1,26,-1
 -6 96 l 1,27,-1
 -16.015625 383 l 1,28,-1
 12 403 l 1,29,-1
 17.828125 564.15625 l 1,30,-1
 -28 610 l 1,31,-1
 -28 776 l 1,0,-1
-18 770.953125 m 1,32,-1
 -18 614.484375 l 1,33,-1
 24.65625 576.46875 l 1,34,-1
 28.171875 573.34375 l 1,35,-1
 28 568.640625 l 1,36,-1
 22 402.640625 l 1,37,-1
 21.8125 397.734375 l 1,38,-1
 17.8125 394.875 l 1,39,-1
 -5.828125 377.984375 l 1,40,-1
 3.8125 101.75 l 1,41,-1
 114.171875 34.78125 l 1,42,-1
 476.875 4.703125 l 1,43,-1
 508.109375 166.296875 l 1,44,-1
 320.375 332.515625 l 1,45,-1
 313.109375 338.9375 l 1,46,-1
 319.3125 346.390625 l 1,47,-1
 329.3125 358.40625 l 1,48,-1
 335.640625 366 l 1,49,-1
 343.3125 359.765625 l 1,50,-1
 650.3125 109.75 l 1,51,-1
 654.046875 106.71875 l 1,52,-1
 654 101.90625 l 1,53,-1
 653.109375 11.015625 l 1,54,-1
 984.46875 42.609375 l 1,55,-1
 1025.828125 83.953125 l 1,56,-1
 1006.015625 550.5625 l 1,57,-1
 1005.890625 553.453125 l 1,58,-1
 1007.3125 555.953125 l 1,59,-1
 1033.90625 602.5 l 1,60,-1
 1028.3125 764.90625 l 1,61,-1
 678.59375 798.984375 l 1,62,-1
 301.140625 793.1875 l 1,63,-1
 336.125 617.328125 l 1,64,-1
 732.53125 275.5625 l 1,65,-1
 739.03125 269.953125 l 1,66,-1
 734.46875 262.671875 l 1,67,-1
 707.46875 219.671875 l 1,68,-1
 701.859375 210.75 l 1,69,-1
 693.234375 216.8125 l 1,70,-1
 446.234375 390.828125 l 1,71,-1
 438.484375 396.296875 l 1,72,-1
 443.53125 404.328125 l 1,73,-1
 460.8125 431.8125 l 1,74,-1
 13.703125 794.359375 l 1,75,-1
 -18 770.953125 l 1,32,-1
EndSplineSet
Validated: 524289
EndChar

StartChar: O
Encoding: 79 79 14
Width: 1094
VWidth: 0
Flags: W
LayerCount: 2
Fore
SplineSet
-40 698 m 1,0,-1
 157 805 l 1,1,-1
 202 780 l 1,2,-1
 217.90625 764.09375 l 1,3,-1
 237 817 l 1,4,-1
 872 776 l 1,5,-1
 942.703125 705.296875 l 1,6,-1
 1096.71875 543.296875 l 1,7,-1
 1094.703125 -17.71875 l 1,8,-1
 1039.703125 -72.71875 l 1,9,-1
 143.703125 -39.71875 l 1,10,-1
 40.71875 56.296875 l 1,11,-1
 -30 127 l 1,12,-1
 -40 698 l 1,0,-1
595.28125 506.53125 m 1,13,-1
 575.703125 504.28125 l 1,14,-1
 542.703125 474.296875 l 1,15,-1
 538.71875 398.28125 l 1,16,-1
 487.875 422.125 l 1,17,-1
 534.71875 375.28125 l 1,18,-1
 541.34375 115.515625 l 1,19,-1
 587 104 l 1,20,-1
 628 137 l 1,21,-1
 595.28125 506.53125 l 1,13,-1
-29.890625 692.109375 m 1,22,-1
 -20.078125 131.421875 l 1,23,-1
 77.09375 40.84375 l 1,24,-1
 965 8.15625 l 1,25,-1
 1014 57.15625 l 1,26,-1
 1015.984375 610.015625 l 1,27,-1
 867.4375 766.28125 l 1,28,-1
 243.859375 806.546875 l 1,29,-1
 175.5 617.171875 l 1,30,-1
 268.90625 573.375 l 1,31,-1
 458.796875 484.359375 l 1,32,-1
 462 545.53125 l 1,33,-1
 462.21875 549.640625 l 1,34,-1
 465.265625 552.40625 l 1,35,-1
 498.265625 582.40625 l 1,36,-1
 500.65625 584.5625 l 1,37,-1
 503.859375 584.9375 l 1,38,-1
 564.859375 591.9375 l 1,39,-1
 569.90625 592.515625 l 1,40,-1
 573.34375 588.796875 l 1,41,-1
 598.34375 561.796875 l 1,42,-1
 600.65625 559.28125 l 1,43,-1
 600.953125 555.875 l 1,44,-1
 637.953125 137.890625 l 1,45,-1
 638.4375 132.5625 l 1,46,-1
 634.265625 129.21875 l 1,47,-1
 593.265625 96.203125 l 1,48,-1
 589.390625 93.078125 l 1,49,-1
 584.546875 94.296875 l 1,50,-1
 469.546875 123.3125 l 1,51,-1
 462.1875 125.15625 l 1,52,-1
 462 132.75 l 1,53,-1
 454.15625 439.734375 l 1,54,-1
 239.359375 547.140625 l 1,55,-1
 135.53125 599.0625 l 1,56,-1
 127.59375 603.03125 l 1,57,-1
 130.59375 611.390625 l 1,58,-1
 189.703125 775.390625 l 1,59,-1
 156.9375 793.59375 l 1,60,-1
 -29.890625 692.109375 l 1,22,-1
EndSplineSet
Validated: 524289
EndChar

StartChar: P
Encoding: 80 80 15
Width: 1094
VWidth: 0
Flags: W
LayerCount: 2
Fore
SplineSet
-30 711 m 1,0,-1
 49 811 l 1,1,-1
 121 813 l 1,2,-1
 147.78125 786.21875 l 1,3,-1
 156 821 l 1,4,-1
 920 801.015625 l 1,5,-1
 967 766 l 1,6,-1
 1037.71875 695.296875 l 1,7,-1
 1117.703125 347.28125 l 1,8,-1
 1086.71875 261.296875 l 1,9,-1
 839.71875 113.296875 l 1,10,-1
 707.71875 205.296875 l 1,11,-1
 679.71875 212.8125 l 1,12,-1
 876 63 l 1,13,-1
 946.703125 -7.71875 l 1,14,-1
 923.703125 -82.703125 l 1,15,-1
 78.703125 -47.703125 l 1,16,-1
 8 23 l 1,17,-1
 -30 84 l 1,18,-1
 -6 104 l 1,19,-1
 2 317 l 1,20,-1
 20 334 l 1,21,-1
 21.375 356.609375 l 1,22,-1
 -30 408 l 1,23,-1
 -30 711 l 1,0,-1
724.203125 545.015625 m 1,24,-1
 703.71875 550.296875 l 1,25,-1
 682.71875 478.296875 l 1,26,-1
 632.453125 501.546875 l 1,27,-1
 676.71875 457.28125 l 1,28,-1
 688.296875 362.78125 l 1,29,-1
 718 358 l 1,30,-1
 749 487 l 1,31,-1
 724.203125 545.015625 l 1,24,-1
-20 707.53125 m 1,32,-1
 -20 414.34375 l 1,33,-1
 27.265625 392.046875 l 1,34,-1
 33.390625 389.15625 l 1,35,-1
 32.96875 382.390625 l 1,36,-1
 29.984375 333.390625 l 1,37,-1
 29.734375 329.4375 l 1,38,-1
 26.859375 326.734375 l 1,39,-1
 11.84375 312.53125 l 1,40,-1
 4 103.625 l 1,41,-1
 3.828125 99.171875 l 1,42,-1
 0.40625 96.3125 l 1,43,-1
 -16.90625 81.890625 l 1,44,-1
 13.6875 32.78125 l 1,45,-1
 845.6875 -1.6875 l 1,46,-1
 864.390625 59.28125 l 1,47,-1
 626.46875 240.890625 l 1,48,-1
 452.3125 289.359375 l 1,49,-1
 446.0625 291.109375 l 1,50,-1
 445.109375 297.53125 l 1,51,-1
 441.109375 324.53125 l 1,52,-1
 438.875 339.609375 l 1,53,-1
 453.59375 335.65625 l 1,54,-1
 639.59375 285.65625 l 1,55,-1
 641.28125 285.203125 l 1,56,-1
 642.71875 284.203125 l 1,57,-1
 769.40625 195.90625 l 1,58,-1
 1007.796875 338.75 l 1,59,-1
 1036.59375 418.625 l 1,60,-1
 958.078125 760.1875 l 1,61,-1
 916.5625 791.09375 l 1,62,-1
 163.875 810.78125 l 1,63,-1
 154.609375 771.65625 l 1,64,-1
 282.625 712.421875 l 1,65,-1
 605.65625 562.953125 l 1,66,-1
 623.40625 623.8125 l 1,67,-1
 626.125 633.109375 l 1,68,-1
 635.5 630.6875 l 1,69,-1
 701.5 613.6875 l 1,70,-1
 706.265625 612.453125 l 1,71,-1
 708.1875 607.9375 l 1,72,-1
 758.203125 490.921875 l 1,73,-1
 759.5 487.875 l 1,74,-1
 758.71875 484.65625 l 1,75,-1
 727.71875 355.65625 l 1,76,-1
 725.5625 346.640625 l 1,77,-1
 716.40625 348.125 l 1,78,-1
 623.40625 363.125 l 1,79,-1
 615.984375 364.328125 l 1,80,-1
 615.0625 371.78125 l 1,81,-1
 596.75 521.3125 l 1,82,-1
 255.3125 682.484375 l 1,83,-1
 118.734375 746.953125 l 1,84,-1
 113.21875 749.5625 l 1,85,-1
 113.015625 755.640625 l 1,86,-1
 111.359375 802.71875 l 1,87,-1
 53.953125 801.125 l 1,88,-1
 -20 707.53125 l 1,32,-1
EndSplineSet
Validated: 524289
EndChar

StartChar: Q
Encoding: 81 81 16
Width: 1094
VWidth: 0
Flags: W
LayerCount: 2
Fore
SplineSet
119 834 m 1,0,-1
 841 793 l 1,1,-1
 879.984375 754 l 1,2,-1
 906 778 l 1,3,-1
 976.71875 707.28125 l 1,4,-1
 1125.71875 485.296875 l 1,5,-1
 1077.703125 130.296875 l 1,6,-1
 984.71875 66.296875 l 1,7,-1
 1056.71875 -95.71875 l 1,8,-1
 898.71875 -95.703125 l 1,9,-1
 792.71875 -15.71875 l 1,10,-1
 657.703125 -68.71875 l 1,11,-1
 132.71875 -27.703125 l 1,12,-1
 62 43 l 1,13,-1
 -40 266 l 1,14,-1
 -40 709 l 1,15,-1
 119 834 l 1,0,-1
895.28125 217.3125 m 1,16,-1
 912 240 l 1,17,-1
 765.703125 532.59375 l 1,18,-1
 668.703125 443.296875 l 1,19,-1
 650.15625 368.125 l 1,20,-1
 779 354 l 1,21,-1
 849.703125 283.296875 l 1,22,-1
 895.28125 217.3125 l 1,16,-1
668.21875 134.546875 m 1,23,-1
 669 135 l 1,24,-1
 617 233.671875 l 1,25,-1
 612.703125 216.28125 l 1,26,-1
 668.21875 134.546875 l 1,23,-1
122.21875 823.796875 m 1,27,-1
 -30 704.15625 l 1,28,-1
 -30 268.1875 l 1,29,-1
 68.65625 52.515625 l 1,30,-1
 585.484375 12.15625 l 1,31,-1
 718.34375 64.3125 l 1,32,-1
 723.5625 66.359375 l 1,33,-1
 728.03125 62.984375 l 1,34,-1
 831.34375 -15 l 1,35,-1
 970.625 -15 l 1,36,-1
 904.859375 132.9375 l 1,37,-1
 901.484375 140.53125 l 1,38,-1
 908.328125 145.234375 l 1,39,-1
 997.6875 206.734375 l 1,40,-1
 1044.578125 553.578125 l 1,41,-1
 904.203125 762.734375 l 1,42,-1
 804.34375 670.640625 l 1,43,-1
 738.3125 609.75 l 1,44,-1
 920.953125 244.484375 l 1,45,-1
 923.6875 239 l 1,46,-1
 920.046875 234.078125 l 1,47,-1
 892.0625 196.0625 l 1,48,-1
 883.75 184.78125 l 1,49,-1
 875.78125 196.3125 l 1,50,-1
 773.375 344.5625 l 1,51,-1
 630.640625 360.21875 l 1,52,-1
 601.9375 283.703125 l 1,53,-1
 677.84375 139.65625 l 1,54,-1
 682.296875 131.21875 l 1,55,-1
 674.0625 126.375 l 1,56,-1
 657.0625 116.375 l 1,57,-1
 648.984375 111.625 l 1,58,-1
 643.71875 119.390625 l 1,59,-1
 533.71875 281.375 l 1,60,-1
 531.21875 285.0625 l 1,61,-1
 532.28125 289.390625 l 1,62,-1
 588.28125 516.390625 l 1,63,-1
 589 519.3125 l 1,64,-1
 591.21875 521.359375 l 1,65,-1
 785.5625 700.28125 l 1,66,-1
 850.109375 759.71875 l 1,67,-1
 835.28125 783.3125 l 1,68,-1
 122.21875 823.796875 l 1,27,-1
EndSplineSet
Validated: 524289
EndChar

StartChar: R
Encoding: 82 82 17
Width: 1094
VWidth: 0
Flags: W
LayerCount: 2
Fore
SplineSet
-24.015625 759 m 1,0,-1
 28.984375 820 l 1,1,-1
 566 825 l 1,2,-1
 1004 705 l 1,3,-1
 1074.703125 634.28125 l 1,4,-1
 1110.703125 281.296875 l 1,5,-1
 1015.625 267.28125 l 1,6,-1
 1032 260 l 1,7,-1
 1102.71875 189.28125 l 1,8,-1
 1065.71875 -70.71875 l 1,9,-1
 539.703125 -48.71875 l 1,10,-1
 499.1875 -8.1875 l 1,11,-1
 512.703125 -34.703125 l 1,12,-1
 480.71875 -69.703125 l 1,13,-1
 86.703125 -58.71875 l 1,14,-1
 16 12 l 1,15,-1
 -23 53 l 1,16,-1
 -39 375.015625 l 1,17,-1
 -8.015625 469 l 1,18,-1
 14.015625 471 l 1,19,-1
 59 430.015625 l 1,20,-1
 83.359375 433.359375 l 1,21,-1
 58.71875 456.28125 l 1,22,-1
 -12 527 l 1,23,-1
 -24.015625 759 l 1,0,-1
463.28125 188.4375 m 1,24,-1
 409.71875 167.28125 l 1,25,-1
 477.578125 34.203125 l 1,26,-1
 495 59 l 1,27,-1
 463.28125 188.4375 l 1,24,-1
-13.8125 755.484375 m 1,28,-1
 -2.21875 531.5625 l 1,29,-1
 94.8125 441.3125 l 1,30,-1
 110.25 426.96875 l 1,31,-1
 89.359375 424.09375 l 1,32,-1
 60.359375 420.109375 l 1,33,-1
 55.71875 419.46875 l 1,34,-1
 52.265625 422.625 l 1,35,-1
 10.53125 460.640625 l 1,36,-1
 -0.5625 459.640625 l 1,37,-1
 -28.921875 373.640625 l 1,38,-1
 -13.1875 57.203125 l 1,39,-1
 20.40625 21.875 l 1,40,-1
 405.703125 11.125 l 1,41,-1
 429.9375 37.640625 l 1,42,-1
 330.09375 233.453125 l 1,43,-1
 325.09375 243.25 l 1,44,-1
 335.328125 247.296875 l 1,45,-1
 403.328125 274.15625 l 1,46,-1
 369.25 422.765625 l 1,47,-1
 367.015625 432.53125 l 1,48,-1
 376.765625 434.75 l 1,49,-1
 472.046875 456.53125 l 1,50,-1
 467.25 477.796875 l 1,51,-1
 464.859375 488.375 l 1,52,-1
 475.59375 489.90625 l 1,53,-1
 735.59375 526.90625 l 1,54,-1
 741.71875 527.78125 l 1,55,-1
 745.234375 522.6875 l 1,56,-1
 792.21875 454.6875 l 1,57,-1
 800.546875 442.625 l 1,58,-1
 786.28125 439.265625 l 1,59,-1
 752.296875 431.25 l 1,60,-1
 743.28125 429.140625 l 1,61,-1
 740.46875 437.953125 l 1,62,-1
 736.0625 451.78125 l 1,63,-1
 421.296875 401.828125 l 1,64,-1
 504.703125 61.375 l 1,65,-1
 505.796875 56.96875 l 1,66,-1
 503.171875 53.25 l 1,67,-1
 487.703125 31.21875 l 1,68,-1
 986.390625 10.375 l 1,69,-1
 1021.03125 253.9375 l 1,70,-1
 920.453125 298.75 l 1,71,-1
 745.828125 277.515625 l 1,72,-1
 721.3125 251.1875 l 1,73,-1
 719.09375 248.796875 l 1,74,-1
 715.875 248.1875 l 1,75,-1
 631.875 232.171875 l 1,76,-1
 629.234375 231.671875 l 1,77,-1
 626.71875 232.546875 l 1,78,-1
 557.71875 256.5625 l 1,79,-1
 552.3125 258.4375 l 1,80,-1
 551.1875 264.046875 l 1,81,-1
 548.203125 279.03125 l 1,82,-1
 546.140625 289.359375 l 1,83,-1
 556.546875 290.890625 l 1,84,-1
 1029.078125 360.5 l 1,85,-1
 994.734375 697.15625 l 1,86,-1
 564.703125 815 l 1,87,-1
 33.59375 810.046875 l 1,88,-1
 -13.8125 755.484375 l 1,28,-1
EndSplineSet
Validated: 524289
EndChar

StartChar: S
Encoding: 83 83 18
Width: 1094
VWidth: 0
Flags: W
LayerCount: 2
Fore
SplineSet
616.09375 499.25 m 1,0,-1
 654.84375 487.15625 l 1,1,-1
 642.078125 499.90625 l 1,2,-1
 616.09375 499.25 l 1,0,-1
991.171875 353.84375 m 1,3,-1
 1020.703125 324.296875 l 1,4,-1
 1145.71875 91.28125 l 1,5,-1
 688.71875 -93.703125 l 1,6,-1
 92.71875 -58.71875 l 1,7,-1
 22.015625 12 l 1,8,-1
 -52 266 l 1,9,-1
 36 356 l 1,10,-1
 140.78125 355.203125 l 1,11,-1
 113 383 l 1,12,-1
 -46 625 l 1,13,-1
 42 809 l 1,14,-1
 465 838 l 1,15,-1
 948 774 l 1,16,-1
 1034 743 l 1,17,-1
 1104.71875 672.296875 l 1,18,-1
 1104.71875 490.28125 l 1,19,-1
 991.171875 353.84375 l 1,3,-1
347.9375 312.28125 m 1,20,-1
 383.015625 283 l 1,21,-1
 435.421875 283 l 1,22,-1
 429.71875 288.296875 l 1,23,-1
 405.03125 312.96875 l 1,24,-1
 403.703125 312.28125 l 1,25,-1
 347.9375 312.28125 l 1,20,-1
447.796875 290.328125 m 1,26,-1
 466.484375 273 l 1,27,-1
 440.984375 273 l 1,28,-1
 383.015625 273 l 1,29,-1
 379.375 273 l 1,30,-1
 376.59375 275.328125 l 1,31,-1
 294.34375 344.03125 l 1,32,-1
 40.171875 345.96875 l 1,33,-1
 -40.765625 263.1875 l 1,34,-1
 29.640625 21.5625 l 1,35,-1
 616.34375 -12.875 l 1,36,-1
 1060.921875 167.078125 l 1,37,-1
 943.125 386.6875 l 1,38,-1
 812.34375 427.5 l 1,39,-1
 521.015625 518.453125 l 1,40,-1
 516.4375 519.890625 l 1,41,-1
 514.6875 524.359375 l 1,42,-1
 498.671875 565.359375 l 1,43,-1
 493.5 578.625 l 1,44,-1
 507.734375 579 l 1,45,-1
 585.75 581 l 1,46,-1
 591.203125 581.140625 l 1,47,-1
 594.265625 576.625 l 1,48,-1
 624.4375 532.328125 l 1,49,-1
 827.859375 459.71875 l 1,50,-1
 911.78125 429.765625 l 1,51,-1
 1024 564.609375 l 1,52,-1
 1024 735.984375 l 1,53,-1
 945.625 764.234375 l 1,54,-1
 464.6875 827.953125 l 1,55,-1
 48.515625 799.421875 l 1,56,-1
 -34.53125 625.78125 l 1,57,-1
 118.390625 393 l 1,58,-1
 330.578125 393 l 1,59,-1
 468.421875 463.875 l 1,60,-1
 472.421875 465.9375 l 1,61,-1
 476.625 464.3125 l 1,62,-1
 831.625 326.328125 l 1,63,-1
 839.5625 323.234375 l 1,64,-1
 837.78125 314.90625 l 1,65,-1
 831.78125 286.90625 l 1,66,-1
 829.3125 275.40625 l 1,67,-1
 818.359375 279.6875 l 1,68,-1
 487.390625 409.109375 l 1,69,-1
 376.609375 356.3125 l 1,70,-1
 447.796875 290.328125 l 1,26,-1
EndSplineSet
Validated: 524289
EndChar

StartChar: T
Encoding: 84 84 19
Width: 1094
VWidth: 0
Flags: W
LayerCount: 2
Fore
SplineSet
-27 801 m 1,0,-1
 476 829 l 1,1,-1
 1015 793 l 1,2,-1
 1085.71875 722.28125 l 1,3,-1
 1128.703125 316.28125 l 1,4,-1
 961.734375 285.78125 l 1,5,-1
 1011 242 l 1,6,-1
 1081.703125 171.28125 l 1,7,-1
 1054.703125 -29.703125 l 1,8,-1
 595.703125 -80.703125 l 1,9,-1
 179.703125 -68.71875 l 1,10,-1
 122.703125 -35.703125 l 1,11,-1
 52 35 l 1,12,-1
 -22 274 l 1,13,-1
 -5 383 l 1,14,-1
 62.375 415.625 l 1,15,-1
 -5 483 l 1,16,-1
 -48 612 l 1,17,-1
 -27 801 l 1,0,-1
-18 791.484375 m 1,18,-1
 -37.8125 613.078125 l 1,19,-1
 2.1875 493.0625 l 1,20,-1
 96.0625 493.9375 l 1,21,-1
 156.640625 654.53125 l 1,22,-1
 160.28125 664.171875 l 1,23,-1
 169.796875 660.25 l 1,24,-1
 203.8125 646.234375 l 1,25,-1
 212.96875 642.46875 l 1,26,-1
 209.28125 633.265625 l 1,27,-1
 132.28125 441.28125 l 1,28,-1
 130.84375 437.6875 l 1,29,-1
 127.359375 436 l 1,30,-1
 4.0625 376.28125 l 1,31,-1
 -11.765625 274.734375 l 1,32,-1
 60.390625 41.703125 l 1,33,-1
 111.8125 11.921875 l 1,34,-1
 524.578125 0.015625 l 1,35,-1
 975.125 50.078125 l 1,36,-1
 1000.375 238.0625 l 1,37,-1
 891.171875 335.140625 l 1,38,-1
 828.65625 321.4375 l 1,39,-1
 718.140625 297.234375 l 1,40,-1
 707.875 294.984375 l 1,41,-1
 706.140625 305.34375 l 1,42,-1
 640.140625 698.34375 l 1,43,-1
 638.34375 709.03125 l 1,44,-1
 649.140625 709.96875 l 1,45,-1
 672.140625 711.953125 l 1,46,-1
 681.078125 712.734375 l 1,47,-1
 682.8125 703.921875 l 1,48,-1
 753.90625 341.609375 l 1,49,-1
 816.046875 352.96875 l 1,50,-1
 1047.078125 395.171875 l 1,51,-1
 1005.953125 783.578125 l 1,52,-1
 475.953125 818.984375 l 1,53,-1
 -18 791.484375 l 1,18,-1
EndSplineSet
Validated: 524289
EndChar

StartChar: U
Encoding: 85 85 20
Width: 1094
VWidth: 0
Flags: W
LayerCount: 2
Fore
SplineSet
3 807 m 1,0,-1
 115 809 l 1,1,-1
 156 764 l 1,2,-1
 471 797 l 1,3,-1
 541.703125 726.28125 l 1,4,-1
 545.28125 713.09375 l 1,5,-1
 546 727 l 1,6,-1
 609 795 l 1,7,-1
 930 799.015625 l 1,8,-1
 1049 700 l 1,9,-1
 1119.71875 629.296875 l 1,10,-1
 1114.703125 195.296875 l 1,11,-1
 1000.71875 -58.71875 l 1,12,-1
 569.703125 -70.71875 l 1,13,-1
 230.71875 -0.703125 l 1,14,-1
 189.703125 -90.703125 l 1,15,-1
 70.71875 -21.703125 l 1,16,-1
 -0 49.015625 l 1,17,-1
 -43 709 l 1,18,-1
 3 807 l 1,0,-1
592.15625 234.84375 m 1,19,-1
 539.90625 287.09375 l 1,20,-1
 537.71875 212.28125 l 1,21,-1
 518.671875 200.71875 l 1,22,-1
 543 197 l 1,23,-1
 592 231 l 1,24,-1
 592.15625 234.84375 l 1,19,-1
9.40625 797.109375 m 1,25,-1
 -32.859375 707.09375 l 1,26,-1
 9.625 54.984375 l 1,27,-1
 114.46875 -5.8125 l 1,28,-1
 150.90625 74.15625 l 1,29,-1
 154.21875 81.40625 l 1,30,-1
 162.03125 79.796875 l 1,31,-1
 499.875 10.03125 l 1,32,-1
 923.453125 21.8125 l 1,33,-1
 1034.03125 268.203125 l 1,34,-1
 1038.953125 695.359375 l 1,35,-1
 926.4375 788.96875 l 1,36,-1
 613.421875 785.046875 l 1,37,-1
 555.796875 722.859375 l 1,38,-1
 534.390625 310.21875 l 1,39,-1
 597 290.53125 l 1,40,-1
 604.296875 288.25 l 1,41,-1
 604 280.59375 l 1,42,-1
 602 230.609375 l 1,43,-1
 601.796875 225.625 l 1,44,-1
 597.703125 222.78125 l 1,45,-1
 548.703125 188.796875 l 1,46,-1
 545.4375 186.515625 l 1,47,-1
 541.5 187.125 l 1,48,-1
 410.5 207.109375 l 1,49,-1
 400.96875 208.5625 l 1,50,-1
 402.0625 218.125 l 1,51,-1
 406.0625 253.125 l 1,52,-1
 406.625 258 l 1,53,-1
 410.8125 260.546875 l 1,54,-1
 457.15625 288.71875 l 1,55,-1
 470.953125 758.8125 l 1,56,-1
 463.5625 786.15625 l 1,57,-1
 157.03125 754.046875 l 1,58,-1
 152 753.53125 l 1,59,-1
 148.609375 757.265625 l 1,60,-1
 110.65625 798.921875 l 1,61,-1
 9.40625 797.109375 l 1,25,-1
EndSplineSet
Validated: 524289
EndChar

StartChar: V
Encoding: 86 86 21
Width: 1094
VWidth: 0
Flags: W
LayerCount: 2
Fore
SplineSet
83 803 m 1,0,-1
 148 817 l 1,1,-1
 445 764 l 1,2,-1
 515.71875 693.28125 l 1,3,-1
 579.421875 533.703125 l 1,4,-1
 654 805 l 1,5,-1
 1007 801.015625 l 1,6,-1
 1077.703125 730.296875 l 1,7,-1
 1124.703125 572.28125 l 1,8,-1
 1067.703125 162.28125 l 1,9,-1
 584.71875 -101.71875 l 1,10,-1
 564.71875 -99.703125 l 1,11,-1
 60.71875 173.296875 l 1,12,-1
 -10 244 l 1,13,-1
 -27 664 l 1,14,-1
 83 803 l 1,0,-1
88.609375 793.984375 m 1,15,-1
 -16.859375 660.703125 l 1,16,-1
 -0.234375 250.09375 l 1,17,-1
 497 -19.25 l 1,18,-1
 511.921875 -20.75 l 1,19,-1
 987.78125 239.359375 l 1,20,-1
 1043.796875 642.21875 l 1,21,-1
 999.515625 791.09375 l 1,22,-1
 661.59375 794.921875 l 1,23,-1
 549.15625 385.875 l 1,24,-1
 581.15625 352.96875 l 1,25,-1
 585.421875 348.578125 l 1,26,-1
 583.46875 342.78125 l 1,27,-1
 518.46875 150.796875 l 1,28,-1
 516.171875 144 l 1,29,-1
 509 144 l 1,30,-1
 462 144 l 1,31,-1
 456.875 144 l 1,32,-1
 453.875 148.171875 l 1,33,-1
 430.875 180.15625 l 1,34,-1
 428.015625 184.140625 l 1,35,-1
 429.421875 188.84375 l 1,36,-1
 529.4375 525.515625 l 1,37,-1
 437.78125 755.125 l 1,38,-1
 148.171875 806.8125 l 1,39,-1
 88.609375 793.984375 l 1,15,-1
EndSplineSet
Validated: 524289
EndChar

StartChar: W
Encoding: 87 87 22
Width: 1094
VWidth: 0
Flags: W
LayerCount: 2
Fore
SplineSet
-25 595.984375 m 1,0,-1
 199 805 l 1,1,-1
 554 815 l 1,2,-1
 618.265625 750.734375 l 1,3,-1
 626 809 l 1,4,-1
 935 846 l 1,5,-1
 1005.71875 775.28125 l 1,6,-1
 1150.71875 472.296875 l 1,7,-1
 1094.703125 -17.71875 l 1,8,-1
 641.71875 -90.71875 l 1,9,-1
 571 -20.015625 l 1,10,-1
 512.40625 97.734375 l 1,11,-1
 371.71875 -90.703125 l 1,12,-1
 119.71875 -31.71875 l 1,13,-1
 49 38.984375 l 1,14,-1
 -23 524 l 1,15,-1
 -25 595.984375 l 1,0,-1
658.578125 301.65625 m 1,16,-1
 605.65625 475.328125 l 1,17,-1
 528 467.0625 l 1,18,-1
 540 465 l 1,19,-1
 610.703125 394.28125 l 1,20,-1
 658.578125 301.65625 l 1,16,-1
-14.875 591.765625 m 1,21,-1
 -13.015625 524.875 l 1,22,-1
 57.890625 47.171875 l 1,23,-1
 296.90625 -8.765625 l 1,24,-1
 454.984375 202.984375 l 1,25,-1
 464.71875 216 l 1,26,-1
 471.953125 201.453125 l 1,27,-1
 576.671875 -8.96875 l 1,28,-1
 1014.921875 61.671875 l 1,29,-1
 1069.75 541.28125 l 1,30,-1
 929.078125 835.21875 l 1,31,-1
 634.890625 800 l 1,32,-1
 599.203125 530.84375 l 1,33,-1
 676.5625 276.921875 l 1,34,-1
 678.375 271 l 1,35,-1
 673.875 266.75 l 1,36,-1
 654.875 248.734375 l 1,37,-1
 645.21875 239.59375 l 1,38,-1
 639.109375 251.40625 l 1,39,-1
 533.40625 455.984375 l 1,40,-1
 476.171875 465.796875 l 1,41,-1
 358.234375 182.15625 l 1,42,-1
 355.671875 175.984375 l 1,43,-1
 349 175.984375 l 1,44,-1
 323 176 l 1,45,-1
 308.75 176 l 1,46,-1
 313.59375 189.40625 l 1,47,-1
 440.59375 540.390625 l 1,48,-1
 442.71875 546.28125 l 1,49,-1
 448.9375 546.9375 l 1,50,-1
 534.328125 556.03125 l 1,51,-1
 543.609375 804.703125 l 1,52,-1
 203.0625 795.109375 l 1,53,-1
 -14.875 591.765625 l 1,21,-1
EndSplineSet
Validated: 524289
EndChar

StartChar: X
Encoding: 88 88 23
Width: 1094
VWidth: 0
Flags: W
LayerCount: 2
Fore
SplineSet
24 817 m 1,0,-1
 261 856 l 1,1,-1
 379 815 l 1,2,-1
 449.703125 744.28125 l 1,3,-1
 453.078125 733.375 l 1,4,-1
 609 834 l 1,5,-1
 930 793 l 1,6,-1
 1000.71875 722.28125 l 1,7,-1
 1127.71875 572.28125 l 1,8,-1
 1118.703125 310.28125 l 1,9,-1
 986.421875 292.3125 l 1,10,-1
 1039 238 l 1,11,-1
 1109.703125 167.28125 l 1,12,-1
 1116.703125 -47.71875 l 1,13,-1
 1021.703125 -82.703125 l 1,14,-1
 716.703125 -95.71875 l 1,15,-1
 662.625 -41.625 l 1,16,-1
 634.71875 -90.703125 l 1,17,-1
 170.71875 -56.71875 l 1,18,-1
 100 14 l 1,19,-1
 -5 162 l 1,20,-1
 19 307 l 1,21,-1
 157.46875 337.53125 l 1,22,-1
 114 381 l 1,23,-1
 5 500 l 1,24,-1
 -20 737 l 1,25,-1
 24 817 l 1,0,-1
539 227.984375 m 1,26,-1
 564.671875 202.3125 l 1,27,-1
 550.125 242.984375 l 1,28,-1
 539 227.984375 l 1,26,-1
30.421875 807.921875 m 1,29,-1
 -9.71875 734.9375 l 1,30,-1
 14.609375 504.328125 l 1,31,-1
 117.546875 391.9375 l 1,32,-1
 359.984375 441.796875 l 1,33,-1
 363.5625 442.53125 l 1,34,-1
 366.78125 440.78125 l 1,35,-1
 399.78125 422.78125 l 1,36,-1
 405.984375 419.390625 l 1,37,-1
 404.875 412.421875 l 1,38,-1
 400.875 387.421875 l 1,39,-1
 399.796875 380.703125 l 1,40,-1
 393.15625 379.25 l 1,41,-1
 27.765625 298.6875 l 1,42,-1
 5.53125 164.4375 l 1,43,-1
 105.4375 23.625 l 1,44,-1
 558.4375 -9.5625 l 1,45,-1
 582.140625 32.15625 l 1,46,-1
 518.921875 232.34375 l 1,47,-1
 443.484375 260.640625 l 1,48,-1
 431.0625 265.296875 l 1,49,-1
 438.96875 275.96875 l 1,50,-1
 484.96875 337.953125 l 1,51,-1
 488.25 342.390625 l 1,52,-1
 493.765625 341.96875 l 1,53,-1
 519.765625 339.96875 l 1,54,-1
 526.21875 339.46875 l 1,55,-1
 528.40625 333.359375 l 1,56,-1
 652.9375 -14.703125 l 1,57,-1
 949 -2.078125 l 1,58,-1
 1035.765625 29.875 l 1,59,-1
 1029.125 233.8125 l 1,60,-1
 944.21875 321.53125 l 1,61,-1
 666.09375 291.0625 l 1,62,-1
 657.5 290.109375 l 1,63,-1
 655.328125 298.484375 l 1,64,-1
 648.3125 325.484375 l 1,65,-1
 645.484375 336.390625 l 1,66,-1
 656.65625 337.90625 l 1,67,-1
 1038.296875 389.765625 l 1,68,-1
 1046.875 639.46875 l 1,69,-1
 924.875 783.578125 l 1,70,-1
 611.359375 823.625 l 1,71,-1
 449.109375 718.921875 l 1,72,-1
 527.984375 500.59375 l 1,73,-1
 568.265625 441.640625 l 1,74,-1
 579.296875 425.484375 l 1,75,-1
 559.75 426 l 1,76,-1
 521.734375 427 l 1,77,-1
 515.265625 427.171875 l 1,78,-1
 512.78125 433.125 l 1,79,-1
 412.78125 672.140625 l 1,80,-1
 412.59375 672.59375 l 1,81,-1
 412.453125 673.046875 l 1,82,-1
 370.9375 807.203125 l 1,83,-1
 260.125 845.734375 l 1,84,-1
 30.421875 807.921875 l 1,29,-1
EndSplineSet
Validated: 524289
EndChar

StartChar: Y
Encoding: 89 89 24
Width: 1094
VWidth: 0
Flags: W
LayerCount: 2
Fore
SplineSet
662.640625 339.34375 m 1,0,-1
 657 344.984375 l 1,1,-1
 658 338 l 1,2,-1
 662.640625 339.34375 l 1,0,-1
1003.046875 398.953125 m 1,3,-1
 1062.703125 339.296875 l 1,4,-1
 929.71875 9.28125 l 1,5,-1
 609.71875 -60.71875 l 1,6,-1
 293.71875 -43.703125 l 1,7,-1
 215.71875 15.296875 l 1,8,-1
 145 86 l 1,9,-1
 100 236 l 1,10,-1
 35 408 l 1,11,-1
 51.875 402.140625 l 1,12,-1
 38 416 l 1,13,-1
 -27 537 l 1,14,-1
 -27 793 l 1,15,-1
 -5 829 l 1,16,-1
 364 811 l 1,17,-1
 434.703125 740.28125 l 1,18,-1
 511.421875 443.5 l 1,19,-1
 550 809 l 1,20,-1
 895 844 l 1,21,-1
 1036 766 l 1,22,-1
 1106.71875 695.28125 l 1,23,-1
 1003.046875 398.953125 l 1,3,-1
393 287 m 1,24,-1
 393 272.9375 l 1,25,-1
 379.71875 277.5625 l 1,26,-1
 51.921875 391.53125 l 1,27,-1
 109.484375 239.21875 l 1,28,-1
 109.578125 238.875 l 1,29,-1
 153.640625 92 l 1,30,-1
 226.59375 36.828125 l 1,31,-1
 538.1875 20.0625 l 1,32,-1
 851.703125 88.625 l 1,33,-1
 979.234375 405.078125 l 1,34,-1
 958.109375 415.3125 l 1,35,-1
 660.8125 328.40625 l 1,36,-1
 649.75 325.15625 l 1,37,-1
 648.109375 336.578125 l 1,38,-1
 647.109375 343.5625 l 1,39,-1
 645.875 352.078125 l 1,40,-1
 654.125 354.5625 l 1,41,-1
 908.25 431.09375 l 1,42,-1
 1023.78125 761.328125 l 1,43,-1
 892.890625 833.734375 l 1,44,-1
 559.09375 799.875 l 1,45,-1
 519.9375 428.953125 l 1,46,-1
 519.046875 420.390625 l 1,47,-1
 510.421875 420.015625 l 1,48,-1
 463.421875 418 l 1,49,-1
 455.34375 417.65625 l 1,50,-1
 453.3125 425.5 l 1,51,-1
 356.15625 801.375 l 1,52,-1
 0.4375 818.734375 l 1,53,-1
 -17 790.1875 l 1,54,-1
 -17 539.515625 l 1,55,-1
 44.984375 424.15625 l 1,56,-1
 386.3125 304.4375 l 1,57,-1
 393 302.09375 l 1,58,-1
 393 295 l 1,59,-1
 393 287 l 1,24,-1
EndSplineSet
Validated: 524289
EndChar

StartChar: Z
Encoding: 90 90 25
Width: 1094
VWidth: 0
Flags: W
LayerCount: 2
Fore
SplineSet
-3 798 m 1,0,-1
 362 813 l 1,1,-1
 807.984375 799 l 1,2,-1
 1013 664 l 1,3,-1
 1083.703125 593.28125 l 1,4,-1
 1081.71875 455.28125 l 1,5,-1
 999.421875 420.578125 l 1,6,-1
 1011.71875 408.28125 l 1,7,-1
 1113.71875 254.296875 l 1,8,-1
 1138.703125 82.296875 l 1,9,-1
 956.71875 -70.71875 l 1,10,-1
 541.703125 -82.703125 l 1,11,-1
 221.71875 -62.703125 l 1,12,-1
 151 8.015625 l 1,13,-1
 0 172 l 1,14,-1
 0 305 l 1,15,-1
 130.96875 342.421875 l 1,16,-1
 48.71875 405.296875 l 1,17,-1
 -22 476 l 1,18,-1
 -37 734.015625 l 1,19,-1
 -3 798 l 1,0,-1
538.96875 458.984375 m 1,20,-1
 513.71875 470.296875 l 1,21,-1
 515.46875 452.28125 l 1,22,-1
 538.96875 458.984375 l 1,20,-1
3.140625 788.25 m 1,23,-1
 -26.859375 731.796875 l 1,24,-1
 -12.28125 481.15625 l 1,25,-1
 120.015625 380.046875 l 1,26,-1
 439.25 476.203125 l 1,27,-1
 433.046875 540.03125 l 1,28,-1
 431.390625 557.15625 l 1,29,-1
 447.09375 550.125 l 1,30,-1
 552.09375 503.125 l 1,31,-1
 555.734375 501.5 l 1,32,-1
 557.25 497.828125 l 1,33,-1
 569.234375 468.8125 l 1,34,-1
 573.515625 458.46875 l 1,35,-1
 562.75 455.390625 l 1,36,-1
 10 297.46875 l 1,37,-1
 10 175.90625 l 1,38,-1
 155.640625 17.734375 l 1,39,-1
 471.171875 -1.984375 l 1,40,-1
 882.234375 9.890625 l 1,41,-1
 1057.296875 157.078125 l 1,42,-1
 1033.4375 321.34375 l 1,43,-1
 937.171875 466.6875 l 1,44,-1
 850.9375 432.09375 l 1,45,-1
 765.765625 397.9375 l 1,46,-1
 736.5 350.71875 l 1,47,-1
 734.71875 347.859375 l 1,48,-1
 731.5625 346.65625 l 1,49,-1
 485.578125 252.65625 l 1,50,-1
 482.078125 251.328125 l 1,51,-1
 478.578125 252.609375 l 1,52,-1
 426.5625 271.609375 l 1,53,-1
 402.671875 280.328125 l 1,54,-1
 426.109375 290.21875 l 1,55,-1
 838.359375 464.046875 l 1,56,-1
 1001.109375 532.671875 l 1,57,-1
 1002.921875 658.65625 l 1,58,-1
 804.84375 789.09375 l 1,59,-1
 362.046875 802.984375 l 1,60,-1
 3.140625 788.25 l 1,23,-1
EndSplineSet
Validated: 524289
EndChar

StartChar: q
Encoding: 113 113 26
Width: 1094
VWidth: 0
Flags: W
LayerCount: 2
Fore
SplineSet
360 877 m 1,0,-1
 841 793 l 1,1,-1
 878.953125 755.03125 l 1,2,-1
 889 772 l 1,3,-1
 959.703125 701.28125 l 1,4,-1
 1125.71875 485.296875 l 1,5,-1
 1033.71875 59.296875 l 1,6,-1
 949.71875 12.28125 l 1,7,-1
 973.703125 -156.71875 l 1,8,-1
 851.71875 -131.703125 l 1,9,-1
 781.015625 -61 l 1,10,-1
 767.6875 -42.3125 l 1,11,-1
 669.703125 -68.71875 l 1,12,-1
 132.71875 -27.703125 l 1,13,-1
 62 43 l 1,14,-1
 -40 266 l 1,15,-1
 -23 758 l 1,16,-1
 360 877 l 1,0,-1
880.625 249.375 m 1,17,-1
 820.109375 498.4375 l 1,18,-1
 776.71875 426.296875 l 1,19,-1
 741.125 339.59375 l 1,20,-1
 816 314 l 1,21,-1
 880.625 249.375 l 1,17,-1
360.65625 866.734375 m 1,22,-1
 -13.25 750.546875 l 1,23,-1
 -29.921875 268.015625 l 1,24,-1
 68.640625 52.53125 l 1,25,-1
 598.046875 12.09375 l 1,26,-1
 711.40625 42.640625 l 1,27,-1
 718.109375 44.453125 l 1,28,-1
 722.140625 38.796875 l 1,29,-1
 786.875 -52 l 1,30,-1
 891.09375 -73.359375 l 1,31,-1
 869.09375 81.59375 l 1,32,-1
 868.140625 88.375 l 1,33,-1
 874.109375 91.71875 l 1,34,-1
 954.1875 136.53125 l 1,35,-1
 1044.25 553.59375 l 1,36,-1
 890.078125 754.1875 l 1,37,-1
 841.953125 672.96875 l 1,38,-1
 803.6875 608.40625 l 1,39,-1
 906.71875 184.359375 l 1,40,-1
 907.96875 179.21875 l 1,41,-1
 904.40625 175.28125 l 1,42,-1
 875.40625 143.28125 l 1,43,-1
 863.71875 130.390625 l 1,44,-1
 858.46875 146.96875 l 1,45,-1
 808 306.171875 l 1,46,-1
 703.828125 341.78125 l 1,47,-1
 666.53125 271.5 l 1,48,-1
 697.78125 120.015625 l 1,49,-1
 699.390625 112.28125 l 1,50,-1
 692.21875 108.9375 l 1,51,-1
 677.234375 101.9375 l 1,52,-1
 666.84375 97.09375 l 1,53,-1
 663.453125 108.046875 l 1,54,-1
 609.4375 282.03125 l 1,55,-1
 608.375 285.46875 l 1,56,-1
 609.75 288.796875 l 1,57,-1
 696.75 500.8125 l 1,58,-1
 697.4375 502.15625 l 1,59,-1
 814.15625 696.1875 l 1,60,-1
 851.265625 757.875 l 1,61,-1
 834.890625 783.90625 l 1,62,-1
 360.65625 866.734375 l 1,22,-1
EndSplineSet
Validated: 524289
EndChar

StartChar: bracketleft
Encoding: 91 91 27
Width: 1094
VWidth: 0
Flags: W
LayerCount: 2
Fore
SplineSet
134 805 m 1,0,-1
 898 805 l 1,1,-1
 968.71875 734.28125 l 1,2,-1
 954.71875 359.28125 l 1,3,-1
 687.703125 357.28125 l 1,4,-1
 681.625 119.34375 l 1,5,-1
 876 131 l 1,6,-1
 946.71875 60.296875 l 1,7,-1
 943.71875 -211.703125 l 1,8,-1
 151.703125 -185.71875 l 1,9,-1
 81 -115 l 1,10,-1
 85 -34 l 1,11,-1
 116 -36 l 1,12,-1
 136.953125 648.046875 l 1,13,-1
 97 688 l 1,14,-1
 105 809 l 1,15,-1
 134 805 l 1,0,-1
134 795 m 1,16,-1
 132.625 795.09375 l 1,17,-1
 114.28125 797.625 l 1,18,-1
 107.578125 696.5625 l 1,19,-1
 139.4375 691.90625 l 1,20,-1
 148.265625 690.609375 l 1,21,-1
 147.984375 681.703125 l 1,22,-1
 126 -36.3125 l 1,23,-1
 125.671875 -46.65625 l 1,24,-1
 115.34375 -45.984375 l 1,25,-1
 94.484375 -44.625 l 1,26,-1
 91.484375 -105.34375 l 1,27,-1
 863.109375 -130.65625 l 1,28,-1
 865.890625 120.375 l 1,29,-1
 609.59375 105.015625 l 1,30,-1
 598.71875 104.359375 l 1,31,-1
 599 115.25 l 1,32,-1
 607 428.25 l 1,33,-1
 607.25 437.921875 l 1,34,-1
 616.921875 438 l 1,35,-1
 874.375 439.921875 l 1,36,-1
 887.625 795 l 1,37,-1
 134 795 l 1,16,-1
EndSplineSet
Validated: 524289
EndChar

StartChar: bracketright
Encoding: 93 93 28
Width: 1064
VWidth: 0
Flags: W
LayerCount: 2
Fore
SplineSet
909 774 m 1,0,-1
 979.703125 703.296875 l 1,1,-1
 969.703125 -209.703125 l 1,2,-1
 244.703125 -207.71875 l 1,3,-1
 174 -137 l 1,4,-1
 170 106 l 1,5,-1
 489 96 l 1,6,-1
 502.140625 335.71875 l 1,7,-1
 231.703125 337.296875 l 1,8,-1
 161 408 l 1,9,-1
 153 780 l 1,10,-1
 909 774 l 1,0,-1
898.890625 764.09375 m 1,11,-1
 163.21875 769.921875 l 1,12,-1
 170.78125 417.9375 l 1,13,-1
 506.0625 415.984375 l 1,14,-1
 516.5625 415.921875 l 1,15,-1
 515.984375 405.4375 l 1,16,-1
 498.984375 95.453125 l 1,17,-1
 498.453125 85.703125 l 1,18,-1
 488.6875 86 l 1,19,-1
 180.15625 95.671875 l 1,20,-1
 183.828125 -127.03125 l 1,21,-1
 889.109375 -128.96875 l 1,22,-1
 898.890625 764.09375 l 1,11,-1
EndSplineSet
Validated: 524289
EndChar

StartChar: backslash
Encoding: 92 92 29
Width: 889
VWidth: 0
Flags: W
LayerCount: 2
Fore
SplineSet
44 778 m 1,0,-1
 398 784 l 1,1,-1
 468.71875 713.28125 l 1,2,-1
 847.71875 99.28125 l 1,3,-1
 855.703125 -144.71875 l 1,4,-1
 499.703125 -140.71875 l 1,5,-1
 429 -70 l 1,6,-1
 40 598 l 1,7,-1
 44 778 l 1,0,-1
53.796875 768.171875 m 1,8,-1
 50.0625 600.59375 l 1,9,-1
 434.78125 -60.0625 l 1,10,-1
 774.65625 -63.890625 l 1,11,-1
 767.09375 167 l 1,12,-1
 392.484375 773.90625 l 1,13,-1
 53.796875 768.171875 l 1,8,-1
EndSplineSet
Validated: 524289
EndChar

StartChar: a
Encoding: 97 97 30
Width: 1094
VWidth: 0
Flags: W
LayerCount: 2
Fore
SplineSet
18 450.984375 m 1,0,-1
 -6.015625 526 l 1,1,-1
 102 758 l 1,2,-1
 516 895.015625 l 1,3,-1
 986 797 l 1,4,-1
 1056.703125 726.28125 l 1,5,-1
 1092.71875 588.28125 l 1,6,-1
 1086.71875 269.296875 l 1,7,-1
 1016 340 l 1,8,-1
 841.59375 568.125 l 1,9,-1
 815.734375 575.28125 l 1,10,-1
 855.71875 535.296875 l 1,11,-1
 1112.703125 205.296875 l 1,12,-1
 1112.703125 -21.703125 l 1,13,-1
 709.703125 -80.703125 l 1,14,-1
 685.59375 -56.59375 l 1,15,-1
 688.71875 -97.703125 l 1,16,-1
 676.71875 -140.703125 l 1,17,-1
 86.71875 -68.71875 l 1,18,-1
 16.015625 2 l 1,19,-1
 -37 77.984375 l 1,20,-1
 -25 100 l 1,21,-1
 -7.828125 122.828125 l 1,22,-1
 -16 130.984375 l 1,23,-1
 18 450.984375 l 1,0,-1
719.25 337.296875 m 1,24,-1
 655.703125 337.296875 l 1,25,-1
 668.71875 165.765625 l 1,26,-1
 685 262 l 1,27,-1
 716 289 l 1,28,-1
 719.25 337.296875 l 1,24,-1
511.359375 493.890625 m 1,29,-1
 752.625 592.734375 l 1,30,-1
 580.71875 640.28125 l 1,31,-1
 511.359375 493.890625 l 1,29,-1
27.515625 454.03125 m 1,32,-1
 28.171875 452.03125 l 1,33,-1
 27.9375 449.9375 l 1,34,-1
 -2.078125 167.34375 l 1,35,-1
 20.40625 198.46875 l 1,36,-1
 39.046875 224.296875 l 1,37,-1
 41 375.140625 l 1,38,-1
 41.0625 380.28125 l 1,39,-1
 45.296875 383.21875 l 1,40,-1
 68.296875 399.21875 l 1,41,-1
 84.9375 410.796875 l 1,42,-1
 84 390.53125 l 1,43,-1
 76 220.53125 l 1,44,-1
 75.84375 217.4375 l 1,45,-1
 74 214.984375 l 1,46,-1
 60.140625 196.546875 l 1,47,-1
 -16.578125 94.578125 l 1,48,-1
 -25.265625 78.640625 l 1,49,-1
 21.65625 11.390625 l 1,50,-1
 598.6875 -59.03125 l 1,51,-1
 607.890625 -26 l 1,52,-1
 575.03125 407.25 l 1,53,-1
 574.21875 418 l 1,54,-1
 585 418 l 1,55,-1
 723.984375 418 l 1,56,-1
 734.6875 418 l 1,57,-1
 733.96875 407.328125 l 1,58,-1
 725.984375 288.328125 l 1,59,-1
 725.703125 284.1875 l 1,60,-1
 722.5625 281.453125 l 1,61,-1
 694.265625 256.796875 l 1,62,-1
 651.140625 1.890625 l 1,63,-1
 1032 57.640625 l 1,64,-1
 1032 272.5625 l 1,65,-1
 960.953125 363.8125 l 1,66,-1
 781.78125 593.875 l 1,67,-1
 478.796875 469.75 l 1,68,-1
 469.9375 466.125 l 1,69,-1
 465.921875 474.796875 l 1,70,-1
 428.921875 554.796875 l 1,71,-1
 426.953125 559.046875 l 1,72,-1
 428.953125 563.28125 l 1,73,-1
 500.96875 715.28125 l 1,74,-1
 504.5625 722.875 l 1,75,-1
 512.671875 720.640625 l 1,76,-1
 794.671875 642.625 l 1,77,-1
 797.90625 641.734375 l 1,78,-1
 799.953125 639.0625 l 1,79,-1
 993.515625 385.890625 l 1,80,-1
 1006.546875 368.84375 l 1,81,-1
 1011.984375 657.796875 l 1,82,-1
 977.875 788.46875 l 1,83,-1
 516.59375 884.671875 l 1,84,-1
 109.25 749.859375 l 1,85,-1
 4.703125 525.328125 l 1,86,-1
 27.515625 454.03125 l 1,32,-1
EndSplineSet
Validated: 524289
EndChar

StartChar: b
Encoding: 98 98 31
Width: 1094
VWidth: 0
Flags: W
LayerCount: 2
Fore
SplineSet
102 797 m 1,0,-1
 501 840 l 1,1,-1
 523.796875 817.203125 l 1,2,-1
 542 840 l 1,3,-1
 946 772 l 1,4,-1
 1016.703125 701.296875 l 1,5,-1
 1072.703125 580.296875 l 1,6,-1
 1003.953125 390.796875 l 1,7,-1
 1049 387 l 1,8,-1
 1119.71875 316.28125 l 1,9,-1
 1112.703125 81.28125 l 1,10,-1
 798.71875 -70.71875 l 1,11,-1
 714.703125 -43.703125 l 1,12,-1
 194.71875 -70.71875 l 1,13,-1
 167.296875 -43.296875 l 1,14,-1
 161.703125 -70.71875 l 1,15,-1
 109.71875 -70.71875 l 1,16,-1
 39 0 l 1,17,-1
 -8 281.015625 l 1,18,-1
 20 289 l 1,19,-1
 49.234375 411.765625 l 1,20,-1
 6 454.984375 l 1,21,-1
 -0 648.984375 l 1,22,-1
 102 797 l 1,0,-1
775 479.203125 m 1,23,-1
 616.71875 519.296875 l 1,24,-1
 546 590 l 1,25,-1
 481.53125 675.3125 l 1,26,-1
 429.71875 621.296875 l 1,27,-1
 532.546875 505.921875 l 1,28,-1
 775 453 l 1,29,-1
 775 479.203125 l 1,23,-1
107.625 787.546875 m 1,30,-1
 10.09375 646.015625 l 1,31,-1
 15.796875 461.921875 l 1,32,-1
 58.609375 445.328125 l 1,33,-1
 66.75 442.171875 l 1,34,-1
 64.734375 433.6875 l 1,35,-1
 29.71875 286.6875 l 1,36,-1
 28.375 281 l 1,37,-1
 22.75 279.390625 l 1,38,-1
 3.34375 273.84375 l 1,39,-1
 47.46875 10 l 1,40,-1
 82.828125 10 l 1,41,-1
 112.203125 154 l 1,42,-1
 114.484375 165.1875 l 1,43,-1
 125.265625 161.453125 l 1,44,-1
 151.265625 152.453125 l 1,45,-1
 159.25 149.6875 l 1,46,-1
 157.859375 141.34375 l 1,47,-1
 135.9375 10.625 l 1,48,-1
 643.484375 36.984375 l 1,49,-1
 645.3125 37.078125 l 1,50,-1
 647.0625 36.53125 l 1,51,-1
 727.25 10.75 l 1,52,-1
 1032.1875 158.359375 l 1,53,-1
 1038.71875 377.828125 l 1,54,-1
 862.359375 392.6875 l 1,55,-1
 849.65625 381.671875 l 1,56,-1
 544.546875 117.4375 l 1,57,-1
 541.8125 115.078125 l 1,58,-1
 538.1875 115 l 1,59,-1
 433.1875 113 l 1,60,-1
 408.390625 112.53125 l 1,61,-1
 425.9375 130.078125 l 1,62,-1
 640.921875 345.0625 l 1,63,-1
 643.65625 347.796875 l 1,64,-1
 647.515625 347.984375 l 1,65,-1
 768.875 353.8125 l 1,66,-1
 831.953125 412.265625 l 1,67,-1
 848.203125 427.328125 l 1,68,-1
 851.5 430.390625 l 1,69,-1
 855.984375 429.953125 l 1,70,-1
 909.25 424.71875 l 1,71,-1
 991.1875 650.546875 l 1,72,-1
 939.140625 763.015625 l 1,73,-1
 546.140625 829.15625 l 1,74,-1
 459.65625 720.84375 l 1,75,-1
 551.875 598.828125 l 1,76,-1
 777.453125 541.6875 l 1,77,-1
 785 539.78125 l 1,78,-1
 785 532 l 1,79,-1
 785 453 l 1,80,-1
 785 440.578125 l 1,81,-1
 772.875 443.234375 l 1,82,-1
 520.875 498.234375 l 1,83,-1
 517.703125 498.921875 l 1,84,-1
 515.546875 501.34375 l 1,85,-1
 351.53125 685.34375 l 1,86,-1
 345.375 692.25 l 1,87,-1
 351.78125 698.921875 l 1,88,-1
 474.78125 827.109375 l 1,89,-1
 107.625 787.546875 l 1,30,-1
EndSplineSet
Validated: 524289
EndChar

StartChar: c
Encoding: 99 99 32
Width: 1096
VWidth: 0
Flags: W
LayerCount: 2
Fore
SplineSet
-11 847 m 1,0,-1
 80 849 l 1,1,-1
 116 813 l 1,2,-1
 131 815 l 1,3,-1
 166 778 l 1,4,-1
 183 776 l 1,5,-1
 209 844 l 1,6,-1
 798 813 l 1,7,-1
 1061 623 l 1,8,-1
 1131.71875 552.28125 l 1,9,-1
 1097.703125 406.28125 l 1,10,-1
 989.25 231.953125 l 1,11,-1
 1037 213 l 1,12,-1
 1107.71875 142.296875 l 1,13,-1
 915.703125 -62.71875 l 1,14,-1
 543.71875 -62.71875 l 1,15,-1
 455.703125 -105.71875 l 1,16,-1
 255.703125 -62.71875 l 1,17,-1
 84.703125 25.296875 l 1,18,-1
 14 96 l 1,19,-1
 -36 223 l 1,20,-1
 -11 847 l 1,0,-1
300.703125 266.3125 m 1,21,-1
 262 305 l 1,22,-1
 295 266 l 1,23,-1
 300.703125 266.3125 l 1,21,-1
330.84375 267.9375 m 1,24,-1
 332 268 l 1,25,-1
 362 299 l 1,26,-1
 515.453125 302.53125 l 1,27,-1
 511.6875 306.296875 l 1,28,-1
 328.71875 306.28125 l 1,29,-1
 330.84375 267.9375 l 1,24,-1
-1.390625 837.21875 m 1,30,-1
 -25.921875 224.703125 l 1,31,-1
 21.921875 103.171875 l 1,32,-1
 188.390625 17.5 l 1,33,-1
 383.71875 -24.5 l 1,34,-1
 468.625 16.984375 l 1,35,-1
 470.703125 18 l 1,36,-1
 473.015625 18 l 1,37,-1
 840.65625 18 l 1,38,-1
 1019.671875 209.125 l 1,39,-1
 793.203125 298.953125 l 1,40,-1
 501.21875 292.203125 l 1,41,-1
 366.328125 289.09375 l 1,42,-1
 339.1875 261.046875 l 1,43,-1
 336.453125 258.234375 l 1,44,-1
 332.53125 258.015625 l 1,45,-1
 295.53125 256.015625 l 1,46,-1
 290.578125 255.75 l 1,47,-1
 287.359375 259.546875 l 1,48,-1
 254.375 298.546875 l 1,49,-1
 252.203125 301.109375 l 1,50,-1
 252.015625 304.453125 l 1,51,-1
 248.015625 376.4375 l 1,52,-1
 247.4375 387 l 1,53,-1
 258 387 l 1,54,-1
 453 387.015625 l 1,55,-1
 457.875 387.015625 l 1,56,-1
 460.875 383.171875 l 1,57,-1
 500.75 332.140625 l 1,58,-1
 839.703125 342 l 1,59,-1
 842.078125 342.078125 l 1,60,-1
 844.234375 341.0625 l 1,61,-1
 911.203125 309.8125 l 1,62,-1
 1017.625 480.875 l 1,63,-1
 1049.75 618.78125 l 1,64,-1
 794.53125 803.171875 l 1,65,-1
 215.734375 833.625 l 1,66,-1
 192.34375 772.421875 l 1,67,-1
 189.5625 765.15625 l 1,68,-1
 181.828125 766.0625 l 1,69,-1
 164.828125 768.078125 l 1,70,-1
 161.234375 768.5 l 1,71,-1
 158.734375 771.125 l 1,72,-1
 127.25 804.40625 l 1,73,-1
 123.109375 803.859375 l 1,74,-1
 111.28125 774.28125 l 1,75,-1
 108.765625 768 l 1,76,-1
 102 768 l 1,77,-1
 91 768 l 1,78,-1
 82.421875 768 l 1,79,-1
 81.109375 776.46875 l 1,80,-1
 71.46875 838.8125 l 1,81,-1
 -1.390625 837.21875 l 1,30,-1
EndSplineSet
Validated: 524289
EndChar

StartChar: d
Encoding: 100 100 33
Width: 1096
VWidth: 0
Flags: W
LayerCount: 2
Fore
SplineSet
45 806 m 1,0,-1
 134 805 l 1,1,-1
 191.640625 747.359375 l 1,2,-1
 214 807 l 1,3,-1
 497.984375 846 l 1,4,-1
 779 813 l 1,5,-1
 1036 621 l 1,6,-1
 1106.71875 550.28125 l 1,7,-1
 1108.703125 130.296875 l 1,8,-1
 896.71875 -62.703125 l 1,9,-1
 750.71875 -88.703125 l 1,10,-1
 183.703125 -56.71875 l 1,11,-1
 113 14 l 1,12,-1
 41.703125 143.765625 l 1,13,-1
 32.71875 150.296875 l 1,14,-1
 -38 221 l 1,15,-1
 61 598 l 1,16,-1
 113.59375 578.390625 l 1,17,-1
 67 625 l 1,18,-1
 45 806 l 1,0,-1
769.328125 489.265625 m 1,19,-1
 701.703125 347.28125 l 1,20,-1
 646.40625 367.578125 l 1,21,-1
 697.703125 316.28125 l 1,22,-1
 699.3125 152.890625 l 1,23,-1
 733 160 l 1,24,-1
 778 358 l 1,25,-1
 769.328125 489.265625 l 1,19,-1
666.953125 146.046875 m 1,26,-1
 629 184 l 1,27,-1
 662 145 l 1,28,-1
 666.953125 146.046875 l 1,26,-1
56.3125 795.875 m 1,29,-1
 76.1875 632.28125 l 1,30,-1
 625.890625 430.53125 l 1,31,-1
 701.984375 590.296875 l 1,32,-1
 703.953125 594.4375 l 1,33,-1
 708.359375 595.640625 l 1,34,-1
 759.34375 609.640625 l 1,35,-1
 771.171875 612.890625 l 1,36,-1
 771.96875 600.65625 l 1,37,-1
 787.984375 358.671875 l 1,38,-1
 788.078125 357.21875 l 1,39,-1
 787.75 355.796875 l 1,40,-1
 742.75 157.78125 l 1,41,-1
 741.34375 151.546875 l 1,42,-1
 735.078125 150.21875 l 1,43,-1
 664.078125 135.21875 l 1,44,-1
 658.234375 133.984375 l 1,45,-1
 654.375 138.546875 l 1,46,-1
 621.359375 177.546875 l 1,47,-1
 619.03125 180.296875 l 1,48,-1
 619 183.90625 l 1,49,-1
 617.0625 380.03125 l 1,50,-1
 67.859375 584.765625 l 1,51,-1
 -26.59375 225.078125 l 1,52,-1
 29.875 184.09375 l 1,53,-1
 31.6875 182.78125 l 1,54,-1
 32.765625 180.8125 l 1,55,-1
 119.09375 23.671875 l 1,56,-1
 679.40625 -7.953125 l 1,57,-1
 821.40625 17.34375 l 1,58,-1
 1027.984375 205.40625 l 1,59,-1
 1026.03125 615.96875 l 1,60,-1
 775.171875 803.390625 l 1,61,-1
 498.09375 835.921875 l 1,62,-1
 221.265625 797.90625 l 1,63,-1
 190.359375 715.484375 l 1,64,-1
 187.921875 708.984375 l 1,65,-1
 181 709 l 1,66,-1
 159 709 l 1,67,-1
 151.5 709.015625 l 1,68,-1
 149.390625 716.21875 l 1,69,-1
 126.46875 795.078125 l 1,70,-1
 56.3125 795.875 l 1,29,-1
EndSplineSet
Validated: 524289
EndChar

StartChar: e
Encoding: 101 101 34
Width: 1096
VWidth: 0
Flags: W
LayerCount: 2
Fore
SplineSet
-8.015625 814 m 1,0,-1
 81 813 l 1,1,-1
 138.640625 755.375 l 1,2,-1
 161 815 l 1,3,-1
 801 848 l 1,4,-1
 1059 741 l 1,5,-1
 1129.71875 670.296875 l 1,6,-1
 1102.71875 478.296875 l 1,7,-1
 961.703125 371.296875 l 1,8,-1
 858.703125 433.296875 l 1,9,-1
 837.296875 434.375 l 1,10,-1
 862 418 l 1,11,-1
 932.703125 347.28125 l 1,12,-1
 894.15625 325.140625 l 1,13,-1
 1030 283.015625 l 1,14,-1
 1100.71875 212.296875 l 1,15,-1
 1106.71875 111.28125 l 1,16,-1
 949.71875 -95.703125 l 1,17,-1
 508.703125 -95.71875 l 1,18,-1
 221.71875 -58.703125 l 1,19,-1
 151 12.015625 l 1,20,-1
 -33 227 l 1,21,-1
 -8.015625 814 l 1,0,-1
637.84375 485.59375 m 1,22,-1
 696.5 483.5 l 1,23,-1
 670 510 l 1,24,-1
 667.5625 515.15625 l 1,25,-1
 623.71875 517.296875 l 1,26,-1
 637.84375 485.59375 l 1,22,-1
1.5625 803.890625 m 1,27,-1
 -22.84375 230.5 l 1,28,-1
 156.09375 21.4375 l 1,29,-1
 438.640625 -15 l 1,30,-1
 874.03125 -15 l 1,31,-1
 1025.796875 185.09375 l 1,32,-1
 1020.421875 275.5 l 1,33,-1
 815.421875 339.09375 l 1,34,-1
 672.3125 249.53125 l 1,35,-1
 669.375 247.6875 l 1,36,-1
 665.9375 248.0625 l 1,37,-1
 553.9375 260.046875 l 1,38,-1
 553.109375 260.171875 l 1,39,-1
 350.109375 299.171875 l 1,40,-1
 345.75 300.015625 l 1,41,-1
 343.4375 303.8125 l 1,42,-1
 323.4375 336.828125 l 1,43,-1
 311.9375 355.828125 l 1,44,-1
 333.78125 351.84375 l 1,45,-1
 632.1875 297.5 l 1,46,-1
 842.984375 418.609375 l 1,47,-1
 763.828125 471.109375 l 1,48,-1
 597.640625 477.015625 l 1,49,-1
 591.40625 477.234375 l 1,50,-1
 588.875 482.9375 l 1,51,-1
 543.875 583.9375 l 1,52,-1
 537.25 598.78125 l 1,53,-1
 553.484375 597.984375 l 1,54,-1
 635.484375 594 l 1,55,-1
 641.484375 593.703125 l 1,56,-1
 644.046875 588.28125 l 1,57,-1
 676.484375 519.6875 l 1,58,-1
 788.5 513.984375 l 1,59,-1
 791 513.859375 l 1,60,-1
 793.15625 512.5625 l 1,61,-1
 890.34375 454.0625 l 1,62,-1
 1022.671875 554.46875 l 1,63,-1
 1048.015625 734.734375 l 1,64,-1
 799.25 837.890625 l 1,65,-1
 168.0625 805.359375 l 1,66,-1
 137.359375 723.5 l 1,67,-1
 134.921875 717.015625 l 1,68,-1
 128 717 l 1,69,-1
 105.015625 717 l 1,70,-1
 97.421875 716.984375 l 1,71,-1
 95.375 724.3125 l 1,72,-1
 73.375 803.09375 l 1,73,-1
 1.5625 803.890625 l 1,27,-1
EndSplineSet
Validated: 524289
EndChar

StartChar: f
Encoding: 102 102 35
Width: 1096
VWidth: 0
Flags: W
LayerCount: 2
Fore
SplineSet
5 829 m 1,0,-1
 223 821 l 1,1,-1
 246.328125 797.671875 l 1,2,-1
 262 829 l 1,3,-1
 1012 788 l 1,4,-1
 1082.71875 717.296875 l 1,5,-1
 1146.71875 578.296875 l 1,6,-1
 1129.703125 308.28125 l 1,7,-1
 940.703125 308.28125 l 1,8,-1
 870 379 l 1,9,-1
 777.15625 488.9375 l 1,10,-1
 729.34375 491.65625 l 1,11,-1
 769.703125 451.28125 l 1,12,-1
 918.703125 283.28125 l 1,13,-1
 919.71875 135.28125 l 1,14,-1
 769.28125 134.71875 l 1,15,-1
 792.71875 111.28125 l 1,16,-1
 792.71875 -70.71875 l 1,17,-1
 119.71875 -88.703125 l 1,18,-1
 45.703125 -37.703125 l 1,19,-1
 -25 33 l 1,20,-1
 -30.984375 516 l 1,21,-1
 5 829 l 1,0,-1
13.875 818.671875 m 1,22,-1
 -20.984375 515.484375 l 1,23,-1
 -15.0625 38.296875 l 1,24,-1
 51.984375 -7.90625 l 1,25,-1
 712 9.734375 l 1,26,-1
 712 171.84375 l 1,27,-1
 589.140625 170 l 1,28,-1
 579.78125 169.859375 l 1,29,-1
 579.03125 179.203125 l 1,30,-1
 577.03125 204.203125 l 1,31,-1
 576.171875 214.96875 l 1,32,-1
 586.953125 215 l 1,33,-1
 838.9375 215.96875 l 1,34,-1
 838.03125 350.171875 l 1,35,-1
 694.28125 512.234375 l 1,36,-1
 467.765625 524.46875 l 1,37,-1
 465 398.78125 l 1,38,-1
 464.78125 388.640625 l 1,39,-1
 454.625 389.015625 l 1,40,-1
 427.625 390 l 1,41,-1
 418.125 390.359375 l 1,42,-1
 418 399.859375 l 1,43,-1
 416 544.859375 l 1,44,-1
 415.96875 546.546875 l 1,45,-1
 416.515625 548.15625 l 1,46,-1
 426.515625 578.15625 l 1,47,-1
 428.9375 585.421875 l 1,48,-1
 436.578125 584.984375 l 1,49,-1
 718.5625 568.96875 l 1,50,-1
 722.859375 568.734375 l 1,51,-1
 725.640625 565.4375 l 1,52,-1
 874.640625 389 l 1,53,-1
 1049.609375 389 l 1,54,-1
 1065.875 647.109375 l 1,55,-1
 1005.4375 778.34375 l 1,56,-1
 268 818.65625 l 1,57,-1
 252.9375 788.53125 l 1,58,-1
 245.703125 774.046875 l 1,59,-1
 236 787 l 1,60,-1
 217.859375 811.171875 l 1,61,-1
 13.875 818.671875 l 1,22,-1
EndSplineSet
Validated: 524289
EndChar

StartChar: g
Encoding: 103 103 36
Width: 1096
VWidth: 0
Flags: W
LayerCount: 2
Fore
SplineSet
2 810 m 1,0,-1
 330 816 l 1,1,-1
 379.9375 766.0625 l 1,2,-1
 489 830 l 1,3,-1
 989 800 l 1,4,-1
 1059.703125 729.296875 l 1,5,-1
 1120.703125 566.296875 l 1,6,-1
 1086.71875 421.28125 l 1,7,-1
 1039.703125 394.28125 l 1,8,-1
 990.71875 423.28125 l 1,9,-1
 914.265625 410.734375 l 1,10,-1
 981.71875 343.28125 l 1,11,-1
 1096.71875 156.28125 l 1,12,-1
 906.703125 -78.703125 l 1,13,-1
 359.703125 -29.703125 l 1,14,-1
 231.703125 -62.71875 l 1,15,-1
 161 8 l 1,16,-1
 89.203125 130.0625 l 1,17,-1
 47.703125 152.296875 l 1,18,-1
 -23 223 l 1,19,-1
 20 471 l 1,20,-1
 2 810 l 1,0,-1
770.3125 225.6875 m 1,21,-1
 707.78125 288.21875 l 1,22,-1
 696.984375 240.734375 l 1,23,-1
 770.3125 225.6875 l 1,21,-1
12.53125 800.1875 m 1,24,-1
 29.984375 471.53125 l 1,25,-1
 30.046875 470.40625 l 1,26,-1
 29.84375 469.296875 l 1,27,-1
 -11.921875 228.40625 l 1,28,-1
 65.71875 186.8125 l 1,29,-1
 68.1875 185.5 l 1,30,-1
 69.625 183.078125 l 1,31,-1
 165.796875 19.5625 l 1,32,-1
 286.5 50.6875 l 1,33,-1
 288.171875 51.109375 l 1,34,-1
 289.890625 50.96875 l 1,35,-1
 831.578125 2.4375 l 1,36,-1
 1013.78125 227.78125 l 1,37,-1
 906.03125 403 l 1,38,-1
 727.765625 372.359375 l 1,39,-1
 716.21875 298.03125 l 1,40,-1
 841.921875 259.5625 l 1,41,-1
 844.59375 258.734375 l 1,42,-1
 846.453125 256.65625 l 1,43,-1
 888.453125 209.65625 l 1,44,-1
 908.59375 187.125 l 1,45,-1
 878.984375 193.203125 l 1,46,-1
 678.984375 234.21875 l 1,47,-1
 676.296875 234.765625 l 1,48,-1
 674.25 236.625 l 1,49,-1
 616.25 289.609375 l 1,50,-1
 611.953125 293.53125 l 1,51,-1
 613.25 299.21875 l 1,52,-1
 648.25 453.21875 l 1,53,-1
 649.75 459.78125 l 1,54,-1
 656.390625 460.875 l 1,55,-1
 918.375 503.859375 l 1,56,-1
 921.96875 504.453125 l 1,57,-1
 925.09375 502.59375 l 1,58,-1
 969.0625 476.578125 l 1,59,-1
 1007.25 498.5 l 1,60,-1
 1039.5625 636.34375 l 1,61,-1
 981.90625 790.40625 l 1,62,-1
 491.4375 819.84375 l 1,63,-1
 378.0625 753.375 l 1,64,-1
 375.71875 752 l 1,65,-1
 373 752 l 1,66,-1
 350 752 l 1,67,-1
 343.03125 752 l 1,68,-1
 340.625 758.53125 l 1,69,-1
 323.078125 805.875 l 1,70,-1
 12.53125 800.1875 l 1,24,-1
EndSplineSet
Validated: 524289
EndChar

StartChar: h
Encoding: 104 104 37
Width: 1094
VWidth: 0
Flags: W
LayerCount: 2
Fore
SplineSet
-24.015625 736 m 1,0,-1
 83 809 l 1,1,-1
 439 805 l 1,2,-1
 501.171875 742.828125 l 1,3,-1
 561 815 l 1,4,-1
 935 788 l 1,5,-1
 1035 692 l 1,6,-1
 1105.703125 621.296875 l 1,7,-1
 1136.71875 55.28125 l 1,8,-1
 1003.703125 -52.71875 l 1,9,-1
 694.703125 -50.71875 l 1,10,-1
 624 20 l 1,11,-1
 562.65625 132.609375 l 1,12,-1
 511.203125 121.796875 l 1,13,-1
 547.703125 85.28125 l 1,14,-1
 551.71875 31.28125 l 1,15,-1
 511.71875 -84.703125 l 1,16,-1
 118.71875 -56.71875 l 1,17,-1
 48 14 l 1,18,-1
 -7 74 l 1,19,-1
 -24.015625 736 l 1,0,-1
560 592 m 1,20,-1
 521.78125 630.234375 l 1,21,-1
 527.09375 584.328125 l 1,22,-1
 560 592 l 1,20,-1
-13.875 730.8125 m 1,23,-1
 2.890625 78 l 1,24,-1
 52.6875 23.6875 l 1,25,-1
 434.046875 -3.484375 l 1,26,-1
 470.890625 103.3125 l 1,27,-1
 467.84375 144.171875 l 1,28,-1
 384.78125 129.15625 l 1,29,-1
 373.5625 127.140625 l 1,30,-1
 373.015625 138.515625 l 1,31,-1
 371.015625 179.515625 l 1,32,-1
 370.59375 188.03125 l 1,33,-1
 378.9375 189.78125 l 1,34,-1
 554.9375 226.78125 l 1,35,-1
 567 229.3125 l 1,36,-1
 567 217 l 1,37,-1
 567 145.53125 l 1,38,-1
 629.96875 29.953125 l 1,39,-1
 929.46875 28.015625 l 1,40,-1
 1055.75 130.546875 l 1,41,-1
 1025.21875 687.515625 l 1,42,-1
 930.671875 778.296875 l 1,43,-1
 565.421875 804.65625 l 1,44,-1
 508.484375 735.96875 l 1,45,-1
 519.859375 650.34375 l 1,46,-1
 562.78125 646.96875 l 1,47,-1
 572.421875 646.21875 l 1,48,-1
 572 636.5625 l 1,49,-1
 570 591.5625 l 1,50,-1
 569.65625 583.984375 l 1,51,-1
 562.28125 582.265625 l 1,52,-1
 412.28125 547.25 l 1,53,-1
 397.953125 543.90625 l 1,54,-1
 400.109375 558.453125 l 1,55,-1
 404.109375 585.453125 l 1,56,-1
 405.046875 591.84375 l 1,57,-1
 411.25 593.609375 l 1,58,-1
 452.09375 605.28125 l 1,59,-1
 430.078125 795.09375 l 1,60,-1
 86.03125 798.96875 l 1,61,-1
 -13.875 730.8125 l 1,23,-1
EndSplineSet
Validated: 524289
EndChar

StartChar: i
Encoding: 105 105 38
Width: 1094
VWidth: 0
Flags: W
LayerCount: 2
Fore
SplineSet
-18 782 m 1,0,-1
 461 827 l 1,1,-1
 1033 844 l 1,2,-1
 1103.703125 773.28125 l 1,3,-1
 1138.703125 584.296875 l 1,4,-1
 1105.71875 550.28125 l 1,5,-1
 975.140625 556.859375 l 1,6,-1
 1020.703125 511.28125 l 1,7,-1
 1005.640625 175.25 l 1,8,-1
 1055 176 l 1,9,-1
 1125.71875 105.296875 l 1,10,-1
 1092.703125 31.28125 l 1,11,-1
 1018.703125 -47.71875 l 1,12,-1
 602.71875 -86.703125 l 1,13,-1
 50.71875 -82.703125 l 1,14,-1
 -20 -12 l 1,15,-1
 -43 44.984375 l 1,16,-1
 56.046875 43.96875 l 1,17,-1
 14.015625 86 l 1,18,-1
 23 500 l 1,19,-1
 24.03125 499.984375 l 1,20,-1
 -34.984375 559 l 1,21,-1
 -18 782 l 1,0,-1
-8.671875 772.84375 m 1,22,-1
 -24.328125 567.34375 l 1,23,-1
 92.671875 547.6875 l 1,24,-1
 122.046875 576.171875 l 1,25,-1
 124.953125 579 l 1,26,-1
 129 579 l 1,27,-1
 172 579 l 1,28,-1
 181.59375 579 l 1,29,-1
 182 569.421875 l 1,30,-1
 183.984375 522.421875 l 1,31,-1
 184.25 516.140625 l 1,32,-1
 178.703125 513.171875 l 1,33,-1
 133.703125 489.171875 l 1,34,-1
 131.40625 487.953125 l 1,35,-1
 128.8125 488 l 1,36,-1
 32.78125 489.8125 l 1,37,-1
 24.203125 95.09375 l 1,38,-1
 95.84375 88.421875 l 1,39,-1
 113.484375 108.578125 l 1,40,-1
 119.25 115.1875 l 1,41,-1
 126.546875 110.328125 l 1,42,-1
 159.546875 88.328125 l 1,43,-1
 164.59375 84.953125 l 1,44,-1
 163.953125 78.921875 l 1,45,-1
 159.9375 41.921875 l 1,46,-1
 158.953125 32.90625 l 1,47,-1
 149.890625 33 l 1,48,-1
 -28.125 34.84375 l 1,49,-1
 -13.234375 -2.046875 l 1,50,-1
 531.578125 -6 l 1,51,-1
 943.296875 32.59375 l 1,52,-1
 1013.546875 107.609375 l 1,53,-1
 1039.484375 165.765625 l 1,54,-1
 795.15625 162 l 1,55,-1
 787.296875 161.875 l 1,56,-1
 785.3125 169.484375 l 1,57,-1
 778.3125 196.484375 l 1,58,-1
 775.15625 208.640625 l 1,59,-1
 787.71875 208.984375 l 1,60,-1
 923.4375 212.75 l 1,61,-1
 939.5625 572.578125 l 1,62,-1
 879.4375 576.015625 l 1,63,-1
 870.84375 576.515625 l 1,64,-1
 870.046875 585.078125 l 1,65,-1
 866.03125 628.0625 l 1,66,-1
 864.96875 639.5625 l 1,67,-1
 876.5 638.984375 l 1,68,-1
 1030.984375 631.203125 l 1,69,-1
 1057.21875 658.265625 l 1,70,-1
 1024.71875 833.75 l 1,71,-1
 461.625 817.015625 l 1,72,-1
 -8.671875 772.84375 l 1,22,-1
EndSplineSet
Validated: 524289
EndChar

StartChar: j
Encoding: 106 106 39
Width: 1094
VWidth: 0
Flags: W
LayerCount: 2
Fore
SplineSet
56 800 m 1,0,-1
 105 832 l 1,1,-1
 532.015625 808 l 1,2,-1
 902 786 l 1,3,-1
 1035 680 l 1,4,-1
 1105.703125 609.296875 l 1,5,-1
 1113.71875 40.28125 l 1,6,-1
 1023.703125 -72.71875 l 1,7,-1
 398.703125 -39.71875 l 1,8,-1
 340.703125 -60.71875 l 1,9,-1
 138.703125 -35.703125 l 1,10,-1
 68 35 l 1,11,-1
 -22 227 l 1,12,-1
 -22.015625 408 l 1,13,-1
 390 383 l 1,14,-1
 703 174 l 1,15,-1
 753 199 l 1,16,-1
 753.453125 224.03125 l 1,17,-1
 727.71875 210.28125 l 1,18,-1
 525.71875 396.28125 l 1,19,-1
 174.71875 453.28125 l 1,20,-1
 104 524 l 1,21,-1
 56 577 l 1,22,-1
 56 800 l 1,0,-1
66 794.59375 m 1,23,-1
 66 580.859375 l 1,24,-1
 109.0625 533.3125 l 1,25,-1
 456.609375 476.875 l 1,26,-1
 459.5625 476.390625 l 1,27,-1
 461.78125 474.359375 l 1,28,-1
 658.5625 293.15625 l 1,29,-1
 677.0625 303.046875 l 1,30,-1
 680 547.125 l 1,31,-1
 680.15625 560.078125 l 1,32,-1
 692.640625 556.640625 l 1,33,-1
 761.65625 537.640625 l 1,34,-1
 769.140625 535.578125 l 1,35,-1
 769 527.8125 l 1,36,-1
 763 198.828125 l 1,37,-1
 762.890625 192.765625 l 1,38,-1
 757.46875 190.0625 l 1,39,-1
 707.46875 165.046875 l 1,40,-1
 702.28125 162.453125 l 1,41,-1
 697.4375 165.671875 l 1,42,-1
 386.703125 373.1875 l 1,43,-1
 -12 397.375 l 1,44,-1
 -12 229.21875 l 1,45,-1
 74.703125 44.25 l 1,46,-1
 268.84375 20.21875 l 1,47,-1
 324.59375 40.390625 l 1,48,-1
 326.5 41.078125 l 1,49,-1
 328.53125 40.984375 l 1,50,-1
 948.375 8.25 l 1,51,-1
 1032.953125 114.421875 l 1,52,-1
 1025.0625 675.125 l 1,53,-1
 898.25 776.203125 l 1,54,-1
 531.421875 798.015625 l 1,55,-1
 107.71875 821.828125 l 1,56,-1
 66 794.59375 l 1,23,-1
EndSplineSet
Validated: 524289
EndChar

StartChar: k
Encoding: 107 107 40
Width: 1094
VWidth: 0
Flags: W
LayerCount: 2
Fore
SplineSet
39 842.015625 m 1,0,-1
 521 815 l 1,1,-1
 591.703125 744.28125 l 1,2,-1
 592.53125 741.75 l 1,3,-1
 689 817 l 1,4,-1
 965 788 l 1,5,-1
 1035.71875 717.296875 l 1,6,-1
 1104.71875 439.28125 l 1,7,-1
 982.5 331.78125 l 1,8,-1
 1040 315 l 1,9,-1
 1110.703125 244.28125 l 1,10,-1
 1110.703125 74.296875 l 1,11,-1
 988.703125 -68.71875 l 1,12,-1
 647.703125 -58.71875 l 1,13,-1
 577 12 l 1,14,-1
 521 68 l 1,15,-1
 423.453125 187.015625 l 1,16,-1
 406.703125 179.28125 l 1,17,-1
 548.703125 -21.703125 l 1,18,-1
 542.71875 -56.71875 l 1,19,-1
 119.71875 -52.71875 l 1,20,-1
 49 18 l 1,21,-1
 -8 95.984375 l 1,22,-1
 -16.015625 147 l 1,23,-1
 37 207 l 1,24,-1
 49 481 l 1,25,-1
 -12 553 l 1,26,-1
 -22 707 l 1,27,-1
 39 842.015625 l 1,0,-1
45.296875 831.640625 m 1,28,-1
 -11.859375 705.15625 l 1,29,-1
 -2.234375 556.9375 l 1,30,-1
 56.625 487.46875 l 1,31,-1
 59.15625 484.46875 l 1,32,-1
 58.984375 480.5625 l 1,33,-1
 47 206.5625 l 1,34,-1
 46.84375 203.03125 l 1,35,-1
 44.5 200.375 l 1,36,-1
 -5.40625 143.90625 l 1,37,-1
 1.5 99.9375 l 1,38,-1
 54.109375 27.953125 l 1,39,-1
 463.578125 24.078125 l 1,40,-1
 467.4375 46.609375 l 1,41,-1
 327.828125 244.21875 l 1,42,-1
 320.890625 254.046875 l 1,43,-1
 331.8125 259.078125 l 1,44,-1
 357.8125 271.078125 l 1,45,-1
 364.84375 274.3125 l 1,46,-1
 369.734375 268.328125 l 1,47,-1
 528.421875 74.71875 l 1,48,-1
 581.265625 21.875 l 1,49,-1
 913.5 12.140625 l 1,50,-1
 1030 148.6875 l 1,51,-1
 1030 307.5 l 1,52,-1
 698.171875 404.359375 l 1,53,-1
 657.265625 344.375 l 1,54,-1
 653.21875 338.421875 l 1,55,-1
 646.28125 340.375 l 1,56,-1
 313.28125 434.390625 l 1,57,-1
 303.578125 437.125 l 1,58,-1
 306.390625 446.796875 l 1,59,-1
 315.40625 477.78125 l 1,60,-1
 318.109375 487.09375 l 1,61,-1
 327.484375 484.6875 l 1,62,-1
 632.546875 406.46875 l 1,63,-1
 671.625 466.453125 l 1,64,-1
 675.734375 472.78125 l 1,65,-1
 682.9375 470.5625 l 1,66,-1
 898.59375 404.203125 l 1,67,-1
 1022.828125 513.484375 l 1,68,-1
 956.984375 778.796875 l 1,69,-1
 691.96875 806.640625 l 1,70,-1
 372.140625 557.109375 l 1,71,-1
 369 554.65625 l 1,72,-1
 365.015625 555.046875 l 1,73,-1
 324.03125 559.046875 l 1,74,-1
 299.625 561.4375 l 1,75,-1
 318.734375 576.796875 l 1,76,-1
 532.34375 748.453125 l 1,77,-1
 513.625 805.390625 l 1,78,-1
 45.296875 831.640625 l 1,28,-1
EndSplineSet
Validated: 524289
EndChar

StartChar: l
Encoding: 108 108 41
Width: 1094
VWidth: 0
Flags: W
LayerCount: 2
Fore
SplineSet
94 821 m 1,0,-1
 390 795 l 1,1,-1
 667 842.015625 l 1,2,-1
 737.71875 771.296875 l 1,3,-1
 773.703125 705.296875 l 1,4,-1
 742.296875 519.265625 l 1,5,-1
 877 539 l 1,6,-1
 1037.984375 416 l 1,7,-1
 1108.703125 345.28125 l 1,8,-1
 1094.71875 15.296875 l 1,9,-1
 1051.71875 -29.71875 l 1,10,-1
 542.703125 -70.71875 l 1,11,-1
 142.703125 -35.703125 l 1,12,-1
 72 35 l 1,13,-1
 -18 150 l 1,14,-1
 15 459 l 1,15,-1
 -16 702 l 1,16,-1
 94 821 l 1,0,-1
770.421875 317.75 m 1,17,-1
 757.703125 324.296875 l 1,18,-1
 716.359375 365.640625 l 1,19,-1
 681.109375 156.828125 l 1,20,-1
 770.421875 317.75 l 1,17,-1
98.015625 810.609375 m 1,21,-1
 -5.484375 698.640625 l 1,22,-1
 24.921875 460.265625 l 1,23,-1
 25.078125 459.109375 l 1,24,-1
 24.953125 457.9375 l 1,25,-1
 -7.625 152.96875 l 1,26,-1
 77.1875 44.578125 l 1,27,-1
 472.03125 10.03125 l 1,28,-1
 976.40625 50.65625 l 1,29,-1
 1014.171875 90.1875 l 1,30,-1
 1027.78125 411.21875 l 1,31,-1
 874.28125 528.5 l 1,32,-1
 727.921875 507.0625 l 1,33,-1
 698.78125 400.1875 l 1,34,-1
 759.578125 368.890625 l 1,35,-1
 762.15625 367.5625 l 1,36,-1
 763.625 365.0625 l 1,37,-1
 783.625 331.078125 l 1,38,-1
 786.515625 326.15625 l 1,39,-1
 783.75 321.15625 l 1,40,-1
 677.75 130.15625 l 1,41,-1
 674.828125 124.890625 l 1,42,-1
 668.828125 125 l 1,43,-1
 555.828125 127 l 1,44,-1
 543.734375 127.21875 l 1,45,-1
 546.21875 139.0625 l 1,46,-1
 550.203125 158.046875 l 1,47,-1
 551.703125 165.203125 l 1,48,-1
 558.96875 165.9375 l 1,49,-1
 590.40625 169.171875 l 1,50,-1
 692.5625 774.25 l 1,51,-1
 661.640625 830.953125 l 1,52,-1
 391.671875 785.140625 l 1,53,-1
 390.40625 784.921875 l 1,54,-1
 389.125 785.03125 l 1,55,-1
 98.015625 810.609375 l 1,21,-1
EndSplineSet
Validated: 524289
EndChar

StartChar: m
Encoding: 109 109 42
Width: 1094
VWidth: 0
Flags: W
LayerCount: 2
Fore
SplineSet
27 823 m 1,0,-1
 345 805.984375 l 1,1,-1
 415.71875 735.28125 l 1,2,-1
 593.703125 491.5625 l 1,3,-1
 605.984375 514 l 1,4,-1
 442 741 l 1,5,-1
 686 850 l 1,6,-1
 870 819 l 1,7,-1
 940.703125 748.28125 l 1,8,-1
 1059.703125 623.296875 l 1,9,-1
 1055.34375 591.65625 l 1,10,-1
 1117.71875 529.296875 l 1,11,-1
 1151.71875 441.296875 l 1,12,-1
 1086.71875 365.28125 l 1,13,-1
 1121.71875 54.296875 l 1,14,-1
 1023.71875 -47.703125 l 1,15,-1
 590.703125 -55.71875 l 1,16,-1
 520 15 l 1,17,-1
 599.125 217.109375 l 1,18,-1
 590.703125 216.296875 l 1,19,-1
 520 287 l 1,20,-1
 464.1875 391.4375 l 1,21,-1
 454.703125 386.296875 l 1,22,-1
 531.71875 218.28125 l 1,23,-1
 487.71875 -17.71875 l 1,24,-1
 448.71875 -56.71875 l 1,25,-1
 187.703125 -29.703125 l 1,26,-1
 47.703125 70.296875 l 1,27,-1
 -23 141 l 1,28,-1
 -23 354 l 1,29,-1
 2 379 l 1,30,-1
 60 668 l 1,31,-1
 27 699.984375 l 1,32,-1
 27 823 l 1,0,-1
37 812.453125 m 1,33,-1
 37 704.21875 l 1,34,-1
 66.96875 675.1875 l 1,35,-1
 70.875 671.390625 l 1,36,-1
 69.8125 666.03125 l 1,37,-1
 11.8125 377.03125 l 1,38,-1
 11.203125 374.0625 l 1,39,-1
 9.078125 371.921875 l 1,40,-1
 -13 349.859375 l 1,41,-1
 -13 146.140625 l 1,42,-1
 120.65625 50.671875 l 1,43,-1
 374.296875 24.4375 l 1,44,-1
 407.75 57.875 l 1,45,-1
 450.59375 287.71875 l 1,46,-1
 374.90625 452.828125 l 1,47,-1
 371 461.328125 l 1,48,-1
 379.21875 465.78125 l 1,49,-1
 414.21875 484.796875 l 1,50,-1
 423.0625 489.59375 l 1,51,-1
 427.8125 480.71875 l 1,52,-1
 525.671875 297.609375 l 1,53,-1
 575.109375 302.375 l 1,54,-1
 666.796875 519.890625 l 1,55,-1
 670.015625 527.53125 l 1,56,-1
 678.125 525.78125 l 1,57,-1
 715.109375 517.78125 l 1,58,-1
 726.59375 515.296875 l 1,59,-1
 722.3125 504.359375 l 1,60,-1
 534.765625 25.265625 l 1,61,-1
 948.671875 32.921875 l 1,62,-1
 1040.546875 128.546875 l 1,63,-1
 1006.0625 434.875 l 1,64,-1
 1005.578125 439.203125 l 1,65,-1
 1008.40625 442.5 l 1,66,-1
 1069.515625 513.96875 l 1,67,-1
 1042.546875 583.796875 l 1,68,-1
 996.71875 547.90625 l 1,69,-1
 996.015625 535.421875 l 1,70,-1
 994.984375 517.4375 l 1,71,-1
 994.921875 516.703125 l 1,72,-1
 955.90625 217.71875 l 1,73,-1
 954.5625 207.296875 l 1,74,-1
 944.21875 209.171875 l 1,75,-1
 922.21875 213.15625 l 1,76,-1
 912.78125 214.859375 l 1,77,-1
 914.09375 224.359375 l 1,78,-1
 958.15625 543.65625 l 1,79,-1
 978.4375 690.59375 l 1,80,-1
 865.046875 809.6875 l 1,81,-1
 687.3125 839.640625 l 1,82,-1
 457.3125 736.875 l 1,83,-1
 614.09375 519.859375 l 1,84,-1
 617.796875 514.734375 l 1,85,-1
 614.765625 509.203125 l 1,86,-1
 568.765625 425.1875 l 1,87,-1
 561.84375 412.5625 l 1,88,-1
 552.4375 423.453125 l 1,89,-1
 501.4375 482.453125 l 1,90,-1
 496.625 488.015625 l 1,91,-1
 500.5 494.265625 l 1,92,-1
 527.953125 538.546875 l 1,93,-1
 339.71875 796.265625 l 1,94,-1
 37 812.453125 l 1,33,-1
EndSplineSet
Validated: 524289
EndChar

StartChar: n
Encoding: 110 110 43
Width: 1094
VWidth: 0
Flags: W
LayerCount: 2
Fore
SplineSet
-28 776 m 1,0,-1
 14 807 l 1,1,-1
 335.765625 628.234375 l 1,2,-1
 268 696 l 1,3,-1
 289 803 l 1,4,-1
 705 834 l 1,5,-1
 1038 774 l 1,6,-1
 1108.703125 703.296875 l 1,7,-1
 1114.703125 529.296875 l 1,8,-1
 1086.71875 480.28125 l 1,9,-1
 1106.71875 9.28125 l 1,10,-1
 1059.703125 -37.71875 l 1,11,-1
 795.71875 -97.71875 l 1,12,-1
 731.96875 -33.96875 l 1,13,-1
 732.703125 -103.71875 l 1,14,-1
 181.71875 -45.703125 l 1,15,-1
 64.71875 25.296875 l 1,16,-1
 -6 96 l 1,17,-1
 -16.015625 383 l 1,18,-1
 12 403 l 1,19,-1
 17.828125 564.15625 l 1,20,-1
 -28 610 l 1,21,-1
 -28 776 l 1,0,-1
520.40625 294.265625 m 1,22,-1
 660 156 l 1,23,-1
 725.640625 90.359375 l 1,24,-1
 726 158 l 1,25,-1
 595.265625 291.34375 l 1,26,-1
 520.40625 294.265625 l 1,22,-1
800.25 377.59375 m 1,27,-1
 408.15625 588.03125 l 1,28,-1
 725 412 l 1,29,-1
 795.71875 341.28125 l 1,30,-1
 788.96875 331.015625 l 1,31,-1
 823 313 l 1,32,-1
 800.25 377.59375 l 1,27,-1
-18 770.953125 m 1,33,-1
 -18 614.484375 l 1,34,-1
 24.65625 576.46875 l 1,35,-1
 28.171875 573.34375 l 1,36,-1
 28 568.640625 l 1,37,-1
 22 402.640625 l 1,38,-1
 21.8125 397.734375 l 1,39,-1
 17.8125 394.875 l 1,40,-1
 -5.828125 377.984375 l 1,41,-1
 3.8125 101.75 l 1,42,-1
 114.28125 34.71875 l 1,43,-1
 651.875 -21.875 l 1,44,-1
 650.046875 151.796875 l 1,45,-1
 441.953125 357.890625 l 1,46,-1
 423.6875 376 l 1,47,-1
 449.375 375 l 1,48,-1
 526.390625 371.984375 l 1,49,-1
 530.359375 371.828125 l 1,50,-1
 533.140625 369 l 1,51,-1
 733.140625 165 l 1,52,-1
 736.015625 162.0625 l 1,53,-1
 736 157.9375 l 1,54,-1
 735.078125 -14.453125 l 1,55,-1
 983.96875 42.109375 l 1,56,-1
 1025.828125 83.953125 l 1,57,-1
 1006.015625 550.5625 l 1,58,-1
 1005.890625 553.453125 l 1,59,-1
 1007.3125 555.953125 l 1,60,-1
 1033.90625 602.5 l 1,61,-1
 1028.28125 765.59375 l 1,62,-1
 704.46875 823.9375 l 1,63,-1
 297.34375 793.59375 l 1,64,-1
 279.234375 701.328125 l 1,65,-1
 790.734375 426.8125 l 1,66,-1
 794.140625 424.984375 l 1,67,-1
 795.4375 421.328125 l 1,68,-1
 832.4375 316.328125 l 1,69,-1
 840.9375 292.203125 l 1,70,-1
 818.328125 304.171875 l 1,71,-1
 697.328125 368.15625 l 1,72,-1
 687.609375 373.296875 l 1,73,-1
 693.640625 382.484375 l 1,74,-1
 710.734375 408.484375 l 1,75,-1
 14.765625 795.125 l 1,76,-1
 -18 770.953125 l 1,33,-1
EndSplineSet
Validated: 524289
EndChar

StartChar: o
Encoding: 111 111 44
Width: 1094
VWidth: 0
Flags: W
LayerCount: 2
Fore
SplineSet
-40 698 m 1,0,-1
 157 805 l 1,1,-1
 381 844 l 1,2,-1
 416.234375 808.765625 l 1,3,-1
 410 854 l 1,4,-1
 684 827 l 1,5,-1
 872 776 l 1,6,-1
 1042.015625 612 l 1,7,-1
 1112.71875 541.296875 l 1,8,-1
 1094.703125 -17.71875 l 1,9,-1
 1039.703125 -72.71875 l 1,10,-1
 398.703125 -107.71875 l 1,11,-1
 40.71875 56.296875 l 1,12,-1
 -30 127 l 1,13,-1
 -40 698 l 1,0,-1
555.65625 455.28125 m 1,14,-1
 550.703125 455.28125 l 1,15,-1
 517.703125 425.296875 l 1,16,-1
 490.8125 452.1875 l 1,17,-1
 462.71875 359.296875 l 1,18,-1
 474.84375 129.609375 l 1,19,-1
 492 143 l 1,20,-1
 555.65625 455.28125 l 1,14,-1
-29.890625 692.109375 m 1,21,-1
 -20.109375 133.46875 l 1,22,-1
 329.921875 -26.875 l 1,23,-1
 964.625 7.78125 l 1,24,-1
 1014.125 57.28125 l 1,25,-1
 1031.875 607.890625 l 1,26,-1
 866.90625 767.03125 l 1,27,-1
 682.1875 817.125 l 1,28,-1
 421.640625 842.796875 l 1,29,-1
 459.015625 571.546875 l 1,30,-1
 459 570.734375 l 1,31,-1
 457.609375 519.171875 l 1,32,-1
 473.265625 533.40625 l 1,33,-1
 476.125 536 l 1,34,-1
 480 536 l 1,35,-1
 514 536 l 1,36,-1
 515.859375 536 l 1,37,-1
 517.59375 535.328125 l 1,38,-1
 569.578125 515.328125 l 1,39,-1
 577.484375 512.296875 l 1,40,-1
 575.796875 504 l 1,41,-1
 501.796875 141 l 1,42,-1
 501.0625 137.390625 l 1,43,-1
 498.15625 135.125 l 1,44,-1
 457.15625 103.109375 l 1,45,-1
 452.75 99.671875 l 1,46,-1
 447.515625 101.625 l 1,47,-1
 404.515625 117.625 l 1,48,-1
 398.359375 119.90625 l 1,49,-1
 398.015625 126.46875 l 1,50,-1
 382.015625 429.484375 l 1,51,-1
 381.921875 431.234375 l 1,52,-1
 382.4375 432.90625 l 1,53,-1
 417.765625 549.703125 l 1,54,-1
 372.71875 832.40625 l 1,55,-1
 160.328125 795.421875 l 1,56,-1
 -29.890625 692.109375 l 1,21,-1
EndSplineSet
Validated: 524289
EndChar

StartChar: p
Encoding: 112 112 45
Width: 1094
VWidth: 0
Flags: W
LayerCount: 2
Fore
SplineSet
-24 688 m 1,0,-1
 55 788 l 1,1,-1
 485 842 l 1,2,-1
 508.90625 818.09375 l 1,3,-1
 510 846.015625 l 1,4,-1
 920 801.015625 l 1,5,-1
 967 766 l 1,6,-1
 1037.71875 695.296875 l 1,7,-1
 1117.703125 347.28125 l 1,8,-1
 1086.71875 261.296875 l 1,9,-1
 839.71875 113.296875 l 1,10,-1
 707.71875 205.296875 l 1,11,-1
 675.21875 216.25 l 1,12,-1
 876 63 l 1,13,-1
 946.703125 -7.71875 l 1,14,-1
 923.703125 -82.703125 l 1,15,-1
 500.703125 -97.703125 l 1,16,-1
 52.71875 -43.71875 l 1,17,-1
 -18 26.984375 l 1,18,-1
 -0 82 l 1,19,-1
 8 295 l 1,20,-1
 27 311 l 1,21,-1
 27.90625 333.09375 l 1,22,-1
 -24 385 l 1,23,-1
 -24 688 l 1,0,-1
818.6875 546.453125 m 1,24,-1
 811.703125 547.296875 l 1,25,-1
 791.703125 476.296875 l 1,26,-1
 721 547 l 1,27,-1
 556.859375 738.125 l 1,28,-1
 557.703125 713.296875 l 1,29,-1
 785.703125 455.28125 l 1,30,-1
 800.515625 372.390625 l 1,31,-1
 809 367 l 1,32,-1
 840 495.984375 l 1,33,-1
 818.6875 546.453125 l 1,24,-1
-14 684.515625 m 1,34,-1
 -14 391.34375 l 1,35,-1
 33.265625 369.03125 l 1,36,-1
 39.265625 366.21875 l 1,37,-1
 39 359.59375 l 1,38,-1
 37 310.59375 l 1,39,-1
 36.8125 306.1875 l 1,40,-1
 33.4375 303.34375 l 1,41,-1
 17.828125 290.203125 l 1,42,-1
 10 81.625 l 1,43,-1
 9.9375 80.21875 l 1,44,-1
 9.5 78.890625 l 1,45,-1
 -4.703125 35.46875 l 1,46,-1
 430.421875 -16.96875 l 1,47,-1
 845.515625 -2.25 l 1,48,-1
 864.390625 59.28125 l 1,49,-1
 626.125 241.15625 l 1,50,-1
 557.515625 266.625 l 1,51,-1
 551.96875 268.671875 l 1,52,-1
 551.109375 274.53125 l 1,53,-1
 547.109375 301.53125 l 1,54,-1
 544.71875 317.6875 l 1,55,-1
 560.203125 312.46875 l 1,56,-1
 640.203125 285.484375 l 1,57,-1
 641.546875 285.03125 l 1,58,-1
 642.71875 284.203125 l 1,59,-1
 769.40625 195.90625 l 1,60,-1
 1007.796875 338.75 l 1,61,-1
 1036.59375 418.625 l 1,62,-1
 958.078125 760.1875 l 1,63,-1
 916.203125 791.359375 l 1,64,-1
 519.578125 834.90625 l 1,65,-1
 518.140625 798.53125 l 1,66,-1
 698.53125 588.515625 l 1,67,-1
 716.421875 567.671875 l 1,68,-1
 731.375 620.71875 l 1,69,-1
 733.6875 628.953125 l 1,70,-1
 742.1875 627.921875 l 1,71,-1
 792.203125 621.9375 l 1,72,-1
 797.96875 621.234375 l 1,73,-1
 800.21875 615.890625 l 1,74,-1
 849.21875 499.875 l 1,75,-1
 850.484375 496.859375 l 1,76,-1
 849.71875 493.65625 l 1,77,-1
 818.734375 364.65625 l 1,78,-1
 815.46875 351.0625 l 1,79,-1
 803.640625 358.5625 l 1,80,-1
 729.640625 405.5625 l 1,81,-1
 725.9375 407.921875 l 1,82,-1
 725.15625 412.234375 l 1,83,-1
 705.640625 521.484375 l 1,84,-1
 669.0625 562.875 l 1,85,-1
 479.5 777.375 l 1,86,-1
 477.125 780.078125 l 1,87,-1
 477 783.65625 l 1,88,-1
 475.375 830.71875 l 1,89,-1
 60.3125 778.59375 l 1,90,-1
 -14 684.515625 l 1,34,-1
EndSplineSet
Validated: 524289
EndChar

StartChar: r
Encoding: 114 114 46
Width: 1094
VWidth: 0
Flags: W
LayerCount: 2
Fore
SplineSet
45 776 m 1,0,-1
 180 838 l 1,1,-1
 756 856 l 1,2,-1
 1004 705 l 1,3,-1
 1074.703125 634.28125 l 1,4,-1
 1110.703125 281.296875 l 1,5,-1
 1021.734375 266.5625 l 1,6,-1
 1032 260 l 1,7,-1
 1102.71875 189.28125 l 1,8,-1
 1076.71875 -93.703125 l 1,9,-1
 576.703125 -68.71875 l 1,10,-1
 561.28125 -53.296875 l 1,11,-1
 394.703125 -93.703125 l 1,12,-1
 86.703125 -58.71875 l 1,13,-1
 16 12 l 1,14,-1
 -23 53 l 1,15,-1
 -33 254 l 1,16,-1
 -2 348 l 1,17,-1
 20 350 l 1,18,-1
 66 309 l 1,19,-1
 90.078125 312.4375 l 1,20,-1
 64.71875 336.28125 l 1,21,-1
 -6 407 l 1,22,-1
 45 776 l 1,0,-1
782.390625 456.671875 m 1,23,-1
 753.375 452.609375 l 1,24,-1
 762.140625 443.859375 l 1,25,-1
 784 449 l 1,26,-1
 782.390625 456.671875 l 1,23,-1
525.78125 170.734375 m 1,27,-1
 514.703125 160.296875 l 1,28,-1
 542.984375 37.34375 l 1,29,-1
 551 45 l 1,30,-1
 525.78125 170.734375 l 1,27,-1
54.15625 769.1875 m 1,31,-1
 4.609375 410.75 l 1,32,-1
 100.84375 320.296875 l 1,33,-1
 116 306.046875 l 1,34,-1
 95.421875 303.109375 l 1,35,-1
 67.421875 299.109375 l 1,36,-1
 62.8125 298.453125 l 1,37,-1
 59.34375 301.53125 l 1,38,-1
 16.578125 339.640625 l 1,39,-1
 5.4375 338.625 l 1,40,-1
 -22.921875 252.625 l 1,41,-1
 -13.1875 57.203125 l 1,42,-1
 20.734375 21.53125 l 1,43,-1
 323.359375 -12.859375 l 1,44,-1
 481.03125 25.390625 l 1,45,-1
 434.25 228.765625 l 1,46,-1
 432.96875 234.34375 l 1,47,-1
 437.140625 238.28125 l 1,48,-1
 468.125 267.5 l 1,49,-1
 436.1875 432.09375 l 1,50,-1
 434.46875 440.90625 l 1,51,-1
 443.046875 443.546875 l 1,52,-1
 501.75 461.6875 l 1,53,-1
 492.375 495.3125 l 1,54,-1
 489.296875 506.3125 l 1,55,-1
 500.609375 507.90625 l 1,56,-1
 764.625 544.90625 l 1,57,-1
 773.875 546.203125 l 1,58,-1
 775.796875 537.046875 l 1,59,-1
 793.78125 451.046875 l 1,60,-1
 795.78125 441.5 l 1,61,-1
 786.28125 439.265625 l 1,62,-1
 752.296875 431.25 l 1,63,-1
 743.28125 429.140625 l 1,64,-1
 740.46875 437.953125 l 1,65,-1
 736.140625 451.5625 l 1,66,-1
 488.796875 406 l 1,67,-1
 560.8125 46.96875 l 1,68,-1
 561.890625 41.578125 l 1,69,-1
 557.90625 37.765625 l 1,70,-1
 529.703125 10.828125 l 1,71,-1
 996.921875 -12.53125 l 1,72,-1
 1021.484375 254.84375 l 1,73,-1
 929.921875 313.453125 l 1,74,-1
 893.296875 306.75 l 1,75,-1
 856.78125 300.0625 l 1,76,-1
 841.984375 269.625 l 1,77,-1
 840.28125 266.125 l 1,78,-1
 836.640625 264.6875 l 1,79,-1
 785.65625 244.6875 l 1,80,-1
 780.609375 242.703125 l 1,81,-1
 776.1875 245.859375 l 1,82,-1
 734.1875 275.859375 l 1,83,-1
 730.546875 278.46875 l 1,84,-1
 730.0625 282.90625 l 1,85,-1
 728.0625 300.890625 l 1,86,-1
 727.015625 310.3125 l 1,87,-1
 736.359375 311.859375 l 1,88,-1
 889.34375 337.203125 l 1,89,-1
 1029.09375 360.34375 l 1,90,-1
 994.546875 699.03125 l 1,91,-1
 753.34375 845.921875 l 1,92,-1
 182.328125 828.0625 l 1,93,-1
 54.15625 769.1875 l 1,31,-1
EndSplineSet
Validated: 524289
EndChar

StartChar: s
Encoding: 115 115 47
Width: 1094
VWidth: 0
Flags: W
LayerCount: 2
Fore
SplineSet
587.6875 506.421875 m 1,0,-1
 661.1875 483.8125 l 1,1,-1
 608.71875 536.28125 l 1,2,-1
 583.703125 535.296875 l 1,3,-1
 587.6875 506.421875 l 1,0,-1
951.90625 393.09375 m 1,4,-1
 1020.703125 324.296875 l 1,5,-1
 1145.71875 91.28125 l 1,6,-1
 688.71875 -93.703125 l 1,7,-1
 92.71875 -58.71875 l 1,8,-1
 22.015625 12 l 1,9,-1
 -52 266 l 1,10,-1
 28.984375 373 l 1,11,-1
 169.40625 340.59375 l 1,12,-1
 109 401 l 1,13,-1
 -46 625 l 1,14,-1
 42 809 l 1,15,-1
 465 838 l 1,16,-1
 948 774 l 1,17,-1
 1034 743 l 1,18,-1
 1104.71875 672.296875 l 1,19,-1
 1104.71875 490.28125 l 1,20,-1
 1000.71875 378.28125 l 1,21,-1
 951.90625 393.09375 l 1,4,-1
715.21875 292.578125 m 1,22,-1
 562.71875 383.28125 l 1,23,-1
 562.34375 383.015625 l 1,24,-1
 715 291 l 1,25,-1
 715.21875 292.578125 l 1,22,-1
352.28125 287.21875 m 1,26,-1
 348.359375 284.0625 l 1,27,-1
 343.5 285.3125 l 1,28,-1
 169.609375 330.28125 l 1,29,-1
 33.0625 361.796875 l 1,30,-1
 -40.984375 263.96875 l 1,31,-1
 29.640625 21.5625 l 1,32,-1
 616.34375 -12.875 l 1,33,-1
 1060.921875 167.078125 l 1,34,-1
 943.125 386.65625 l 1,35,-1
 521.078125 516.4375 l 1,36,-1
 514.96875 518.3125 l 1,37,-1
 514.109375 524.640625 l 1,38,-1
 503.09375 604.640625 l 1,39,-1
 501.578125 615.5625 l 1,40,-1
 512.59375 616 l 1,41,-1
 562.609375 617.984375 l 1,42,-1
 568.8125 618.234375 l 1,43,-1
 571.78125 612.765625 l 1,44,-1
 600.828125 559.375 l 1,45,-1
 926.921875 460.375 l 1,46,-1
 1024 564.921875 l 1,47,-1
 1024 735.984375 l 1,48,-1
 945.625 764.234375 l 1,49,-1
 464.6875 827.953125 l 1,50,-1
 48.515625 799.421875 l 1,51,-1
 -34.46875 625.921875 l 1,52,-1
 115.09375 409.765625 l 1,53,-1
 334.953125 353.84375 l 1,54,-1
 486.1875 462.125 l 1,55,-1
 491.5 465.9375 l 1,56,-1
 497.109375 462.59375 l 1,57,-1
 724.109375 327.59375 l 1,58,-1
 729.84375 324.1875 l 1,59,-1
 728.890625 317.578125 l 1,60,-1
 724.890625 289.578125 l 1,61,-1
 722.765625 274.640625 l 1,62,-1
 709.828125 282.4375 l 1,63,-1
 501.84375 407.828125 l 1,64,-1
 352.28125 287.21875 l 1,26,-1
EndSplineSet
Validated: 524289
EndChar

StartChar: t
Encoding: 116 116 48
Width: 1094
VWidth: 0
Flags: W
LayerCount: 2
Fore
SplineSet
-19 840 m 1,0,-1
 483 868 l 1,1,-1
 1022 831 l 1,2,-1
 1092.71875 760.28125 l 1,3,-1
 1117.71875 295.28125 l 1,4,-1
 942.703125 258.734375 l 1,5,-1
 1000 214 l 1,6,-1
 1070.703125 143.28125 l 1,7,-1
 1044.703125 -26.71875 l 1,8,-1
 594.71875 -70.71875 l 1,9,-1
 186.703125 -60.71875 l 1,10,-1
 131.703125 -32.71875 l 1,11,-1
 61 38 l 1,12,-1
 -12 242 l 1,13,-1
 4 334 l 1,14,-1
 69.671875 354.328125 l 1,15,-1
 4 420 l 1,16,-1
 -38 529 l 1,17,-1
 -19 840 l 1,0,-1
834.296875 288.9375 m 1,18,-1
 848.265625 292.734375 l 1,19,-1
 829 312 l 1,20,-1
 834.296875 288.9375 l 1,18,-1
-9.5625 830.515625 m 1,21,-1
 -27.890625 530.5625 l 1,22,-1
 10.6875 430.4375 l 1,23,-1
 188.40625 441.609375 l 1,24,-1
 297.90625 681.15625 l 1,25,-1
 301.75 689.546875 l 1,26,-1
 310.421875 686.390625 l 1,27,-1
 343.421875 674.40625 l 1,28,-1
 353.734375 670.640625 l 1,29,-1
 349.03125 660.71875 l 1,30,-1
 223.03125 394.71875 l 1,31,-1
 221.15625 390.75 l 1,32,-1
 216.953125 389.4375 l 1,33,-1
 12.796875 326.25 l 1,34,-1
 -1.6875 242.890625 l 1,35,-1
 69.078125 45.109375 l 1,36,-1
 118.515625 19.9375 l 1,37,-1
 523.640625 10.015625 l 1,38,-1
 965.28125 53.1875 l 1,39,-1
 989.21875 209.71875 l 1,40,-1
 883.796875 292.03125 l 1,41,-1
 785.625 265.359375 l 1,42,-1
 775.578125 262.625 l 1,43,-1
 773.25 272.78125 l 1,44,-1
 723.25 490.765625 l 1,45,-1
 720.609375 502.265625 l 1,46,-1
 732.390625 502.984375 l 1,47,-1
 765.390625 504.984375 l 1,48,-1
 773.15625 505.453125 l 1,49,-1
 775.53125 498.03125 l 1,50,-1
 828.796875 330.640625 l 1,51,-1
 1036.5625 374.03125 l 1,52,-1
 1012.484375 821.625 l 1,53,-1
 482.9375 857.96875 l 1,54,-1
 -9.5625 830.515625 l 1,21,-1
EndSplineSet
Validated: 524289
EndChar

StartChar: u
Encoding: 117 117 49
Width: 1094
VWidth: 0
Flags: W
LayerCount: 2
Fore
SplineSet
3 807 m 1,0,-1
 115 809 l 1,1,-1
 156 764 l 1,2,-1
 203 854 l 1,3,-1
 565 803 l 1,4,-1
 635.71875 732.296875 l 1,5,-1
 637.953125 723.984375 l 1,6,-1
 640 733 l 1,7,-1
 703 801 l 1,8,-1
 930 799.015625 l 1,9,-1
 1049 700 l 1,10,-1
 1119.71875 629.296875 l 1,11,-1
 1114.703125 195.296875 l 1,12,-1
 1000.71875 -58.71875 l 1,13,-1
 631.71875 -90.703125 l 1,14,-1
 281.703125 -56.71875 l 1,15,-1
 227.921875 -2.9375 l 1,16,-1
 142.703125 -70.71875 l 1,17,-1
 70.71875 -21.703125 l 1,18,-1
 -0 49.015625 l 1,19,-1
 -43 709 l 1,20,-1
 3 807 l 1,0,-1
600.0625 263.9375 m 1,21,-1
 565.921875 298.078125 l 1,22,-1
 555.71875 247.28125 l 1,23,-1
 496.71875 235.296875 l 1,24,-1
 494.203125 229.921875 l 1,25,-1
 528 212.015625 l 1,26,-1
 586 228 l 1,27,-1
 600.0625 263.9375 l 1,21,-1
9.40625 797.109375 m 1,28,-1
 -32.859375 707.09375 l 1,29,-1
 9.65625 54.53125 l 1,30,-1
 71.53125 12.40625 l 1,31,-1
 153.78125 77.828125 l 1,32,-1
 161.09375 83.65625 l 1,33,-1
 167.40625 76.734375 l 1,34,-1
 215.796875 23.578125 l 1,35,-1
 561.046875 -9.953125 l 1,36,-1
 923.28125 21.453125 l 1,37,-1
 1034.03125 268.203125 l 1,38,-1
 1038.953125 695.359375 l 1,39,-1
 926.34375 789.046875 l 1,40,-1
 707.328125 790.953125 l 1,41,-1
 649.15625 728.171875 l 1,42,-1
 557.171875 322.078125 l 1,43,-1
 610.046875 281.96875 l 1,44,-1
 616.0625 277.40625 l 1,45,-1
 613.3125 270.359375 l 1,46,-1
 595.3125 224.359375 l 1,47,-1
 593.484375 219.6875 l 1,48,-1
 588.65625 218.359375 l 1,49,-1
 530.65625 202.375 l 1,50,-1
 526.828125 201.3125 l 1,51,-1
 523.3125 203.171875 l 1,52,-1
 406.328125 265.171875 l 1,53,-1
 397.90625 269.625 l 1,54,-1
 401.953125 278.25 l 1,55,-1
 416.953125 310.25 l 1,56,-1
 419.09375 314.796875 l 1,57,-1
 424.015625 315.796875 l 1,58,-1
 476.515625 326.46875 l 1,59,-1
 564.734375 765.671875 l 1,60,-1
 557.0625 794.03125 l 1,61,-1
 208.59375 843.109375 l 1,62,-1
 164.859375 759.375 l 1,63,-1
 158.234375 746.6875 l 1,64,-1
 148.609375 757.265625 l 1,65,-1
 110.65625 798.921875 l 1,66,-1
 9.40625 797.109375 l 1,28,-1
EndSplineSet
Validated: 524289
EndChar

StartChar: v
Encoding: 118 118 50
Width: 1094
VWidth: 0
Flags: W
LayerCount: 2
Fore
SplineSet
66 817 m 1,0,-1
 131 831 l 1,1,-1
 428 778 l 1,2,-1
 498.703125 707.28125 l 1,3,-1
 537.4375 633.3125 l 1,4,-1
 637 819 l 1,5,-1
 989 815 l 1,6,-1
 1059.703125 744.296875 l 1,7,-1
 1118.71875 543.296875 l 1,8,-1
 1061.703125 134.296875 l 1,9,-1
 578.71875 -129.71875 l 1,10,-1
 557.71875 -127.703125 l 1,11,-1
 54.71875 144.296875 l 1,12,-1
 -16 215 l 1,13,-1
 -33 635 l 1,14,-1
 66 817 l 1,0,-1
72.59375 808.1875 m 1,15,-1
 -22.90625 632.640625 l 1,16,-1
 -6.234375 221.09375 l 1,17,-1
 489.984375 -47.234375 l 1,18,-1
 505.90625 -48.765625 l 1,19,-1
 981.78125 211.375 l 1,20,-1
 1037.8125 613.25 l 1,21,-1
 981.484375 805.09375 l 1,22,-1
 642.953125 808.921875 l 1,23,-1
 536.125 609.734375 l 1,24,-1
 538.875 555.5 l 1,25,-1
 548 375.5 l 1,26,-1
 548.046875 374.390625 l 1,27,-1
 547.859375 373.296875 l 1,28,-1
 523.859375 234.296875 l 1,29,-1
 520 211.984375 l 1,30,-1
 506.109375 229.859375 l 1,31,-1
 457.109375 292.875 l 1,32,-1
 454.140625 296.6875 l 1,33,-1
 455.28125 301.375 l 1,34,-1
 503.921875 500.890625 l 1,35,-1
 500.859375 550.375 l 1,36,-1
 496.15625 626.25 l 1,37,-1
 421.40625 769.015625 l 1,38,-1
 131.1875 820.796875 l 1,39,-1
 72.59375 808.1875 l 1,15,-1
EndSplineSet
Validated: 524289
EndChar

StartChar: w
Encoding: 119 119 51
Width: 1094
VWidth: 0
Flags: W
LayerCount: 2
Fore
SplineSet
-25 595.984375 m 1,0,-1
 199 805 l 1,1,-1
 412 848 l 1,2,-1
 475.390625 784.609375 l 1,3,-1
 483.015625 842 l 1,4,-1
 900 821 l 1,5,-1
 970.71875 750.296875 l 1,6,-1
 1116.71875 447.28125 l 1,7,-1
 1059.703125 -41.71875 l 1,8,-1
 797.71875 -123.71875 l 1,9,-1
 420.703125 -125.703125 l 1,10,-1
 373 -78 l 1,11,-1
 371.71875 -90.703125 l 1,12,-1
 119.71875 -31.71875 l 1,13,-1
 49 38.984375 l 1,14,-1
 -23 524 l 1,15,-1
 -25 595.984375 l 1,0,-1
509.125 281.71875 m 1,16,-1
 458.40625 507.734375 l 1,17,-1
 377.703125 498.28125 l 1,18,-1
 362.8125 455.140625 l 1,19,-1
 387.015625 451 l 1,20,-1
 457.71875 380.296875 l 1,21,-1
 509.125 281.71875 l 1,16,-1
-14.875 591.765625 m 1,22,-1
 -13.015625 524.875 l 1,23,-1
 57.890625 47.171875 l 1,24,-1
 292.1875 -7.671875 l 1,25,-1
 328.046875 349 l 1,26,-1
 329.375 362.234375 l 1,27,-1
 341.71875 357.296875 l 1,28,-1
 376.71875 343.28125 l 1,29,-1
 383.40625 340.609375 l 1,30,-1
 382.984375 333.40625 l 1,31,-1
 360.609375 -44.9375 l 1,32,-1
 725.453125 -43 l 1,33,-1
 979.8125 36.59375 l 1,34,-1
 1035.734375 516.28125 l 1,35,-1
 893.578125 811.3125 l 1,36,-1
 491.703125 831.546875 l 1,37,-1
 456.140625 563.453125 l 1,38,-1
 523.75 262.1875 l 1,39,-1
 524.96875 256.8125 l 1,40,-1
 521.078125 252.921875 l 1,41,-1
 503.078125 234.921875 l 1,42,-1
 493.4375 225.28125 l 1,43,-1
 487.140625 237.375 l 1,44,-1
 380.4375 441.984375 l 1,45,-1
 323.203125 451.796875 l 1,46,-1
 206.234375 168.1875 l 1,47,-1
 203.6875 162 l 1,48,-1
 197 162 l 1,49,-1
 170 162 l 1,50,-1
 155.96875 161.984375 l 1,51,-1
 160.546875 175.25 l 1,52,-1
 297.546875 572.265625 l 1,53,-1
 299.59375 578.203125 l 1,54,-1
 305.828125 578.9375 l 1,55,-1
 391.359375 588.9375 l 1,56,-1
 401.484375 835.671875 l 1,57,-1
 203.765625 795.75 l 1,58,-1
 -14.875 591.765625 l 1,22,-1
EndSplineSet
Validated: 524289
EndChar

StartChar: x
Encoding: 120 120 52
Width: 1094
VWidth: 0
Flags: W
LayerCount: 2
Fore
SplineSet
75.015625 881 m 1,0,-1
 400 858 l 1,1,-1
 587 766 l 1,2,-1
 610.03125 742.96875 l 1,3,-1
 640 821 l 1,4,-1
 945 809 l 1,5,-1
 1039 774 l 1,6,-1
 1109.703125 703.296875 l 1,7,-1
 1109.703125 527.296875 l 1,8,-1
 1040.6875 456 l 1,9,-1
 1048 455 l 1,10,-1
 1118.703125 384.296875 l 1,11,-1
 1127.71875 122.296875 l 1,12,-1
 1000.71875 -27.703125 l 1,13,-1
 679.71875 -68.71875 l 1,14,-1
 526.703125 62.296875 l 1,15,-1
 494.78125 94.21875 l 1,16,-1
 492.703125 89.28125 l 1,17,-1
 449.703125 -50.703125 l 1,18,-1
 331.703125 -90.71875 l 1,19,-1
 94.71875 -52.71875 l 1,20,-1
 24.015625 18 l 1,21,-1
 -20 98 l 1,22,-1
 5 336 l 1,23,-1
 112.765625 453.65625 l 1,24,-1
 89.703125 457.28125 l 1,25,-1
 19 528 l 1,26,-1
 -5 674 l 1,27,-1
 75.015625 881 l 1,0,-1
81.671875 870.5 m 1,28,-1
 5.3125 672.9375 l 1,29,-1
 27.6875 536.75 l 1,30,-1
 446.5625 470.875 l 1,31,-1
 453.4375 469.796875 l 1,32,-1
 454.8125 462.96875 l 1,33,-1
 459.8125 437.96875 l 1,34,-1
 461.25 430.75 l 1,35,-1
 454.796875 427.21875 l 1,36,-1
 421.796875 409.21875 l 1,37,-1
 418.96875 407.6875 l 1,38,-1
 415.796875 408.078125 l 1,39,-1
 117.890625 444.453125 l 1,40,-1
 14.609375 331.671875 l 1,41,-1
 -9.71875 100.078125 l 1,42,-1
 30.421875 27.09375 l 1,43,-1
 260.140625 -9.75 l 1,44,-1
 370.9375 27.84375 l 1,45,-1
 412.59375 163.40625 l 1,46,-1
 412.78125 163.875 l 1,47,-1
 512.78125 401.859375 l 1,48,-1
 515.28125 407.8125 l 1,49,-1
 521.734375 407.984375 l 1,50,-1
 559.734375 409 l 1,51,-1
 573.796875 409.359375 l 1,52,-1
 569.515625 395.953125 l 1,53,-1
 547.53125 326.953125 l 1,54,-1
 547.234375 326.15625 l 1,55,-1
 468.015625 135.875 l 1,56,-1
 612.140625 12.484375 l 1,57,-1
 924.875 52.421875 l 1,58,-1
 1046.875 196.515625 l 1,59,-1
 1038.296875 446.234375 l 1,60,-1
 656.65625 498.09375 l 1,61,-1
 645.484375 499.609375 l 1,62,-1
 648.3125 510.515625 l 1,63,-1
 655.328125 537.515625 l 1,64,-1
 657.5 545.890625 l 1,65,-1
 666.09375 544.9375 l 1,66,-1
 944.21875 514.46875 l 1,67,-1
 1029 602.046875 l 1,68,-1
 1029 767.0625 l 1,69,-1
 943.015625 799.0625 l 1,70,-1
 646.765625 810.71875 l 1,71,-1
 528.328125 502.421875 l 1,72,-1
 526.0625 496.515625 l 1,73,-1
 519.765625 496.03125 l 1,74,-1
 493.765625 494.03125 l 1,75,-1
 488.3125 493.609375 l 1,76,-1
 485.015625 497.984375 l 1,77,-1
 439.015625 558.984375 l 1,78,-1
 431.046875 569.546875 l 1,79,-1
 443.390625 574.328125 l 1,80,-1
 519.09375 603.671875 l 1,81,-1
 574.609375 760.953125 l 1,82,-1
 397.34375 848.171875 l 1,83,-1
 81.671875 870.5 l 1,28,-1
EndSplineSet
Validated: 524289
EndChar

StartChar: y
Encoding: 121 121 53
Width: 1094
VWidth: 0
Flags: W
LayerCount: 2
Fore
SplineSet
113 827 m 1,0,-1
 498 907 l 1,1,-1
 553.125 851.875 l 1,2,-1
 552.984375 881 l 1,3,-1
 1013 813 l 1,4,-1
 1083.703125 742.28125 l 1,5,-1
 1104.71875 705.28125 l 1,6,-1
 1104.71875 449.28125 l 1,7,-1
 1043.703125 351.28125 l 1,8,-1
 1021.75 342.265625 l 1,9,-1
 1043.71875 320.296875 l 1,10,-1
 914.703125 97.296875 l 1,11,-1
 932.71875 -0.703125 l 1,12,-1
 854.703125 -60.71875 l 1,13,-1
 269.703125 -56.71875 l 1,14,-1
 199 14 l 1,15,-1
 184 127 l 1,16,-1
 205.78125 212.234375 l 1,17,-1
 85.71875 322.28125 l 1,18,-1
 15 393 l 1,19,-1
 48 410 l 1,20,-1
 135.59375 384.390625 l 1,21,-1
 77.984375 442 l 1,22,-1
 -29 750 l 1,23,-1
 113 827 l 1,0,-1
494 445.9375 m 1,24,-1
 555 465 l 1,25,-1
 553.59375 757.28125 l 1,26,-1
 494 445.9375 l 1,24,-1
116.484375 817.515625 m 1,27,-1
 -16.765625 745.265625 l 1,28,-1
 85.96875 449.515625 l 1,29,-1
 353.828125 338.234375 l 1,30,-1
 360.984375 335.265625 l 1,31,-1
 359.890625 327.59375 l 1,32,-1
 358.90625 320.59375 l 1,33,-1
 357.28125 309.15625 l 1,34,-1
 346.1875 312.40625 l 1,35,-1
 49.03125 399.28125 l 1,36,-1
 32.328125 390.671875 l 1,37,-1
 213.75 224.375 l 1,38,-1
 218.171875 220.328125 l 1,39,-1
 216.6875 214.53125 l 1,40,-1
 194.171875 126.390625 l 1,41,-1
 207.765625 23.9375 l 1,42,-1
 780.625 20.015625 l 1,43,-1
 851.0625 74.203125 l 1,44,-1
 834.15625 166.203125 l 1,45,-1
 833.5 169.828125 l 1,46,-1
 835.34375 173.015625 l 1,47,-1
 950.875 372.71875 l 1,48,-1
 628.28125 260.5625 l 1,49,-1
 615 255.9375 l 1,50,-1
 615 270 l 1,51,-1
 615 279 l 1,52,-1
 615 285.703125 l 1,53,-1
 621.1875 288.25 l 1,54,-1
 966.203125 430.015625 l 1,55,-1
 1024 522.859375 l 1,56,-1
 1024 773.359375 l 1,57,-1
 1006.703125 803.8125 l 1,58,-1
 563.046875 869.40625 l 1,59,-1
 565 465.046875 l 1,60,-1
 565.03125 457.65625 l 1,61,-1
 557.984375 455.453125 l 1,62,-1
 477.984375 430.453125 l 1,63,-1
 471.265625 428.359375 l 1,64,-1
 467.03125 433.96875 l 1,65,-1
 414.03125 503.96875 l 1,66,-1
 411.359375 507.515625 l 1,67,-1
 412.1875 511.875 l 1,68,-1
 485.359375 894.15625 l 1,69,-1
 116.484375 817.515625 l 1,27,-1
EndSplineSet
Validated: 524289
EndChar

StartChar: z
Encoding: 122 122 54
Width: 1094
VWidth: 0
Flags: W
LayerCount: 2
Fore
SplineSet
114 813 m 1,0,-1
 639 836 l 1,1,-1
 849 805 l 1,2,-1
 919.71875 734.296875 l 1,3,-1
 1069.703125 570.296875 l 1,4,-1
 1069.703125 437.296875 l 1,5,-1
 939.171875 400 l 1,6,-1
 1021 337 l 1,7,-1
 1091.703125 266.296875 l 1,8,-1
 1106.71875 8.28125 l 1,9,-1
 1072.703125 -55.703125 l 1,10,-1
 586.71875 -90.71875 l 1,11,-1
 261.703125 -56.71875 l 1,12,-1
 57.703125 79.296875 l 1,13,-1
 -13 150 l 1,14,-1
 -11 287 l 1,15,-1
 70.546875 321.453125 l 1,16,-1
 58 334 l 1,17,-1
 -44 488 l 1,18,-1
 -69 660 l 1,19,-1
 114 813 l 1,0,-1
530.890625 283.34375 m 1,20,-1
 556 272 l 1,21,-1
 554.484375 290.09375 l 1,22,-1
 530.890625 283.34375 l 1,20,-1
117.8125 803.15625 m 1,23,-1
 -58.296875 655.921875 l 1,24,-1
 -34.4375 491.65625 l 1,25,-1
 61.828125 346.328125 l 1,26,-1
 148.0625 381.203125 l 1,27,-1
 234.1875 416.03125 l 1,28,-1
 262.484375 462.21875 l 1,29,-1
 264.265625 465.125 l 1,30,-1
 267.4375 466.34375 l 1,31,-1
 513.421875 560.34375 l 1,32,-1
 516.921875 561.671875 l 1,33,-1
 520.421875 560.390625 l 1,34,-1
 572.4375 541.40625 l 1,35,-1
 596.296875 532.6875 l 1,36,-1
 572.890625 522.796875 l 1,37,-1
 160.703125 348.671875 l 1,38,-1
 -1.09375 280.328125 l 1,39,-1
 -2.921875 155.3125 l 1,40,-1
 194.484375 23.6875 l 1,41,-1
 516.15625 -9.96875 l 1,42,-1
 995.75 24.578125 l 1,43,-1
 1025.859375 81.21875 l 1,44,-1
 1011.28125 331.859375 l 1,45,-1
 879.96875 432.9375 l 1,46,-1
 560.640625 336.765625 l 1,47,-1
 565.96875 272.828125 l 1,48,-1
 567.375 255.890625 l 1,49,-1
 551.875 262.890625 l 1,50,-1
 447.890625 309.890625 l 1,51,-1
 444.4375 311.453125 l 1,52,-1
 442.875 314.90625 l 1,53,-1
 429.875 343.921875 l 1,54,-1
 425.15625 354.453125 l 1,55,-1
 436.25 357.625 l 1,56,-1
 989 515.546875 l 1,57,-1
 989 637.125 l 1,58,-1
 844.03125 795.640625 l 1,59,-1
 638.484375 825.96875 l 1,60,-1
 117.8125 803.15625 l 1,23,-1
EndSplineSet
Validated: 524289
EndChar

StartChar: exclam
Encoding: 33 33 55
Width: 833
VWidth: 0
Flags: W
LayerCount: 2
Fore
SplineSet
101 722 m 1,0,-1
 450 830 l 1,1,-1
 716 786 l 1,2,-1
 786.71875 715.296875 l 1,3,-1
 673.703125 213.296875 l 1,4,-1
 649.703125 208.296875 l 1,5,-1
 710.71875 147.28125 l 1,6,-1
 763.703125 53.28125 l 1,7,-1
 572.703125 -123.71875 l 1,8,-1
 278.71875 -121.71875 l 1,9,-1
 93.71875 39.28125 l 1,10,-1
 23 110 l 1,11,-1
 79 194 l 1,12,-1
 251.21875 187.625 l 1,13,-1
 183.71875 196.28125 l 1,14,-1
 113 267 l 1,15,-1
 101 722 l 1,0,-1
111.203125 714.6875 m 1,16,-1
 122.78125 275.828125 l 1,17,-1
 371.28125 243.921875 l 1,18,-1
 379.03125 242.921875 l 1,19,-1
 379.9375 235.15625 l 1,20,-1
 385.921875 184.15625 l 1,21,-1
 387.28125 172.578125 l 1,22,-1
 375.625 173 l 1,23,-1
 84.21875 183.796875 l 1,24,-1
 36.203125 111.765625 l 1,25,-1
 211.765625 -41.03125 l 1,26,-1
 498.09375 -42.96875 l 1,27,-1
 680.40625 125.96875 l 1,28,-1
 634.75 206.953125 l 1,29,-1
 414.703125 169.140625 l 1,30,-1
 405.015625 167.484375 l 1,31,-1
 403.1875 177.125 l 1,32,-1
 391.1875 240.125 l 1,33,-1
 389.34375 249.78125 l 1,34,-1
 398.96875 251.78125 l 1,35,-1
 594.65625 292.484375 l 1,36,-1
 703.921875 777.875 l 1,37,-1
 450.6875 819.75 l 1,38,-1
 111.203125 714.6875 l 1,16,-1
EndSplineSet
Validated: 524289
EndChar

StartChar: quotedbl
Encoding: 34 34 56
Width: 633
VWidth: 0
Flags: W
LayerCount: 2
Fore
SplineSet
47 609 m 1,0,-1
 307 858 l 1,1,-1
 377 849 l 1,2,-1
 447.703125 778.28125 l 1,3,-1
 447.71875 740.78125 l 1,4,-1
 461 752.984375 l 1,5,-1
 516.015625 722 l 1,6,-1
 586.71875 651.28125 l 1,7,-1
 590.703125 525.28125 l 1,8,-1
 269.71875 200.28125 l 1,9,-1
 171.71875 286.296875 l 1,10,-1
 101 357 l 1,11,-1
 125.921875 391.078125 l 1,12,-1
 100 417 l 1,13,-1
 79.984375 432 l 1,14,-1
 47 609 l 1,0,-1
57.828125 605.515625 m 1,15,-1
 89.109375 437.65625 l 1,16,-1
 98.390625 430.703125 l 1,17,-1
 222.328125 579.40625 l 1,18,-1
 235.1875 594.828125 l 1,19,-1
 239.75 575.265625 l 1,20,-1
 246.734375 545.28125 l 1,21,-1
 247.78125 540.8125 l 1,22,-1
 245.078125 537.09375 l 1,23,-1
 114.484375 358.484375 l 1,24,-1
 198.515625 284.734375 l 1,25,-1
 509.875 599.96875 l 1,26,-1
 506.1875 716.046875 l 1,27,-1
 462.421875 740.71875 l 1,28,-1
 283.765625 576.625 l 1,29,-1
 276.828125 570.25 l 1,30,-1
 270.046875 576.796875 l 1,31,-1
 240.046875 605.8125 l 1,32,-1
 233.15625 612.484375 l 1,33,-1
 239.53125 619.640625 l 1,34,-1
 367.015625 762.8125 l 1,35,-1
 367 840.203125 l 1,36,-1
 310.46875 847.46875 l 1,37,-1
 57.828125 605.515625 l 1,15,-1
EndSplineSet
Validated: 524289
EndChar

StartChar: numbersign
Encoding: 35 35 57
Width: 1094
VWidth: 0
Flags: W
LayerCount: 2
Fore
SplineSet
348.984375 779 m 1,0,-1
 563 793.015625 l 1,1,-1
 633.71875 722.296875 l 1,2,-1
 642.703125 652.296875 l 1,3,-1
 642.546875 651.40625 l 1,4,-1
 668 650 l 1,5,-1
 707 803 l 1,6,-1
 838 811.984375 l 1,7,-1
 908.703125 741.28125 l 1,8,-1
 916.71875 667.28125 l 1,9,-1
 910.265625 618.734375 l 1,10,-1
 963.703125 565.296875 l 1,11,-1
 1052.71875 422.28125 l 1,12,-1
 979.703125 405.296875 l 1,13,-1
 882.71875 403.296875 l 1,14,-1
 879.859375 380.484375 l 1,15,-1
 993 384 l 1,16,-1
 1063.703125 313.296875 l 1,17,-1
 1133.71875 207.296875 l 1,18,-1
 1057.703125 191.28125 l 1,19,-1
 850.703125 166.296875 l 1,20,-1
 819.71875 -27.703125 l 1,21,-1
 725.71875 -46.71875 l 1,22,-1
 598.703125 26.28125 l 1,23,-1
 528 97 l 1,24,-1
 537.28125 133.453125 l 1,25,-1
 530.703125 133.296875 l 1,26,-1
 479.703125 -10.71875 l 1,27,-1
 354.71875 -28.71875 l 1,28,-1
 218.71875 42.296875 l 1,29,-1
 148 113 l 1,30,-1
 158.796875 148.1875 l 1,31,-1
 107 200 l 1,32,-1
 54 261 l 1,33,-1
 91 358 l 1,34,-1
 223 362 l 1,35,-1
 232.71875 394.28125 l 1,36,-1
 215.703125 394.28125 l 1,37,-1
 144.984375 465 l 1,38,-1
 81.984375 547 l 1,39,-1
 142 681 l 1,40,-1
 317 671 l 1,41,-1
 348.984375 779 l 1,0,-1
592.59375 372.8125 m 1,42,-1
 597.984375 373 l 1,43,-1
 603.859375 396.4375 l 1,44,-1
 596.703125 396.28125 l 1,45,-1
 592.59375 372.8125 l 1,42,-1
356.59375 769.46875 m 1,46,-1
 326.59375 668.15625 l 1,47,-1
 324.34375 660.5625 l 1,48,-1
 316.4375 661.015625 l 1,49,-1
 148.3125 670.625 l 1,50,-1
 93.5625 548.359375 l 1,51,-1
 149.921875 475 l 1,52,-1
 254 475 l 1,53,-1
 267.453125 475 l 1,54,-1
 263.578125 462.125 l 1,55,-1
 232.578125 359.109375 l 1,56,-1
 230.5 352.21875 l 1,57,-1
 223.3125 352 l 1,58,-1
 97.96875 348.203125 l 1,59,-1
 65.46875 263.03125 l 1,60,-1
 111.5 210.0625 l 1,61,-1
 174.84375 211 l 1,62,-1
 188.59375 211.203125 l 1,63,-1
 184.5625 198.078125 l 1,64,-1
 160 118.015625 l 1,65,-1
 285.765625 52.359375 l 1,66,-1
 401.59375 69.03125 l 1,67,-1
 450.5625 207.34375 l 1,68,-1
 452.859375 213.828125 l 1,69,-1
 459.75 214 l 1,70,-1
 499.34375 215 l 1,71,-1
 555.953125 220.953125 l 1,72,-1
 570.234375 222.453125 l 1,73,-1
 566.6875 208.546875 l 1,74,-1
 539.5625 101.890625 l 1,75,-1
 656.71875 34.546875 l 1,76,-1
 740.21875 51.421875 l 1,77,-1
 770.125 238.578125 l 1,78,-1
 771.3125 246.03125 l 1,79,-1
 778.796875 246.9375 l 1,80,-1
 985.359375 271.875 l 1,81,-1
 1046.5625 284.765625 l 1,82,-1
 987.734375 373.828125 l 1,83,-1
 800.3125 368 l 1,84,-1
 788.625 367.640625 l 1,85,-1
 790.078125 379.234375 l 1,86,-1
 802.078125 475.25 l 1,87,-1
 803.15625 483.828125 l 1,88,-1
 811.796875 484 l 1,89,-1
 907.75 485.984375 l 1,90,-1
 966.140625 499.5625 l 1,91,-1
 887.21875 626.375 l 1,92,-1
 832.328125 630.015625 l 1,93,-1
 821.671875 630.734375 l 1,94,-1
 823.078125 641.3125 l 1,95,-1
 835.9375 738.125 l 1,96,-1
 829.09375 801.359375 l 1,97,-1
 714.90625 793.515625 l 1,98,-1
 677.703125 647.53125 l 1,99,-1
 675.65625 639.5625 l 1,100,-1
 667.453125 640.015625 l 1,101,-1
 559.453125 646.015625 l 1,102,-1
 548.171875 646.640625 l 1,103,-1
 550.15625 657.75 l 1,104,-1
 561.875 723.25 l 1,105,-1
 554.28125 782.421875 l 1,106,-1
 356.59375 769.46875 l 1,46,-1
621.796875 479 m 1,107,-1
 634.875 479.265625 l 1,108,-1
 631.703125 466.578125 l 1,109,-1
 607.6875 370.578125 l 1,110,-1
 605.859375 363.25 l 1,111,-1
 598.328125 363 l 1,112,-1
 509.328125 360.015625 l 1,113,-1
 497.015625 359.59375 l 1,114,-1
 499.140625 371.734375 l 1,115,-1
 516.15625 468.71875 l 1,116,-1
 517.5625 476.828125 l 1,117,-1
 525.796875 477 l 1,118,-1
 621.796875 479 l 1,107,-1
EndSplineSet
Validated: 524289
EndChar

StartChar: dollar
Encoding: 36 36 58
Width: 1094
VWidth: 0
Flags: W
LayerCount: 2
Fore
SplineSet
648 917 m 1,0,-1
 717 851 l 1,1,-1
 787.71875 780.296875 l 1,2,-1
 761.9375 670.171875 l 1,3,-1
 956 571 l 1,4,-1
 1026.703125 500.28125 l 1,5,-1
 1068.703125 282.296875 l 1,6,-1
 975.109375 171.875 l 1,7,-1
 988.71875 158.28125 l 1,8,-1
 1028.703125 93.296875 l 1,9,-1
 933.71875 -99.703125 l 1,10,-1
 574.71875 -124.703125 l 1,11,-1
 529.71875 -316.71875 l 1,12,-1
 371.703125 -248.71875 l 1,13,-1
 301 -178 l 1,14,-1
 299.40625 -119.390625 l 1,15,-1
 251 -71 l 1,16,-1
 11 327 l 1,17,-1
 81 382 l 1,18,-1
 260 364 l 1,19,-1
 285.5 338.5 l 1,20,-1
 217 575 l 1,21,-1
 525 791 l 1,22,-1
 587 760 l 1,23,-1
 648 917 l 1,0,-1
662.046875 138.25 m 1,24,-1
 638.71875 144.296875 l 1,25,-1
 644.6875 122.703125 l 1,26,-1
 662.046875 138.25 l 1,24,-1
376.96875 424.109375 m 1,27,-1
 448 403 l 1,28,-1
 477.1875 478.984375 l 1,29,-1
 434.703125 489.28125 l 1,30,-1
 375.703125 441.296875 l 1,31,-1
 376.96875 424.109375 l 1,27,-1
373.53125 213.8125 m 1,32,-1
 371.703125 214.28125 l 1,33,-1
 346.625 239.375 l 1,34,-1
 362.5 185.578125 l 1,35,-1
 373.53125 213.8125 l 1,32,-1
677.1875 311.8125 m 1,36,-1
 682.6875 306.3125 l 1,37,-1
 680.546875 326.046875 l 1,38,-1
 677.1875 311.8125 l 1,36,-1
651.90625 899.4375 m 1,39,-1
 596.3125 756.375 l 1,40,-1
 592.34375 746.140625 l 1,41,-1
 582.53125 751.046875 l 1,42,-1
 525.859375 779.390625 l 1,43,-1
 228.59375 570.921875 l 1,44,-1
 298.875 328.25 l 1,45,-1
 309.03125 293.21875 l 1,46,-1
 394.546875 270.671875 l 1,47,-1
 405.390625 267.8125 l 1,48,-1
 401.3125 257.359375 l 1,49,-1
 365.3125 165.359375 l 1,50,-1
 362 156.890625 l 1,51,-1
 353.265625 159.375 l 1,52,-1
 311.25 171.375 l 1,53,-1
 305.96875 172.890625 l 1,54,-1
 304.40625 178.171875 l 1,55,-1
 262.34375 320.71875 l 1,56,-1
 252.3125 354.71875 l 1,57,-1
 84 371.65625 l 1,58,-1
 24.125 324.59375 l 1,59,-1
 256.421875 -60.625 l 1,60,-1
 297.359375 -58.015625 l 1,61,-1
 307.71875 -57.34375 l 1,62,-1
 308 -67.71875 l 1,63,-1
 310.8125 -171.34375 l 1,64,-1
 451.984375 -232.09375 l 1,65,-1
 494.265625 -51.71875 l 1,66,-1
 495.953125 -44.53125 l 1,67,-1
 503.3125 -44.015625 l 1,68,-1
 856.5625 -19.421875 l 1,69,-1
 946.59375 163.46875 l 1,70,-1
 916.484375 212.375 l 1,71,-1
 910.546875 205.796875 l 1,72,-1
 879.4375 171.3125 l 1,73,-1
 875.46875 166.921875 l 1,74,-1
 869.71875 168.265625 l 1,75,-1
 669.71875 215.265625 l 1,76,-1
 663 216.84375 l 1,77,-1
 662.09375 223.6875 l 1,78,-1
 659.453125 243.6875 l 1,79,-1
 648.84375 323.96875 l 1,80,-1
 596.171875 345.765625 l 1,81,-1
 588.3125 349.015625 l 1,82,-1
 590.25 357.296875 l 1,83,-1
 623.265625 497.296875 l 1,84,-1
 625.546875 507 l 1,85,-1
 635.265625 504.734375 l 1,86,-1
 665.28125 497.734375 l 1,87,-1
 672.171875 496.125 l 1,88,-1
 672.9375 489.0625 l 1,89,-1
 698.1875 255.984375 l 1,90,-1
 866.40625 213.234375 l 1,91,-1
 879.90625 229.15625 l 1,92,-1
 987.265625 355.8125 l 1,93,-1
 947.09375 564.3125 l 1,94,-1
 679.4375 701.09375 l 1,95,-1
 672.46875 704.65625 l 1,96,-1
 674.25 712.28125 l 1,97,-1
 705.96875 847.71875 l 1,98,-1
 651.90625 899.4375 l 1,39,-1
498.359375 537.71875 m 1,99,-1
 509.421875 535.03125 l 1,100,-1
 505.34375 524.40625 l 1,101,-1
 457.328125 399.421875 l 1,102,-1
 454.015625 390.78125 l 1,103,-1
 445.15625 393.421875 l 1,104,-1
 307.15625 434.40625 l 1,105,-1
 300.53125 436.375 l 1,106,-1
 300.03125 443.265625 l 1,107,-1
 295.015625 511.265625 l 1,108,-1
 294.640625 516.46875 l 1,109,-1
 298.6875 519.75 l 1,110,-1
 357.6875 567.75 l 1,111,-1
 361.53125 570.875 l 1,112,-1
 366.34375 569.71875 l 1,113,-1
 498.359375 537.71875 l 1,99,-1
541.328125 107.359375 m 1,114,-1
 531.96875 109.953125 l 1,115,-1
 534.28125 119.375 l 1,116,-1
 558.296875 217.390625 l 1,117,-1
 560.703125 227.234375 l 1,118,-1
 570.515625 224.6875 l 1,119,-1
 678.515625 196.671875 l 1,120,-1
 684.375 195.15625 l 1,121,-1
 685.75 189.265625 l 1,122,-1
 692.734375 159.265625 l 1,123,-1
 694.078125 153.5 l 1,124,-1
 689.671875 149.546875 l 1,125,-1
 622.671875 89.5625 l 1,126,-1
 618.59375 85.90625 l 1,127,-1
 613.328125 87.375 l 1,128,-1
 541.328125 107.359375 l 1,114,-1
EndSplineSet
Validated: 524289
EndChar

StartChar: percent
Encoding: 37 37 59
Width: 909
VWidth: 0
Flags: W
LayerCount: 2
Fore
SplineSet
427 689 m 1,0,-1
 690 684 l 1,1,-1
 760.71875 613.28125 l 1,2,-1
 812.703125 546.28125 l 1,3,-1
 675.96875 307.65625 l 1,4,-1
 754.984375 271 l 1,5,-1
 825.703125 200.28125 l 1,6,-1
 833.71875 22.28125 l 1,7,-1
 804.71875 -64.71875 l 1,8,-1
 630.703125 -69.703125 l 1,9,-1
 560 1 l 1,10,-1
 533.890625 59.75 l 1,11,-1
 459.703125 -69.71875 l 1,12,-1
 287.71875 -60.71875 l 1,13,-1
 217 10 l 1,14,-1
 90 192 l 1,15,-1
 181.34375 326.703125 l 1,16,-1
 166.71875 330.296875 l 1,17,-1
 96 401 l 1,18,-1
 39 608 l 1,19,-1
 134 691 l 1,20,-1
 260 675 l 1,21,-1
 330.703125 604.28125 l 1,22,-1
 341.09375 562.328125 l 1,23,-1
 427 689 l 1,0,-1
634.078125 316.078125 m 1,24,-1
 519.203125 117.40625 l 1,25,-1
 566.40625 11.1875 l 1,26,-1
 726.734375 15.796875 l 1,27,-1
 752.921875 94.40625 l 1,28,-1
 745.28125 264.484375 l 1,29,-1
 634.078125 316.078125 l 1,24,-1
137.1875 680.515625 m 1,30,-1
 50.3125 604.609375 l 1,31,-1
 104.078125 409.3125 l 1,32,-1
 144.984375 399.28125 l 1,33,-1
 275.15625 572.203125 l 1,34,-1
 251.9375 665.9375 l 1,35,-1
 137.1875 680.515625 l 1,30,-1
432.21875 678.890625 m 1,36,-1
 102.140625 192.078125 l 1,37,-1
 222.40625 19.734375 l 1,38,-1
 383.375 11.296875 l 1,39,-1
 729.984375 616.15625 l 1,40,-1
 685.03125 674.09375 l 1,41,-1
 432.21875 678.890625 l 1,36,-1
EndSplineSet
Validated: 524289
EndChar

StartChar: asciicircum
Encoding: 94 94 60
Width: 897
VWidth: 0
Flags: W
LayerCount: 2
Fore
SplineSet
13 524 m 1,0,-1
 391.984375 838 l 1,1,-1
 781 514 l 1,2,-1
 851.703125 443.296875 l 1,3,-1
 606.71875 443.296875 l 1,4,-1
 536.015625 514 l 1,5,-1
 456.6875 670.265625 l 1,6,-1
 356.71875 439.296875 l 1,7,-1
 154.421875 382.578125 l 1,8,-1
 83.71875 453.28125 l 1,9,-1
 13 524 l 1,0,-1
39.140625 532.671875 m 1,10,-1
 279.578125 520.34375 l 1,11,-1
 392.828125 781.984375 l 1,12,-1
 401.28125 801.515625 l 1,13,-1
 410.921875 782.53125 l 1,14,-1
 542.140625 524 l 1,15,-1
 753.375 524 l 1,16,-1
 391.96875 825 l 1,17,-1
 39.140625 532.671875 l 1,10,-1
EndSplineSet
Validated: 524289
EndChar

StartChar: underscore
Encoding: 95 95 61
Width: 1053
VWidth: 0
Flags: W
LayerCount: 2
Fore
SplineSet
65 -63.015625 m 1,0,-1
 97 -37 l 1,1,-1
 804 -32.984375 l 1,2,-1
 845 -55 l 1,3,-1
 915.703125 -125.703125 l 1,4,-1
 860.71875 -316.703125 l 1,5,-1
 171.703125 -299.71875 l 1,6,-1
 101 -229 l 1,7,-1
 65 -63.015625 l 1,0,-1
76.078125 -66.890625 m 1,8,-1
 109.09375 -219.203125 l 1,9,-1
 782.53125 -235.8125 l 1,10,-1
 833.15625 -59.984375 l 1,11,-1
 801.515625 -43 l 1,12,-1
 100.578125 -46.984375 l 1,13,-1
 76.078125 -66.890625 l 1,8,-1
EndSplineSet
Validated: 524289
EndChar

StartChar: grave
Encoding: 96 96 62
Width: 661
VWidth: 0
Flags: W
LayerCount: 2
Fore
SplineSet
228.015625 838 m 1,0,-1
 366 827 l 1,1,-1
 436.71875 756.28125 l 1,2,-1
 591.703125 394.28125 l 1,3,-1
 507.71875 347.28125 l 1,4,-1
 421.71875 361.296875 l 1,5,-1
 351 432.015625 l 1,6,-1
 297.96875 523.921875 l 1,7,-1
 153.703125 552.296875 l 1,8,-1
 83 623 l 1,9,-1
 40 768 l 1,10,-1
 228.015625 838 l 1,0,-1
229.421875 827.859375 m 1,11,-1
 52.234375 761.890625 l 1,12,-1
 90.859375 631.65625 l 1,13,-1
 262.9375 597.8125 l 1,14,-1
 267.390625 596.921875 l 1,15,-1
 269.65625 592.984375 l 1,16,-1
 357.296875 441.109375 l 1,17,-1
 435.171875 428.4375 l 1,18,-1
 508.265625 469.328125 l 1,19,-1
 359.1875 817.5 l 1,20,-1
 229.421875 827.859375 l 1,11,-1
EndSplineSet
Validated: 524289
EndChar

StartChar: ampersand
Encoding: 38 38 63
Width: 1061
VWidth: 0
Flags: W
LayerCount: 2
Fore
SplineSet
73 760 m 1,0,-1
 374 580 l 1,1,-1
 444.71875 509.28125 l 1,2,-1
 465.484375 453.59375 l 1,3,-1
 509 567 l 1,4,-1
 853 756 l 1,5,-1
 923.71875 685.28125 l 1,6,-1
 1044.71875 488.296875 l 1,7,-1
 720.703125 355.28125 l 1,8,-1
 650 426 l 1,9,-1
 701 371 l 1,10,-1
 771.703125 300.28125 l 1,11,-1
 892.71875 93.28125 l 1,12,-1
 661.703125 -166.71875 l 1,13,-1
 335.703125 -142.71875 l 1,14,-1
 265 -72 l 1,15,-1
 163 172 l 1,16,-1
 189.734375 182.265625 l 1,17,-1
 171 201 l 1,18,-1
 232.1875 410.6875 l 1,19,-1
 85.703125 500.28125 l 1,20,-1
 15 571 l 1,21,-1
 73 760 l 1,0,-1
465.59375 221.40625 m 1,22,-1
 440.71875 211.28125 l 1,23,-1
 462.71875 189.28125 l 1,24,-1
 472.71875 167.28125 l 1,25,-1
 435.59375 34.609375 l 1,26,-1
 478 16 l 1,27,-1
 566 184 l 1,28,-1
 525.671875 233.25 l 1,29,-1
 489.71875 197.28125 l 1,30,-1
 465.59375 221.40625 l 1,22,-1
78.8125 744.859375 m 1,31,-1
 26.828125 575.484375 l 1,32,-1
 244.203125 442.53125 l 1,33,-1
 250.734375 438.53125 l 1,34,-1
 248.59375 431.203125 l 1,35,-1
 186.390625 218.0625 l 1,36,-1
 398.234375 304.265625 l 1,37,-1
 406 307.4375 l 1,38,-1
 410.46875 300.328125 l 1,39,-1
 420.796875 283.921875 l 1,40,-1
 454.9375 318.0625 l 1,41,-1
 462.75 325.875 l 1,42,-1
 469.75 317.328125 l 1,43,-1
 573.734375 190.34375 l 1,44,-1
 577.921875 185.21875 l 1,45,-1
 574.859375 179.359375 l 1,46,-1
 486.859375 11.359375 l 1,47,-1
 482.53125 3.09375 l 1,48,-1
 473.984375 6.84375 l 1,49,-1
 350.984375 60.84375 l 1,50,-1
 343.03125 64.328125 l 1,51,-1
 345.375 72.6875 l 1,52,-1
 391.390625 237.171875 l 1,53,-1
 386.796875 247.28125 l 1,54,-1
 176.203125 166.34375 l 1,55,-1
 271.859375 -62.484375 l 1,56,-1
 586.796875 -85.671875 l 1,57,-1
 809.703125 165.21875 l 1,58,-1
 692.921875 365 l 1,59,-1
 642.65625 419.203125 l 1,60,-1
 632.859375 429.78125 l 1,61,-1
 646.203125 435.25 l 1,62,-1
 959.328125 563.78125 l 1,63,-1
 849.46875 742.640625 l 1,64,-1
 517.015625 560 l 1,65,-1
 452.34375 391.421875 l 1,66,-1
 442.875 366.75 l 1,67,-1
 433.625 391.515625 l 1,68,-1
 365.859375 573.21875 l 1,69,-1
 78.8125 744.859375 l 1,31,-1
EndSplineSet
Validated: 524289
EndChar

StartChar: quotesingle
Encoding: 39 39 64
Width: 553
VWidth: 0
Flags: W
LayerCount: 2
Fore
SplineSet
36 811 m 1,0,-1
 91 967 l 1,1,-1
 298 918 l 1,2,-1
 368.71875 847.296875 l 1,3,-1
 493.71875 699.28125 l 1,4,-1
 446.71875 529.296875 l 1,5,-1
 225.71875 351.28125 l 1,6,-1
 114.71875 453.28125 l 1,7,-1
 44 524 l 1,8,-1
 130 717.015625 l 1,9,-1
 106.71875 740.28125 l 1,10,-1
 36 811 l 1,0,-1
47.890625 814.609375 m 1,11,-1
 143.984375 743.03125 l 1,12,-1
 150.390625 738.25 l 1,13,-1
 147.140625 730.9375 l 1,14,-1
 56.0625 526.5 l 1,15,-1
 155.4375 435.1875 l 1,16,-1
 367.21875 605.765625 l 1,17,-1
 411.953125 767.578125 l 1,18,-1
 292.484375 909.03125 l 1,19,-1
 97.453125 955.203125 l 1,20,-1
 47.890625 814.609375 l 1,11,-1
EndSplineSet
Validated: 524289
EndChar

StartChar: parenleft
Encoding: 40 40 65
Width: 595
VWidth: 0
Flags: W
LayerCount: 2
Fore
SplineSet
91 511 m 1,0,-1
 162 689 l 1,1,-1
 404 805 l 1,2,-1
 447 808 l 1,3,-1
 517.71875 737.296875 l 1,4,-1
 532.703125 571.28125 l 1,5,-1
 349.71875 500.28125 l 1,6,-1
 242.703125 311.296875 l 1,7,-1
 257.703125 112.28125 l 1,8,-1
 342.03125 -6.453125 l 1,9,-1
 379 -23 l 1,10,-1
 449.703125 -93.703125 l 1,11,-1
 401.703125 -231.703125 l 1,12,-1
 206.703125 -167.703125 l 1,13,-1
 136 -97 l 1,14,-1
 52 296 l 1,15,-1
 91 511 l 1,0,-1
100.65625 508.21875 m 1,16,-1
 62.203125 296.15625 l 1,17,-1
 144.578125 -89.28125 l 1,18,-1
 324.78125 -148.4375 l 1,19,-1
 366.53125 -28.375 l 1,20,-1
 307.921875 -2.140625 l 1,21,-1
 305.421875 -1.015625 l 1,22,-1
 303.84375 1.203125 l 1,23,-1
 178.84375 177.203125 l 1,24,-1
 177.234375 179.46875 l 1,25,-1
 177.03125 182.25 l 1,26,-1
 162.015625 381.25 l 1,27,-1
 161.796875 384.28125 l 1,28,-1
 163.296875 386.9375 l 1,29,-1
 270.3125 575.921875 l 1,30,-1
 272.0625 579.03125 l 1,31,-1
 275.390625 580.328125 l 1,32,-1
 451.359375 648.59375 l 1,33,-1
 437.921875 797.34375 l 1,34,-1
 406.609375 795.15625 l 1,35,-1
 169.84375 681.671875 l 1,36,-1
 100.65625 508.21875 l 1,16,-1
EndSplineSet
Validated: 524289
EndChar

StartChar: parenright
Encoding: 41 41 66
Width: 653
VWidth: 0
Flags: W
LayerCount: 2
Fore
SplineSet
62 879 m 1,0,-1
 374 799 l 1,1,-1
 444.71875 728.28125 l 1,2,3
 561.703125 466.296875 561.703125 466.296875 563.703125 464.296875 c 2,4,-1
 616.703125 130.28125 l 1,5,-1
 540.71875 -74.703125 l 1,6,-1
 337.703125 -222.71875 l 1,7,-1
 98.703125 -215.71875 l 1,8,-1
 28 -145 l 1,9,-1
 62 53 l 1,10,-1
 261 72 l 1,11,-1
 355 136.984375 l 1,12,13
 370 445 370 445 370 449 c 0,14,15
 370 451 370 451 319 509.5 c 0,16,17
 272.265625 563.109375 272.265625 563.109375 225.09375 616.296875 c 1,18,-1
 126.71875 644.296875 l 1,19,-1
 56 715 l 1,20,-1
 62 879 l 1,0,-1
71.546875 866.234375 m 1,21,-1
 66.28125 722.484375 l 1,22,-1
 167.734375 693.609375 l 1,23,-1
 170.546875 692.8125 l 1,24,-1
 172.46875 690.625 l 1,25,-1
 223.96875 632.640625 l 2,26,27
 275.515625 574.59375 275.515625 574.59375 326.546875 516.078125 c 0,28,29
 334.8125 506.59375 334.8125 506.59375 344.71875 495.78125 c 128,-1,30
 354.625 484.96875 354.625 484.96875 360.015625 479.09375 c 128,-1,31
 365.40625 473.21875 365.40625 473.21875 370.5625 467.015625 c 128,-1,32
 375.71875 460.8125 375.71875 460.8125 377.859375 456.671875 c 128,-1,33
 379.984375 452.515625 379.984375 452.515625 380 449.0625 c 0,34,35
 380 444.75 380 444.75 364.984375 136.5 c 2,36,-1
 364.75 131.578125 l 1,37,-1
 360.6875 128.765625 l 1,38,-1
 266.6875 63.78125 l 1,39,-1
 264.546875 62.296875 l 1,40,-1
 261.953125 62.046875 l 1,41,-1
 70.5625 43.765625 l 1,42,-1
 39.796875 -135.34375 l 1,43,-1
 263.875 -141.90625 l 1,44,-1
 461.671875 2.296875 l 1,45,-1
 535.703125 202.015625 l 1,46,-1
 483.390625 531.71875 l 1,47,48
 474.765625 548.84375 474.765625 548.84375 366.84375 790.515625 c 1,49,-1
 71.546875 866.234375 l 1,21,-1
EndSplineSet
Validated: 524289
EndChar

StartChar: asterisk
Encoding: 42 42 67
Width: 872
VWidth: 0
Flags: W
LayerCount: 2
Fore
SplineSet
333 336.015625 m 1,0,-1
 284 520 l 1,1,-1
 544 532 l 1,2,-1
 614.703125 461.28125 l 1,3,-1
 609.421875 436.015625 l 1,4,-1
 636.015625 461 l 1,5,-1
 706.71875 390.296875 l 1,6,-1
 812.703125 265.296875 l 1,7,-1
 777.875 251.125 l 1,8,-1
 843.71875 185.28125 l 1,9,-1
 837.71875 5.296875 l 1,10,-1
 634.71875 50.296875 l 1,11,-1
 755.71875 -105.71875 l 1,12,-1
 593.703125 -172.71875 l 1,13,-1
 523 -102 l 1,14,-1
 513.375 -80.5625 l 1,15,-1
 509.703125 -209.71875 l 1,16,-1
 282.703125 -199.71875 l 1,17,-1
 212 -129 l 1,18,-1
 230.859375 -82.6875 l 1,19,-1
 196.71875 -107.71875 l 1,20,-1
 126.015625 -37 l 1,21,-1
 15 129 l 1,22,-1
 216.359375 187.515625 l 1,23,-1
 108.71875 251.28125 l 1,24,-1
 38 322 l 1,25,-1
 159 501.984375 l 1,26,-1
 333 336.015625 l 1,0,-1
342.671875 338.578125 m 1,27,-1
 351.8125 304.25 l 1,28,-1
 326.09375 328.765625 l 1,29,-1
 160.6875 486.5625 l 1,30,-1
 52.21875 325.203125 l 1,31,-1
 254.09375 205.609375 l 1,32,-1
 273.953125 193.84375 l 1,33,-1
 251.796875 187.40625 l 1,34,-1
 30.90625 123.21875 l 1,35,-1
 128.515625 -22.765625 l 1,36,-1
 296.09375 100.0625 l 1,37,-1
 324.59375 120.9375 l 1,38,-1
 311.265625 88.21875 l 1,39,-1
 226.609375 -119.640625 l 1,40,-1
 429.28125 -128.5625 l 1,41,-1
 435 72.28125 l 1,42,-1
 436.25 115.984375 l 1,43,-1
 454.125 76.09375 l 1,44,-1
 528.140625 -89.046875 l 1,45,-1
 669.078125 -30.765625 l 1,46,-1
 556.109375 114.875 l 1,47,-1
 539.125 136.765625 l 1,48,-1
 566.171875 130.765625 l 1,49,-1
 757.40625 88.375 l 1,50,-1
 762.671875 246.484375 l 1,51,-1
 569.515625 256 l 1,52,-1
 524.40625 258.234375 l 1,53,-1
 566.234375 275.25 l 1,54,-1
 725.4375 340.0625 l 1,55,-1
 635.1875 446.5 l 1,56,-1
 509.859375 328.71875 l 1,57,-1
 486.71875 306.96875 l 1,58,-1
 493.21875 338.046875 l 1,59,-1
 531.5625 521.40625 l 1,60,-1
 296.859375 510.578125 l 1,61,-1
 342.671875 338.578125 l 1,27,-1
EndSplineSet
Validated: 524289
EndChar

StartChar: plus
Encoding: 43 43 68
Width: 801
VWidth: 0
Flags: W
LayerCount: 2
Fore
SplineSet
263 336 m 1,0,-1
 259 510 l 1,1,-1
 472 512 l 1,2,-1
 543 441 l 1,3,4
 544 351 544 351 545 299 c 1,5,6
 566 299 566 299 588 299 c 0,7,8
 699 299 699 299 701 297 c 2,9,-1
 772 226 l 1,10,-1
 781 9 l 1,11,-1
 561 17 l 1,12,-1
 559 -155 l 1,13,-1
 322 -153 l 1,14,-1
 251 -82 l 1,15,-1
 257 17 l 1,16,-1
 103 29 l 1,17,-1
 32 100 l 1,18,-1
 22 336 l 1,19,-1
 263 336 l 1,0,-1
469 294 m 1,20,-1
 466 301 l 2,21,22
 466 306 466 306 462 502 c 1,23,-1
 269 500 l 1,24,-1
 273 326 l 1,25,-1
 32 326 l 1,26,-1
 42 109 l 1,27,-1
 272 91 l 1,28,-1
 262 -72 l 1,29,-1
 478 -74 l 1,30,-1
 480 98 l 1,31,-1
 700 90 l 1,32,-1
 691 288 l 1,33,34
 668 288 668 288 588 289 c 0,35,36
 568 289 568 289 530 289 c 0,37,38
 511.419354839 288.483870968 511.419354839 288.483870968 499.766909469 288.483870968 c 0,39,40
 488.842741935 288.483870968 488.842741935 288.483870968 484.0078125 288.9375 c 0,41,42
 473.032786885 289.967213115 473.032786885 289.967213115 469 294 c 1,20,-1
EndSplineSet
Validated: 524289
EndChar

StartChar: comma
Encoding: 44 44 69
Width: 530
VWidth: 0
Flags: W
LayerCount: 2
Fore
SplineSet
149.4375 -1.0625 m 1,0,-1
 120.703125 5.296875 l 1,1,-1
 50 76 l 1,2,-1
 13 203 l 1,3,-1
 134 305 l 1,4,-1
 353 299 l 1,5,-1
 423.71875 228.28125 l 1,6,-1
 470.71875 52.28125 l 1,7,-1
 200.703125 -205.703125 l 1,8,-1
 143.703125 -179.703125 l 1,9,-1
 73 -109 l 1,10,-1
 149.4375 -1.0625 l 1,0,-1
132.421875 68.03125 m 1,11,-1
 183.515625 125.640625 l 1,12,-1
 195.390625 139.03125 l 1,13,-1
 200.5625 121.890625 l 1,14,-1
 213.578125 78.890625 l 1,15,-1
 214.984375 74.203125 l 1,16,-1
 212.15625 70.21875 l 1,17,-1
 88.140625 -104.90625 l 1,18,-1
 127.984375 -123.078125 l 1,19,-1
 388.8125 126.125 l 1,20,-1
 345.265625 289.203125 l 1,21,-1
 137.53125 294.90625 l 1,22,-1
 24.421875 199.546875 l 1,23,-1
 57.9375 84.484375 l 1,24,-1
 132.421875 68.03125 l 1,11,-1
EndSplineSet
Validated: 524289
EndChar

StartChar: hyphen
Encoding: 45 45 70
Width: 686
VWidth: 0
Flags: W
LayerCount: 2
Fore
SplineSet
15 231 m 1,0,-1
 546 242 l 1,1,-1
 616.71875 171.28125 l 1,2,-1
 651.703125 130.28125 l 1,3,-1
 640.703125 -27.703125 l 1,4,-1
 128.71875 -19.71875 l 1,5,-1
 96.71875 3.296875 l 1,6,-1
 26 74 l 1,7,-1
 15 231 l 1,0,-1
25.71875 221.21875 m 1,8,-1
 35.65625 79.390625 l 1,9,-1
 61.296875 60.953125 l 1,10,-1
 560.671875 53.140625 l 1,11,-1
 570.734375 197.609375 l 1,12,-1
 541.484375 231.90625 l 1,13,-1
 25.71875 221.21875 l 1,8,-1
EndSplineSet
Validated: 524289
EndChar

StartChar: period
Encoding: 46 46 71
Width: 409
VWidth: 0
Flags: W
LayerCount: 2
Fore
SplineSet
54 176 m 1,0,-1
 169 189.984375 l 1,1,-1
 318 125 l 1,2,-1
 388.703125 54.296875 l 1,3,-1
 378.71875 -95.71875 l 1,4,-1
 284.703125 -152.703125 l 1,5,-1
 171.71875 -140.71875 l 1,6,-1
 101 -70 l 1,7,-1
 5 35 l 1,8,-1
 54 176 l 1,0,-1
61.40625 166.828125 m 1,9,-1
 16.390625 37.34375 l 1,10,-1
 105.828125 -60.453125 l 1,11,-1
 211.703125 -71.6875 l 1,12,-1
 298.375 -19.15625 l 1,13,-1
 307.546875 118.65625 l 1,14,-1
 167.5 179.734375 l 1,15,-1
 61.40625 166.828125 l 1,9,-1
EndSplineSet
Validated: 524289
EndChar

StartChar: slash
Encoding: 47 47 72
Width: 930
VWidth: 0
Flags: W
LayerCount: 2
Fore
SplineSet
452 760 m 1,0,-1
 828 752 l 1,1,-1
 898.71875 681.296875 l 1,2,-1
 915.71875 586.296875 l 1,3,-1
 534.703125 19.296875 l 1,4,-1
 458.703125 -21.703125 l 1,5,-1
 132.71875 -11.71875 l 1,6,-1
 89.703125 17.296875 l 1,7,-1
 19 88 l 1,8,-1
 452 760 l 1,0,-1
457.390625 749.875 m 1,9,-1
 32.703125 90.8125 l 1,10,-1
 65.203125 68.90625 l 1,11,-1
 385.609375 59.078125 l 1,12,-1
 457.078125 97.625 l 1,13,-1
 834.453125 659.21875 l 1,14,-1
 819.59375 742.1875 l 1,15,-1
 457.390625 749.875 l 1,9,-1
EndSplineSet
Validated: 524289
EndChar

StartChar: zero
Encoding: 48 48 73
Width: 987
VWidth: 0
Flags: W
LayerCount: 2
Fore
SplineSet
398 786 m 1,0,-1
 710 764 l 1,1,-1
 780.71875 693.296875 l 1,2,-1
 950.71875 343.28125 l 1,3,-1
 900.703125 33.28125 l 1,4,-1
 614.71875 -152.71875 l 1,5,-1
 284.703125 -127.703125 l 1,6,-1
 214 -57 l 1,7,-1
 133 91 l 1,8,-1
 135.0625 92.921875 l 1,9,-1
 126 102 l 1,10,-1
 34 299 l 1,11,-1
 58 575 l 1,12,-1
 210 733 l 1,13,-1
 398 786 l 1,0,-1
613.84375 454.46875 m 1,14,-1
 568.71875 442.296875 l 1,15,-1
 560.21875 367.125 l 1,16,-1
 625 407 l 1,17,-1
 613.84375 454.46875 l 1,14,-1
523.546875 359.453125 m 1,18,-1
 485 398 l 1,19,-1
 463 419 l 1,20,-1
 522.53125 359.484375 l 1,21,-1
 523.546875 359.453125 l 1,18,-1
399.03125 775.90625 m 1,22,-1
 215.328125 724.109375 l 1,23,-1
 67.65625 570.609375 l 1,24,-1
 44.203125 300.796875 l 1,25,-1
 129.21875 118.75 l 1,26,-1
 313.171875 291.796875 l 1,27,-1
 456.15625 426.28125 l 1,28,-1
 463.046875 432.78125 l 1,29,-1
 469.90625 426.234375 l 1,30,-1
 477.328125 419.15625 l 1,31,-1
 488.0625 514.125 l 1,32,-1
 488.828125 520.890625 l 1,33,-1
 495.390625 522.65625 l 1,34,-1
 558.390625 539.65625 l 1,35,-1
 563.515625 541.03125 l 1,36,-1
 567.53125 537.5625 l 1,37,-1
 611.546875 499.578125 l 1,38,-1
 614 497.453125 l 1,39,-1
 614.734375 494.296875 l 1,40,-1
 634.734375 409.28125 l 1,41,-1
 636.390625 402.265625 l 1,42,-1
 630.25 398.484375 l 1,43,-1
 552.25 350.484375 l 1,44,-1
 549.75 348.9375 l 1,45,-1
 546.8125 349 l 1,46,-1
 495.8125 350 l 1,47,-1
 490.03125 350.109375 l 1,48,-1
 487.25 355.15625 l 1,49,-1
 472.015625 382.765625 l 1,50,-1
 466.015625 388.328125 l 1,51,-1
 321.328125 253.203125 l 1,52,-1
 145.5 88.984375 l 1,53,-1
 220.171875 -47.4375 l 1,54,-1
 541.390625 -71.78125 l 1,55,-1
 820.828125 109.96875 l 1,56,-1
 869.625 412.46875 l 1,57,-1
 703.53125 754.4375 l 1,58,-1
 399.03125 775.90625 l 1,22,-1
EndSplineSet
Validated: 524289
EndChar

StartChar: one
Encoding: 49 49 74
Width: 891
VWidth: 0
Flags: W
LayerCount: 2
Fore
SplineSet
-9 545 m 1,0,-1
 219 799 l 1,1,-1
 768 823 l 1,2,-1
 838.703125 752.28125 l 1,3,-1
 793.515625 124.484375 l 1,4,-1
 863.703125 54.296875 l 1,5,-1
 861.71875 -133.703125 l 1,6,-1
 173.71875 -76.703125 l 1,7,-1
 103 -6 l 1,8,-1
 126 156 l 1,9,-1
 241 160 l 1,10,-1
 283.921875 412.046875 l 1,11,-1
 178.703125 357.296875 l 1,12,-1
 59.703125 373.28125 l 1,13,-1
 -11 444 l 1,14,-1
 -9 545 l 1,0,-1
0.9375 541.09375 m 1,15,-1
 -0.828125 452.71875 l 1,16,-1
 106.1875 438.34375 l 1,17,-1
 299.390625 538.875 l 1,18,-1
 317.234375 548.171875 l 1,19,-1
 313.859375 528.328125 l 1,20,-1
 250.859375 158.3125 l 1,21,-1
 249.5 150.28125 l 1,22,-1
 241.34375 150 l 1,23,-1
 134.71875 146.296875 l 1,24,-1
 114.390625 3.09375 l 1,25,-1
 781.125 -52.140625 l 1,26,-1
 782.953125 120.359375 l 1,27,-1
 715.609375 176.3125 l 1,28,-1
 711.65625 179.59375 l 1,29,-1
 712.03125 184.71875 l 1,30,-1
 757.21875 812.515625 l 1,31,-1
 223.625 789.1875 l 1,32,-1
 0.9375 541.09375 l 1,15,-1
EndSplineSet
Validated: 524289
EndChar

StartChar: two
Encoding: 50 50 75
Width: 870
VWidth: 0
Flags: W
LayerCount: 2
Fore
SplineSet
104 240 m 1,0,-1
 -5 598 l 1,1,-1
 196 825 l 1,2,-1
 505 850 l 1,3,-1
 739 768 l 1,4,-1
 809.71875 697.28125 l 1,5,-1
 837.71875 406.28125 l 1,6,-1
 809.328125 388.65625 l 1,7,-1
 852.703125 345.28125 l 1,8,-1
 904.703125 234.28125 l 1,9,-1
 811.71875 -97.71875 l 1,10,-1
 439.71875 -115.71875 l 1,11,-1
 106.71875 -107.71875 l 1,12,-1
 36 -37 l 1,13,-1
 27 111 l 1,14,-1
 142.71875 201.28125 l 1,15,-1
 104 240 l 1,0,-1
551.890625 520.546875 m 1,16,-1
 465.71875 474.296875 l 1,17,-1
 468.890625 455.78125 l 1,18,-1
 551.890625 520.546875 l 1,16,-1
109.640625 255.8125 m 1,19,-1
 401.046875 450.71875 l 1,20,-1
 385.15625 543.3125 l 1,21,-1
 383.9375 550.40625 l 1,22,-1
 390.28125 553.8125 l 1,23,-1
 526.28125 626.8125 l 1,24,-1
 536.34375 632.21875 l 1,25,-1
 540.375 621.515625 l 1,26,-1
 573.375 533.515625 l 1,27,-1
 575.953125 526.625 l 1,28,-1
 570.15625 522.109375 l 1,29,-1
 37.296875 106.34375 l 1,30,-1
 45.4375 -27.21875 l 1,31,-1
 368.890625 -35 l 1,32,-1
 733.3125 -17.359375 l 1,33,-1
 823.375 304.109375 l 1,34,-1
 777.3125 402.421875 l 1,35,-1
 539.703125 282.1875 l 1,36,-1
 524.75 216.78125 l 1,37,-1
 523.21875 210.09375 l 1,38,-1
 516.4375 209.109375 l 1,39,-1
 392.4375 191.109375 l 1,40,-1
 384.21875 189.921875 l 1,41,-1
 381.53125 197.765625 l 1,42,-1
 369.53125 232.765625 l 1,43,-1
 366.953125 240.296875 l 1,44,-1
 373.71875 244.5 l 1,45,-1
 756.453125 482.21875 l 1,46,-1
 729.65625 760.671875 l 1,47,-1
 503.6875 839.859375 l 1,48,-1
 200.8125 815.34375 l 1,49,-1
 6.1875 595.5625 l 1,50,-1
 109.640625 255.8125 l 1,19,-1
EndSplineSet
Validated: 524289
EndChar

StartChar: three
Encoding: 51 51 76
Width: 862
VWidth: 0
Flags: W
LayerCount: 2
Fore
SplineSet
28 647 m 1,0,-1
 93 786 l 1,1,-1
 462 838 l 1,2,-1
 738.015625 610 l 1,3,-1
 808.71875 539.296875 l 1,4,-1
 831.71875 406.296875 l 1,5,-1
 729.78125 321.9375 l 1,6,-1
 734 319 l 1,7,-1
 804.703125 248.28125 l 1,8,-1
 855.703125 27.296875 l 1,9,-1
 782.703125 -133.703125 l 1,10,-1
 309.71875 -138.703125 l 1,11,-1
 85.71875 19.296875 l 1,12,-1
 15 90 l 1,13,-1
 15 401 l 1,14,-1
 140 406 l 1,15,-1
 455 281.015625 l 1,16,-1
 469.40625 300.90625 l 1,17,-1
 353.71875 339.296875 l 1,18,-1
 310.0625 382.9375 l 1,19,-1
 252.71875 373.296875 l 1,20,-1
 182 444 l 1,21,-1
 28 647 l 1,0,-1
493.75 479.84375 m 1,22,-1
 448.703125 474.296875 l 1,23,-1
 450.359375 465.203125 l 1,24,-1
 495.984375 475 l 1,25,-1
 493.75 479.84375 l 1,22,-1
39.609375 648.234375 m 1,26,-1
 186.3125 454.875 l 1,27,-1
 378.34375 487.171875 l 1,28,-1
 368.15625 543.21875 l 1,29,-1
 366.265625 553.625 l 1,30,-1
 376.765625 554.921875 l 1,31,-1
 457.78125 564.921875 l 1,32,-1
 465.015625 565.8125 l 1,33,-1
 468.078125 559.1875 l 1,34,-1
 505.0625 479.203125 l 1,35,-1
 510.3125 467.84375 l 1,36,-1
 498.09375 465.21875 l 1,37,-1
 290.015625 420.578125 l 1,38,-1
 290.90625 417.921875 l 1,39,-1
 500.140625 348.5 l 1,40,-1
 513.109375 344.1875 l 1,41,-1
 505.09375 333.140625 l 1,42,-1
 463.09375 275.140625 l 1,43,-1
 458.546875 268.84375 l 1,44,-1
 451.3125 271.71875 l 1,45,-1
 138.28125 395.921875 l 1,46,-1
 25 391.390625 l 1,47,-1
 25 95.1875 l 1,48,-1
 242.125 -57.953125 l 1,49,-1
 705.515625 -53.0625 l 1,50,-1
 774.5 99.046875 l 1,51,-1
 725.125 312.984375 l 1,52,-1
 639.28125 372.796875 l 1,53,-1
 628.484375 380.3125 l 1,54,-1
 638.609375 388.703125 l 1,55,-1
 750.15625 481.015625 l 1,56,-1
 728.78125 604.65625 l 1,57,-1
 459.03125 827.484375 l 1,58,-1
 99.75 776.859375 l 1,59,-1
 39.609375 648.234375 l 1,26,-1
EndSplineSet
Validated: 524289
EndChar

StartChar: four
Encoding: 52 52 77
Width: 866
VWidth: 0
Flags: W
LayerCount: 2
Fore
SplineSet
95 647 m 1,0,-1
 593 854 l 1,1,-1
 677 840.015625 l 1,2,-1
 747.703125 769.296875 l 1,3,-1
 708.703125 697.28125 l 1,4,-1
 633.375 604.1875 l 1,5,-1
 724 598 l 1,6,-1
 794.71875 527.296875 l 1,7,-1
 792.484375 444.21875 l 1,8,-1
 826 442 l 1,9,-1
 896.71875 371.28125 l 1,10,-1
 880.71875 205.296875 l 1,11,-1
 788.71875 193.28125 l 1,12,-1
 806.703125 -101.703125 l 1,13,-1
 720.703125 -138.71875 l 1,14,-1
 406.71875 -121.71875 l 1,15,-1
 336.015625 -51 l 1,16,-1
 362.046875 158.109375 l 1,17,-1
 152.71875 134.28125 l 1,18,-1
 82 205 l 1,19,-1
 22.015625 373 l 1,20,-1
 95 647 l 1,0,-1
103.390625 639.65625 m 1,21,-1
 32.46875 373.4375 l 1,22,-1
 88.75 215.828125 l 1,23,-1
 370.859375 247.9375 l 1,24,-1
 383.484375 249.375 l 1,25,-1
 381.921875 236.765625 l 1,26,-1
 347.25 -41.59375 l 1,27,-1
 648.203125 -57.890625 l 1,28,-1
 725.59375 -24.578125 l 1,29,-1
 708.015625 263.390625 l 1,30,-1
 707.453125 272.703125 l 1,31,-1
 716.703125 273.90625 l 1,32,-1
 800.8125 284.890625 l 1,33,-1
 815.0625 432.703125 l 1,34,-1
 719.34375 439.03125 l 1,35,-1
 709.75 439.65625 l 1,36,-1
 710 449.265625 l 1,37,-1
 713.75 588.671875 l 1,38,-1
 553.96875 599.5625 l 1,39,-1
 449.953125 390.546875 l 1,40,-1
 447.578125 385.75 l 1,41,-1
 442.265625 385.078125 l 1,42,-1
 379.265625 377.078125 l 1,43,-1
 369.4375 375.828125 l 1,44,-1
 368.09375 385.640625 l 1,45,-1
 361.09375 436.640625 l 1,46,-1
 360.5 440.921875 l 1,47,-1
 363.21875 444.28125 l 1,48,-1
 629.640625 773.5625 l 1,49,-1
 661.53125 832.453125 l 1,50,-1
 594.1875 843.671875 l 1,51,-1
 103.390625 639.65625 l 1,21,-1
EndSplineSet
Validated: 524289
EndChar

StartChar: five
Encoding: 53 53 78
Width: 860
VWidth: 0
Flags: W
LayerCount: 2
Fore
SplineSet
90 801.984375 m 1,0,-1
 97 828 l 1,1,-1
 607 817 l 1,2,-1
 677.703125 746.296875 l 1,3,-1
 861.703125 523.296875 l 1,4,-1
 819.71875 404.28125 l 1,5,-1
 621.71875 511.296875 l 1,6,-1
 501.71875 497.296875 l 1,7,-1
 480.75 450.34375 l 1,8,-1
 515 444 l 1,9,-1
 543 477 l 1,10,-1
 748 367 l 1,11,-1
 818.703125 296.28125 l 1,12,-1
 789.703125 20.28125 l 1,13,-1
 548.703125 -123.71875 l 1,14,-1
 141.703125 -105.71875 l 1,15,-1
 71 -35 l 1,16,-1
 -73 236 l 1,17,-1
 76 276 l 1,18,-1
 199 262 l 1,19,-1
 422 191 l 1,20,-1
 463.578125 219.78125 l 1,21,-1
 220.71875 284.296875 l 1,22,-1
 53.703125 406.28125 l 1,23,-1
 -17 477 l 1,24,-1
 90 801.984375 l 1,0,-1
99.65625 799.390625 m 1,25,-1
 99.5 798.859375 l 1,26,-1
 -5.234375 480.78125 l 1,27,-1
 154.390625 364.1875 l 1,28,-1
 472.578125 279.671875 l 1,29,-1
 479.3125 277.875 l 1,30,-1
 479.96875 270.9375 l 1,31,-1
 483.96875 227.9375 l 1,32,-1
 484.5 222.109375 l 1,33,-1
 479.703125 218.78125 l 1,34,-1
 427.6875 182.78125 l 1,35,-1
 423.65625 179.96875 l 1,36,-1
 418.96875 181.46875 l 1,37,-1
 196.890625 252.171875 l 1,38,-1
 76.765625 265.859375 l 1,39,-1
 -58.265625 229.609375 l 1,40,-1
 77.140625 -25.265625 l 1,41,-1
 475.4375 -42.875 l 1,42,-1
 709.578125 97.015625 l 1,43,-1
 737.34375 361.359375 l 1,44,-1
 545.390625 464.359375 l 1,45,-1
 522.625 437.53125 l 1,46,-1
 518.875 433.109375 l 1,47,-1
 513.171875 434.15625 l 1,48,-1
 432.1875 449.171875 l 1,49,-1
 427.421875 450.046875 l 1,50,-1
 425.171875 454.328125 l 1,51,-1
 397.15625 507.328125 l 1,52,-1
 394.890625 511.625 l 1,53,-1
 396.875 516.078125 l 1,54,-1
 421.875 572.078125 l 1,55,-1
 424.1875 577.28125 l 1,56,-1
 429.84375 577.9375 l 1,57,-1
 549.84375 591.9375 l 1,58,-1
 552.984375 592.296875 l 1,59,-1
 555.75 590.796875 l 1,60,-1
 743.46875 489.359375 l 1,61,-1
 779.6875 592 l 1,62,-1
 602.203125 807.109375 l 1,63,-1
 104.625 817.828125 l 1,64,-1
 99.65625 799.390625 l 1,25,-1
EndSplineSet
Validated: 524289
EndChar

StartChar: six
Encoding: 54 54 79
Width: 838
VWidth: 0
Flags: W
LayerCount: 2
Fore
SplineSet
60 649 m 1,0,-1
 373 840 l 1,1,-1
 724 774 l 1,2,-1
 794.71875 703.296875 l 1,3,-1
 809.71875 516.28125 l 1,4,-1
 592.71875 453.28125 l 1,5,-1
 484.71875 486.28125 l 1,6,-1
 370.71875 463.296875 l 1,7,-1
 346.203125 434.828125 l 1,8,-1
 660 353 l 1,9,-1
 730.703125 282.296875 l 1,10,-1
 815.71875 70.296875 l 1,11,-1
 679.703125 -114.703125 l 1,12,-1
 236.703125 -102.703125 l 1,13,-1
 166 -32 l 1,14,-1
 22 285.984375 l 1,15,-1
 60 649 l 1,0,-1
476.34375 255.765625 m 1,16,-1
 471.703125 255.28125 l 1,17,-1
 393.71875 244.296875 l 1,18,-1
 383.71875 247.28125 l 1,19,-1
 369.03125 261.96875 l 1,20,-1
 374.71875 246.28125 l 1,21,-1
 413.265625 200.640625 l 1,22,-1
 436 187 l 1,23,-1
 487.015625 234 l 1,24,-1
 476.34375 255.765625 l 1,16,-1
69.4375 643.046875 m 1,25,-1
 32.21875 287.640625 l 1,26,-1
 172.515625 -22.171875 l 1,27,-1
 604.03125 -33.859375 l 1,28,-1
 733.65625 142.4375 l 1,29,-1
 652.59375 344.59375 l 1,30,-1
 280.59375 441.609375 l 1,31,-1
 297.796875 392.171875 l 1,32,-1
 320.765625 326.109375 l 1,33,-1
 323.78125 325.21875 l 1,34,-1
 399.78125 335.921875 l 1,35,-1
 438.96875 339.9375 l 1,36,-1
 445.90625 340.65625 l 1,37,-1
 448.984375 334.390625 l 1,38,-1
 495.984375 238.390625 l 1,39,-1
 499.265625 231.703125 l 1,40,-1
 493.78125 226.640625 l 1,41,-1
 442.765625 179.65625 l 1,42,-1
 437.265625 174.578125 l 1,43,-1
 430.859375 178.4375 l 1,44,-1
 385.859375 205.421875 l 1,45,-1
 384.421875 206.28125 l 1,46,-1
 383.359375 207.546875 l 1,47,-1
 296.359375 310.546875 l 1,48,-1
 295.203125 311.90625 l 1,49,-1
 294.59375 313.59375 l 1,50,-1
 270.640625 379.828125 l 1,51,-1
 243.59375 454.59375 l 1,52,-1
 242.296875 458.171875 l 1,53,-1
 243.71875 461.703125 l 1,54,-1
 259.71875 501.703125 l 1,55,-1
 260.328125 503.25 l 1,56,-1
 261.421875 504.515625 l 1,57,-1
 292.421875 540.53125 l 1,58,-1
 294.65625 543.140625 l 1,59,-1
 298.03125 543.8125 l 1,60,-1
 412.03125 566.796875 l 1,61,-1
 414.5 567.296875 l 1,62,-1
 416.921875 566.546875 l 1,63,-1
 522.078125 534.4375 l 1,64,-1
 728.390625 594.328125 l 1,65,-1
 714.640625 765.59375 l 1,66,-1
 374.921875 829.46875 l 1,67,-1
 69.4375 643.046875 l 1,25,-1
EndSplineSet
Validated: 524289
EndChar

StartChar: seven
Encoding: 55 55 80
Width: 975
VWidth: 0
Flags: W
LayerCount: 2
Fore
SplineSet
9 627 m 1,0,-1
 93 778 l 1,1,-1
 712 823 l 1,2,-1
 888 674 l 1,3,-1
 958.71875 603.28125 l 1,4,-1
 793.125 296.875 l 1,5,-1
 857.703125 232.296875 l 1,6,-1
 827.71875 48.28125 l 1,7,-1
 706.703125 81.296875 l 1,8,-1
 551.71875 -176.703125 l 1,9,-1
 261.703125 -56.71875 l 1,10,-1
 191 14 l 1,11,-1
 409.203125 180.796875 l 1,12,-1
 338.984375 251 l 1,13,-1
 430 367 l 1,14,-1
 529 345 l 1,15,-1
 527.984375 406.328125 l 1,16,-1
 400.703125 428.28125 l 1,17,-1
 336.71875 344.296875 l 1,18,-1
 102.703125 412.28125 l 1,19,-1
 32 483 l 1,20,-1
 9 627 l 1,0,-1
19.40625 625.171875 m 1,21,-1
 40.875 490.828125 l 1,22,-1
 262.203125 426.515625 l 1,23,-1
 322.046875 505.0625 l 1,24,-1
 325.71875 509.875 l 1,25,-1
 331.703125 508.84375 l 1,26,-1
 528.703125 474.859375 l 1,27,-1
 536.859375 473.453125 l 1,28,-1
 537 465.171875 l 1,29,-1
 539 345.171875 l 1,30,-1
 539.21875 332.484375 l 1,31,-1
 526.828125 335.234375 l 1,32,-1
 433.984375 355.875 l 1,33,-1
 354.109375 254.0625 l 1,34,-1
 437.84375 207.75 l 1,35,-1
 451.234375 200.34375 l 1,36,-1
 439.078125 191.046875 l 1,37,-1
 210.859375 16.59375 l 1,38,-1
 476.875 -93.46875 l 1,39,-1
 627.421875 157.15625 l 1,40,-1
 631.328125 163.640625 l 1,41,-1
 638.625 161.65625 l 1,42,-1
 748.921875 131.5625 l 1,43,-1
 775.46875 294.40625 l 1,44,-1
 692.71875 305.078125 l 1,45,-1
 678.28125 306.9375 l 1,46,-1
 685.203125 319.75 l 1,47,-1
 875.34375 671.609375 l 1,48,-1
 708.65625 812.71875 l 1,49,-1
 99.109375 768.421875 l 1,50,-1
 19.40625 625.171875 l 1,21,-1
EndSplineSet
Validated: 524289
EndChar

StartChar: eight
Encoding: 56 56 81
Width: 850
VWidth: 0
Flags: W
LayerCount: 2
Fore
SplineSet
581.140625 242.25 m 1,0,-1
 675 180 l 1,1,-1
 745.703125 109.296875 l 1,2,-1
 685.71875 -86.703125 l 1,3,-1
 515.71875 -209.71875 l 1,4,-1
 19.71875 -26.71875 l 1,5,-1
 -51 44 l 1,6,-1
 -29 266 l 1,7,-1
 152 348 l 1,8,-1
 47 596 l 1,9,-1
 118 780 l 1,10,-1
 424 805 l 1,11,-1
 431.265625 797.734375 l 1,12,-1
 433 809 l 1,13,-1
 642 821 l 1,14,-1
 830 632.015625 l 1,15,-1
 900.703125 561.296875 l 1,16,-1
 807.703125 304.28125 l 1,17,-1
 581.140625 242.25 l 1,0,-1
493.078125 498.640625 m 1,18,-1
 469.703125 516.28125 l 1,19,-1
 462.90625 523.09375 l 1,20,-1
 458.71875 495.28125 l 1,21,-1
 380.71875 488.28125 l 1,22,-1
 312.703125 440.296875 l 1,23,-1
 339.078125 402.484375 l 1,24,-1
 405 404 l 1,25,-1
 414.171875 394.8125 l 1,26,-1
 417 406 l 1,27,-1
 504 444 l 1,28,-1
 493.078125 498.640625 l 1,18,-1
444.671875 165.3125 m 1,29,-1
 436.671875 173.3125 l 1,30,-1
 434.71875 165.28125 l 1,31,-1
 366.71875 148.28125 l 1,32,-1
 330.796875 105.5 l 1,33,-1
 350 92 l 1,34,-1
 444.671875 165.3125 l 1,29,-1
412.234375 794 m 1,35,-1
 125.0625 770.546875 l 1,36,-1
 57.78125 596.171875 l 1,37,-1
 161.203125 351.890625 l 1,38,-1
 165 342.90625 l 1,39,-1
 156.125 338.890625 l 1,40,-1
 -19.625 259.265625 l 1,41,-1
 -40.28125 50.703125 l 1,42,-1
 443.46875 -127.78125 l 1,43,-1
 606.421875 -9.859375 l 1,44,-1
 663.25 175.796875 l 1,45,-1
 479.484375 297.671875 l 1,46,-1
 461.140625 309.828125 l 1,47,-1
 482.375 315.640625 l 1,48,-1
 729.359375 383.28125 l 1,49,-1
 818.4375 629.453125 l 1,50,-1
 638.078125 810.765625 l 1,51,-1
 441.65625 799.484375 l 1,52,-1
 424.671875 688.5625 l 1,53,-1
 409.78125 591.375 l 1,54,-1
 495.03125 526.984375 l 1,55,-1
 498.0625 524.6875 l 1,56,-1
 498.796875 520.96875 l 1,57,-1
 513.8125 445.96875 l 1,58,-1
 515.390625 438.0625 l 1,59,-1
 508 434.84375 l 1,60,-1
 425.5 398.796875 l 1,61,-1
 403.84375 313.203125 l 1,62,-1
 385.234375 239.65625 l 1,63,-1
 458.40625 178.6875 l 1,64,-1
 467.96875 170.71875 l 1,65,-1
 458.125 163.09375 l 1,66,-1
 356.125 84.09375 l 1,67,-1
 350.296875 79.578125 l 1,68,-1
 344.25 83.8125 l 1,69,-1
 243.25 154.8125 l 1,70,-1
 234.34375 161.078125 l 1,71,-1
 241.34375 169.421875 l 1,72,-1
 288.34375 225.421875 l 1,73,-1
 290.421875 227.90625 l 1,74,-1
 293.578125 228.6875 l 1,75,-1
 355.71875 244.234375 l 1,76,-1
 376.21875 328.234375 l 1,77,-1
 392.1875 393.703125 l 1,78,-1
 318.234375 392 l 1,79,-1
 312.875 391.875 l 1,80,-1
 309.8125 396.28125 l 1,81,-1
 233.796875 505.28125 l 1,82,-1
 228.109375 513.4375 l 1,83,-1
 236.234375 519.171875 l 1,84,-1
 304.234375 567.15625 l 1,85,-1
 306.4375 568.703125 l 1,86,-1
 309.109375 568.953125 l 1,87,-1
 379.28125 575.25 l 1,88,-1
 412.234375 794 l 1,35,-1
EndSplineSet
Validated: 524289
EndChar

StartChar: nine
Encoding: 57 57 82
Width: 905
VWidth: 0
Flags: W
LayerCount: 2
Fore
SplineSet
153 788 m 1,0,-1
 464 850 l 1,1,-1
 603 816 l 1,2,-1
 662 763 l 1,3,-1
 668.34375 756.65625 l 1,4,-1
 673 760 l 1,5,-1
 743.71875 689.28125 l 1,6,-1
 909.71875 464.28125 l 1,7,-1
 849.703125 72.296875 l 1,8,-1
 710.703125 -140.71875 l 1,9,-1
 186.703125 -133.71875 l 1,10,-1
 116 -63.015625 l 1,11,-1
 22 96 l 1,12,-1
 91 166 l 1,13,-1
 204 127 l 1,14,-1
 550 137 l 1,15,-1
 556.4375 176.140625 l 1,16,-1
 542.71875 146.296875 l 1,17,-1
 264.71875 150.296875 l 1,18,-1
 194 221 l 1,19,-1
 1 555 l 1,20,-1
 153 788 l 1,0,-1
345.203125 407.640625 m 1,21,-1
 424 431 l 1,22,-1
 405.046875 496.8125 l 1,23,-1
 376.71875 501.296875 l 1,24,-1
 345.203125 407.640625 l 1,21,-1
159.078125 779.015625 m 1,25,-1
 12.734375 554.6875 l 1,26,-1
 199.8125 230.921875 l 1,27,-1
 465.640625 227.09375 l 1,28,-1
 512.265625 328.5625 l 1,29,-1
 489.53125 395.796875 l 1,30,-1
 485.078125 409 l 1,31,-1
 499 409 l 1,32,-1
 536 409 l 1,33,-1
 543.25 409 l 1,34,-1
 545.5 402.109375 l 1,35,-1
 583.5 286.109375 l 1,36,-1
 584.25 283.78125 l 1,37,-1
 583.859375 281.375 l 1,38,-1
 559.859375 135.375 l 1,39,-1
 558.53125 127.25 l 1,40,-1
 550.28125 127 l 1,41,-1
 204.28125 117 l 1,42,-1
 202.46875 116.9375 l 1,43,-1
 200.734375 117.53125 l 1,44,-1
 93.6875 154.484375 l 1,45,-1
 34.53125 94.46875 l 1,46,-1
 121.75 -53.09375 l 1,47,-1
 634.625 -59.9375 l 1,48,-1
 769.4375 146.65625 l 1,49,-1
 828.484375 532.40625 l 1,50,-1
 670.8125 746.125 l 1,51,-1
 529 644.625 l 1,52,-1
 399.5625 551.984375 l 1,53,-1
 433.609375 433.765625 l 1,54,-1
 436.359375 424.234375 l 1,55,-1
 426.84375 421.421875 l 1,56,-1
 345.84375 397.40625 l 1,57,-1
 340.65625 395.875 l 1,58,-1
 336.53125 399.359375 l 1,59,-1
 264.53125 460.359375 l 1,60,-1
 259.359375 464.75 l 1,61,-1
 261.515625 471.1875 l 1,62,-1
 296.515625 575.1875 l 1,63,-1
 299.21875 583.203125 l 1,64,-1
 307.5625 581.875 l 1,65,-1
 379.484375 570.515625 l 1,66,-1
 521.40625 673.421875 l 1,67,-1
 646.109375 763.828125 l 1,68,-1
 598.1875 806.890625 l 1,69,-1
 463.78125 839.75 l 1,70,-1
 159.078125 779.015625 l 1,25,-1
EndSplineSet
Validated: 524289
EndChar

StartChar: colon
Encoding: 58 58 83
Width: 373
VWidth: 0
Flags: W
LayerCount: 2
Fore
SplineSet
79.984375 161 m 1,0,-1
 164 179 l 1,1,-1
 229 160 l 1,2,-1
 278 124 l 1,3,-1
 348.703125 53.28125 l 1,4,-1
 340.71875 -55.703125 l 1,5,-1
 270.71875 -97.71875 l 1,6,-1
 185.71875 -88.703125 l 1,7,-1
 115 -18 l 1,8,-1
 43 58 l 1,9,-1
 79.984375 161 l 1,0,-1
50 437 m 1,10,-1
 134 454 l 1,11,-1
 200 436 l 1,12,-1
 249 399 l 1,13,-1
 319.71875 328.28125 l 1,14,-1
 311.703125 219.296875 l 1,15,-1
 240.703125 177.28125 l 1,16,-1
 156.703125 186.28125 l 1,17,-1
 85.984375 257 l 1,18,-1
 13 333 l 1,19,-1
 50 437 l 1,10,-1
57.515625 428.328125 m 1,20,-1
 24.484375 335.46875 l 1,21,-1
 90.6875 266.5625 l 1,22,-1
 167.75 258.296875 l 1,23,-1
 231.40625 295.953125 l 1,24,-1
 238.625 394.296875 l 1,25,-1
 195.515625 426.859375 l 1,26,-1
 133.65625 443.734375 l 1,27,-1
 57.515625 428.328125 l 1,20,-1
87.53125 152.390625 m 1,28,-1
 54.5 60.421875 l 1,29,-1
 119.71875 -8.4375 l 1,30,-1
 197.71875 -16.703125 l 1,31,-1
 260.40625 20.90625 l 1,32,-1
 267.609375 119.21875 l 1,33,-1
 224.5 150.890625 l 1,34,-1
 163.609375 168.6875 l 1,35,-1
 87.53125 152.390625 l 1,28,-1
EndSplineSet
Validated: 524289
EndChar

StartChar: semicolon
Encoding: 59 59 84
Width: 373
VWidth: 0
Flags: W
LayerCount: 2
Fore
SplineSet
79.984375 161 m 1,0,-1
 164 179 l 1,1,-1
 229 160 l 1,2,-1
 278 124 l 1,3,-1
 348.703125 53.28125 l 1,4,-1
 340.71875 -55.703125 l 1,5,-1
 270.71875 -97.71875 l 1,6,-1
 155.703125 -205.71875 l 1,7,-1
 85 -135 l 1,8,-1
 13 -59 l 1,9,-1
 79.984375 161 l 1,0,-1
50 437 m 1,10,-1
 134 454 l 1,11,-1
 200 436 l 1,12,-1
 249 399 l 1,13,-1
 319.71875 328.28125 l 1,14,-1
 311.703125 219.296875 l 1,15,-1
 240.703125 177.28125 l 1,16,-1
 156.703125 186.28125 l 1,17,-1
 85.984375 257 l 1,18,-1
 13 333 l 1,19,-1
 50 437 l 1,10,-1
57.515625 428.328125 m 1,20,-1
 24.484375 335.46875 l 1,21,-1
 90.6875 266.5625 l 1,22,-1
 167.75 258.296875 l 1,23,-1
 231.40625 295.953125 l 1,24,-1
 238.625 394.296875 l 1,25,-1
 195.515625 426.859375 l 1,26,-1
 133.65625 443.734375 l 1,27,-1
 57.515625 428.328125 l 1,20,-1
87.84375 152.453125 m 1,28,-1
 24.25 -56.34375 l 1,29,-1
 85.40625 -120.890625 l 1,30,-1
 193.15625 -19.71875 l 1,31,-1
 193.9375 -18.984375 l 1,32,-1
 194.859375 -18.421875 l 1,33,-1
 260.40625 20.90625 l 1,34,-1
 267.609375 119.21875 l 1,35,-1
 224.5 150.890625 l 1,36,-1
 163.609375 168.6875 l 1,37,-1
 87.84375 152.453125 l 1,28,-1
EndSplineSet
Validated: 524289
EndChar

StartChar: less
Encoding: 60 60 85
Width: 852
VWidth: 0
Flags: W
LayerCount: 2
Fore
SplineSet
246 533 m 1,0,-1
 500 823 l 1,1,-1
 673 853 l 1,2,-1
 743.71875 782.296875 l 1,3,-1
 797.703125 623.296875 l 1,4,-1
 253.703125 271.296875 l 1,5,-1
 252.390625 269.703125 l 1,6,-1
 758.984375 -4 l 1,7,-1
 829.703125 -74.703125 l 1,8,-1
 831.703125 -119.71875 l 1,9,-1
 675.71875 -241.703125 l 1,10,-1
 105.71875 236.28125 l 1,11,-1
 35 307 l 1,12,-1
 246 533 l 1,0,-1
253.421875 526.296875 m 1,13,-1
 49.515625 307.875 l 1,14,-1
 605.21875 -158.125 l 1,15,-1
 750.765625 -44.296875 l 1,16,-1
 749.25 -10.109375 l 1,17,-1
 158.25 309.203125 l 1,18,-1
 147.515625 315 l 1,19,-1
 155.328125 324.390625 l 1,20,-1
 175.3125 348.40625 l 1,21,-1
 176.28125 349.578125 l 1,22,-1
 177.5625 350.40625 l 1,23,-1
 715.015625 698.171875 l 1,24,-1
 666.28125 841.6875 l 1,25,-1
 505.1875 813.75 l 1,26,-1
 253.421875 526.296875 l 1,13,-1
EndSplineSet
Validated: 524289
EndChar

StartChar: equal
Encoding: 61 61 86
Width: 670
VWidth: 0
Flags: W
LayerCount: 2
Fore
SplineSet
10 335 m 1,0,-1
 590 358 l 1,1,-1
 660.71875 287.296875 l 1,2,-1
 640.703125 145.28125 l 1,3,-1
 598.703125 114.296875 l 1,4,-1
 107.71875 127.296875 l 1,5,-1
 37 198 l 1,6,-1
 10 335 l 1,0,-1
31 81 m 1,7,-1
 526.015625 112 l 1,8,-1
 596.71875 41.28125 l 1,9,-1
 653.703125 -32.71875 l 1,10,-1
 633.71875 -142.71875 l 1,11,-1
 107.71875 -128.703125 l 1,12,-1
 37 -58 l 1,13,-1
 9 44 l 1,14,-1
 31 81 l 1,7,-1
36.90625 71.359375 m 1,15,-1
 19.765625 42.546875 l 1,16,-1
 44.6875 -48.1875 l 1,17,-1
 554.6875 -61.78125 l 1,18,-1
 572.359375 35.40625 l 1,19,-1
 521.328125 101.6875 l 1,20,-1
 36.90625 71.359375 l 1,15,-1
22.0625 325.46875 m 1,21,-1
 45.265625 207.78125 l 1,22,-1
 524.828125 195.09375 l 1,23,-1
 560.671875 221.546875 l 1,24,-1
 578.4375 347.53125 l 1,25,-1
 22.0625 325.46875 l 1,21,-1
EndSplineSet
Validated: 524289
EndChar

StartChar: greater
Encoding: 62 62 87
Width: 1048
VWidth: 0
Flags: W
LayerCount: 2
Fore
SplineSet
81 657 m 1,0,-1
 200 850.015625 l 1,1,-1
 953 408 l 1,2,-1
 1023.71875 337.296875 l 1,3,-1
 352.703125 -209.71875 l 1,4,-1
 282 -139 l 1,5,-1
 101 53 l 1,6,-1
 118 106 l 1,7,-1
 786 362.5 l 1,8,-1
 173.703125 556.296875 l 1,9,-1
 103 627 l 1,10,-1
 81 657 l 1,0,-1
93.046875 657.484375 m 1,11,-1
 109.125 635.546875 l 1,12,-1
 858.015625 398.53125 l 1,13,-1
 885.265625 389.90625 l 1,14,-1
 858.59375 379.65625 l 1,15,-1
 126.0625 98.375 l 1,16,-1
 112.3125 55.5625 l 1,17,-1
 282.890625 -125.375 l 1,18,-1
 935.53125 406.65625 l 1,19,-1
 203.375 836.4375 l 1,20,-1
 93.046875 657.484375 l 1,11,-1
EndSplineSet
Validated: 524289
EndChar

StartChar: question
Encoding: 63 63 88
Width: 829
VWidth: 0
Flags: W
LayerCount: 2
Fore
SplineSet
28 715 m 1,0,-1
 222 852.015625 l 1,1,-1
 677 821 l 1,2,-1
 747.703125 750.296875 l 1,3,-1
 821.71875 527.296875 l 1,4,-1
 788.71875 275.28125 l 1,5,-1
 583.703125 56.296875 l 1,6,-1
 538.28125 59.703125 l 1,7,-1
 580.71875 17.28125 l 1,8,-1
 596.703125 -70.71875 l 1,9,-1
 553.71875 -154.71875 l 1,10,-1
 437.703125 -142.71875 l 1,11,-1
 367 -72 l 1,12,-1
 317 16 l 1,13,-1
 375 92 l 1,14,-1
 426.53125 90.46875 l 1,15,-1
 380 137 l 1,16,-1
 337 231 l 1,17,-1
 415.578125 294.84375 l 1,18,-1
 309.71875 255.28125 l 1,19,-1
 126.703125 341.28125 l 1,20,-1
 56 412 l 1,21,-1
 28 715 l 1,0,-1
374.421875 599.484375 m 1,22,-1
 402 588 l 1,23,-1
 472.71875 517.28125 l 1,24,-1
 515.71875 429.296875 l 1,25,-1
 506.265625 368.53125 l 1,26,-1
 529 387 l 1,27,-1
 526.046875 644.328125 l 1,28,-1
 388.703125 654.296875 l 1,29,-1
 374.421875 599.484375 l 1,22,-1
526.03125 644.953125 m 1,30,-1
 526 648 l 1,31,-1
 456 715 l 1,32,-1
 526.03125 644.953125 l 1,30,-1
379.828125 81.859375 m 1,33,-1
 328.96875 15.1875 l 1,34,-1
 373.15625 -62.59375 l 1,35,-1
 477.21875 -73.34375 l 1,36,-1
 515.5625 1.546875 l 1,37,-1
 501.609375 78.234375 l 1,38,-1
 379.828125 81.859375 l 1,33,-1
38.484375 710.15625 m 1,39,-1
 65.421875 418.625 l 1,40,-1
 239.4375 336.84375 l 1,41,-1
 420.015625 404.3125 l 1,42,-1
 434.640625 498.4375 l 1,43,-1
 394.671875 580.21875 l 1,44,-1
 290.15625 623.765625 l 1,45,-1
 282.125 627.109375 l 1,46,-1
 284.328125 635.515625 l 1,47,-1
 308.328125 727.53125 l 1,48,-1
 310.421875 735.578125 l 1,49,-1
 318.71875 734.984375 l 1,50,-1
 456.71875 724.96875 l 1,51,-1
 460.3125 724.703125 l 1,52,-1
 462.90625 722.21875 l 1,53,-1
 532.90625 655.21875 l 1,54,-1
 535.953125 652.3125 l 1,55,-1
 536 648.109375 l 1,56,-1
 539 387.109375 l 1,57,-1
 539.046875 382.28125 l 1,58,-1
 535.296875 379.234375 l 1,59,-1
 349.3125 228.125 l 1,60,-1
 386.640625 146.53125 l 1,61,-1
 508.96875 137.328125 l 1,62,-1
 708.5 350.484375 l 1,63,-1
 740.796875 597.03125 l 1,64,-1
 669.625 811.484375 l 1,65,-1
 224.859375 841.796875 l 1,66,-1
 38.484375 710.15625 l 1,39,-1
EndSplineSet
Validated: 524289
EndChar

StartChar: Ccedilla
Encoding: 199 199 89
Width: 1096
VWidth: 0
Flags: W
LayerCount: 2
Fore
SplineSet
209 844 m 1,0,-1
 798 813 l 1,1,-1
 1061 623 l 1,2,-1
 1131.71875 552.28125 l 1,3,-1
 1097.703125 406.28125 l 1,4,-1
 1004.703125 273.296875 l 1,5,-1
 914.140625 261.734375 l 1,6,-1
 1037 213 l 1,7,-1
 1107.71875 142.296875 l 1,8,-1
 915.703125 -62.71875 l 1,9,-1
 717.71875 -70.71875 l 1,10,-1
 777.71875 -170.71875 l 1,11,-1
 478.71875 -193.703125 l 1,12,-1
 408 -123 l 1,13,-1
 401.125 -93.578125 l 1,14,-1
 392.703125 -97.71875 l 1,15,-1
 255.703125 -62.71875 l 1,16,-1
 84.703125 25.296875 l 1,17,-1
 14 96 l 1,18,-1
 -36 223 l 1,19,-1
 27 752 l 1,20,-1
 209 844 l 1,0,-1
623.234375 276.5 m 1,21,-1
 704.078125 291.796875 l 1,22,-1
 639.71875 301.296875 l 1,23,-1
 584.390625 356.609375 l 1,24,-1
 546.390625 357.59375 l 1,25,-1
 607.703125 296.28125 l 1,26,-1
 623.234375 276.5 l 1,21,-1
304.65625 262.34375 m 1,27,-1
 262 305 l 1,28,-1
 295 266 l 1,29,-1
 304.65625 262.34375 l 1,27,-1
331.890625 252.046875 m 1,30,-1
 332 252 l 1,31,-1
 360 356 l 1,32,-1
 433 360.53125 l 1,33,-1
 326.71875 363.28125 l 1,34,-1
 331.890625 252.046875 l 1,30,-1
211.125 833.875 m 1,35,-1
 36.296875 745.5 l 1,36,-1
 -25.765625 224.328125 l 1,37,-1
 21.921875 103.171875 l 1,38,-1
 188.5625 17.40625 l 1,39,-1
 320.90625 -16.40625 l 1,40,-1
 374.59375 9.984375 l 1,41,-1
 385.875 15.53125 l 1,42,-1
 388.734375 3.28125 l 1,43,-1
 415.78125 -112.359375 l 1,44,-1
 690.109375 -91.265625 l 1,45,-1
 638.421875 -5.140625 l 1,46,-1
 629.75 9.3125 l 1,47,-1
 646.59375 10 l 1,48,-1
 840.5 17.828125 l 1,49,-1
 1019.671875 209.125 l 1,50,-1
 794 298.625 l 1,51,-1
 611.859375 264.171875 l 1,52,-1
 605.890625 263.03125 l 1,53,-1
 602.140625 267.8125 l 1,54,-1
 532.375 356.6875 l 1,55,-1
 367.78125 346.453125 l 1,56,-1
 341.65625 249.40625 l 1,57,-1
 338.78125 238.75 l 1,58,-1
 328.453125 242.65625 l 1,59,-1
 291.453125 256.65625 l 1,60,-1
 289.03125 257.5625 l 1,61,-1
 287.359375 259.546875 l 1,62,-1
 254.375 298.546875 l 1,63,-1
 252.171875 301.140625 l 1,64,-1
 252.015625 304.546875 l 1,65,-1
 246.015625 433.53125 l 1,66,-1
 245.515625 444.265625 l 1,67,-1
 256.265625 444 l 1,68,-1
 526.25 437 l 1,69,-1
 530.96875 436.875 l 1,70,-1
 533.875 433.15625 l 1,71,-1
 574.421875 381.3125 l 1,72,-1
 840.09375 342.109375 l 1,73,-1
 928.34375 353.359375 l 1,74,-1
 1017.6875 481.140625 l 1,75,-1
 1049.75 618.78125 l 1,76,-1
 794.53125 803.171875 l 1,77,-1
 211.125 833.875 l 1,35,-1
EndSplineSet
Validated: 524289
EndChar

StartChar: glyph92
Encoding: 256 287 90
Width: 1096
VWidth: 0
Flags: W
LayerCount: 2
Fore
SplineSet
79.203125 85.0625 m 1,0,-1
 37.703125 107.296875 l 1,1,-1
 -33 178 l 1,2,-1
 10 426 l 1,3,-1
 -20 696 l 1,4,-1
 171.53125 690.484375 l 1,5,-1
 125 737 l 1,6,-1
 188 909 l 1,7,-1
 514 811 l 1,8,-1
 897 872 l 1,9,-1
 967.703125 801.296875 l 1,10,-1
 930.328125 688.1875 l 1,11,-1
 967 686 l 1,12,-1
 1037.71875 615.28125 l 1,13,-1
 1109.71875 521.296875 l 1,14,-1
 1076.71875 375.28125 l 1,15,-1
 1028.703125 349.28125 l 1,16,-1
 979.703125 378.296875 l 1,17,-1
 901.34375 368.65625 l 1,18,-1
 971.71875 298.28125 l 1,19,-1
 1086.71875 111.28125 l 1,20,-1
 895.71875 -123.71875 l 1,21,-1
 349.703125 -74.703125 l 1,22,-1
 221.71875 -107.71875 l 1,23,-1
 151 -37 l 1,24,-1
 79.203125 85.0625 l 1,0,-1
663.625 187.375 m 1,25,-1
 608.109375 242.890625 l 1,26,-1
 597.328125 196.8125 l 1,27,-1
 663.625 187.375 l 1,25,-1
-8.78125 685.671875 m 1,28,-1
 19.9375 427.109375 l 1,29,-1
 20.09375 425.6875 l 1,30,-1
 19.84375 424.296875 l 1,31,-1
 -21.921875 183.40625 l 1,32,-1
 55.71875 141.8125 l 1,33,-1
 58.203125 140.5 l 1,34,-1
 59.625 138.078125 l 1,35,-1
 155.796875 -25.4375 l 1,36,-1
 276.5 5.6875 l 1,37,-1
 278.171875 6.109375 l 1,38,-1
 279.890625 5.953125 l 1,39,-1
 820.59375 -42.5625 l 1,40,-1
 1003.765625 182.796875 l 1,41,-1
 895.828125 358.328125 l 1,42,-1
 628.625 326.953125 l 1,43,-1
 616.484375 254.0625 l 1,44,-1
 829.8125 214.828125 l 1,45,-1
 833.171875 214.21875 l 1,46,-1
 835.453125 211.65625 l 1,47,-1
 877.453125 164.671875 l 1,48,-1
 895.703125 144.25 l 1,49,-1
 868.59375 148.109375 l 1,50,-1
 580.59375 189.09375 l 1,51,-1
 577.578125 189.53125 l 1,52,-1
 575.328125 191.5625 l 1,53,-1
 516.3125 244.5625 l 1,54,-1
 511.90625 248.515625 l 1,55,-1
 513.25 254.265625 l 1,56,-1
 549.265625 408.28125 l 1,57,-1
 550.859375 415.078125 l 1,58,-1
 557.78125 415.921875 l 1,59,-1
 907.78125 458.921875 l 1,60,-1
 911.15625 459.34375 l 1,61,-1
 914.09375 457.609375 l 1,62,-1
 958.21875 431.484375 l 1,63,-1
 997.25 452.625 l 1,64,-1
 1028.21875 589.640625 l 1,65,-1
 961.84375 676.28125 l 1,66,-1
 699.40625 692.015625 l 1,67,-1
 687.75 692.703125 l 1,68,-1
 690.234375 704.109375 l 1,69,-1
 695.21875 727.109375 l 1,70,-1
 696.6875 733.84375 l 1,71,-1
 703.484375 734.875 l 1,72,-1
 848.4375 756.953125 l 1,73,-1
 882.34375 859.546875 l 1,74,-1
 515.578125 801.125 l 1,75,-1
 513.3125 800.765625 l 1,76,-1
 511.125 801.4375 l 1,77,-1
 194.15625 896.71875 l 1,78,-1
 138.90625 745.875 l 1,79,-1
 412.828125 722.96875 l 1,80,-1
 427.765625 721.71875 l 1,81,-1
 420.875 708.40625 l 1,82,-1
 405.875 679.40625 l 1,83,-1
 402.984375 673.8125 l 1,84,-1
 396.703125 674 l 1,85,-1
 -8.78125 685.671875 l 1,28,-1
EndSplineSet
Validated: 524289
EndChar

StartChar: glyph93
Encoding: 257 286 91
Width: 1096
VWidth: 0
Flags: W
LayerCount: 2
Fore
SplineSet
99.796875 83.28125 m 1,0,-1
 58.71875 105.296875 l 1,1,-1
 -12 176 l 1,2,-1
 31 424 l 1,3,-1
 12 694 l 1,4,-1
 137.46875 703.53125 l 1,5,-1
 102 739 l 1,6,-1
 156 866 l 1,7,-1
 563 881 l 1,8,-1
 963 786 l 1,9,-1
 1033.71875 715.296875 l 1,10,-1
 1025.734375 637.28125 l 1,11,-1
 1061.703125 601.296875 l 1,12,-1
 1122.703125 438.296875 l 1,13,-1
 1096.71875 373.296875 l 1,14,-1
 1049.71875 347.28125 l 1,15,-1
 1000.71875 375.296875 l 1,16,-1
 926.015625 362.984375 l 1,17,-1
 992.71875 296.296875 l 1,18,-1
 1106.71875 109.296875 l 1,19,-1
 1065.703125 -84.703125 l 1,20,-1
 916.71875 -125.703125 l 1,21,-1
 369.71875 -76.703125 l 1,22,-1
 241.71875 -109.71875 l 1,23,-1
 171.015625 -39 l 1,24,-1
 99.796875 83.28125 l 1,0,-1
905.078125 118.46875 m 1,25,-1
 785.703125 173.28125 l 1,26,-1
 718.1875 240.796875 l 1,27,-1
 706.328125 190.40625 l 1,28,-1
 903 106 l 1,29,-1
 905.078125 118.46875 l 1,25,-1
22.671875 684.78125 m 1,30,-1
 40.984375 424.703125 l 1,31,-1
 41.0625 423.484375 l 1,32,-1
 40.859375 422.296875 l 1,33,-1
 -0.90625 181.40625 l 1,34,-1
 76.71875 139.8125 l 1,35,-1
 79.21875 138.484375 l 1,36,-1
 80.640625 136.03125 l 1,37,-1
 175.84375 -27.421875 l 1,38,-1
 296.515625 3.6875 l 1,39,-1
 298.1875 4.109375 l 1,40,-1
 299.90625 3.96875 l 1,41,-1
 845.09375 -44.875 l 1,42,-1
 986.46875 -5.96875 l 1,43,-1
 1025.390625 178.1875 l 1,44,-1
 917 356.015625 l 1,45,-1
 737.78125 325.359375 l 1,46,-1
 726.03125 249.921875 l 1,47,-1
 915.171875 163.078125 l 1,48,-1
 922.125 159.890625 l 1,49,-1
 920.859375 152.34375 l 1,50,-1
 912.859375 104.359375 l 1,51,-1
 910.765625 91.78125 l 1,52,-1
 899.046875 96.8125 l 1,53,-1
 687.046875 187.8125 l 1,54,-1
 685.5 188.46875 l 1,55,-1
 684.25 189.609375 l 1,56,-1
 626.25 242.609375 l 1,57,-1
 621.921875 246.578125 l 1,58,-1
 623.265625 252.28125 l 1,59,-1
 659.265625 405.28125 l 1,60,-1
 660.796875 411.78125 l 1,61,-1
 667.375 412.859375 l 1,62,-1
 928.375 455.875 l 1,63,-1
 931.875 456.453125 l 1,64,-1
 934.96875 454.6875 l 1,65,-1
 979.078125 429.46875 l 1,66,-1
 1018.046875 451.03125 l 1,67,-1
 1041.28125 509.125 l 1,68,-1
 983.703125 662.984375 l 1,69,-1
 553.53125 727.109375 l 1,70,-1
 541.015625 728.96875 l 1,71,-1
 545.71875 740.703125 l 1,72,-1
 555.71875 765.703125 l 1,73,-1
 558.703125 773.171875 l 1,74,-1
 566.625 771.859375 l 1,75,-1
 945.125 709.59375 l 1,76,-1
 952.15625 778.296875 l 1,77,-1
 562.015625 870.953125 l 1,78,-1
 162.71875 856.234375 l 1,79,-1
 117.46875 749.828125 l 1,80,-1
 536.46875 771.984375 l 1,81,-1
 551.796875 772.796875 l 1,82,-1
 546.359375 758.453125 l 1,83,-1
 535.34375 729.453125 l 1,84,-1
 533.09375 723.515625 l 1,85,-1
 526.75 723.03125 l 1,86,-1
 22.671875 684.78125 l 1,30,-1
EndSplineSet
Validated: 524289
EndChar

StartChar: glyph95
Encoding: 258 305 92
Width: 1068
VWidth: 0
Flags: W
LayerCount: 2
Fore
SplineSet
-47 764 m 1,0,-1
 465 858 l 1,1,-1
 1005 825 l 1,2,-1
 1075.703125 754.28125 l 1,3,-1
 1109.703125 566.296875 l 1,4,-1
 1077.703125 531.296875 l 1,5,-1
 947.171875 537.8125 l 1,6,-1
 992.703125 492.296875 l 1,7,-1
 975.859375 137.578125 l 1,8,-1
 1032 134.984375 l 1,9,-1
 1102.71875 64.28125 l 1,10,-1
 1110.703125 -23.703125 l 1,11,-1
 1084.71875 -103.71875 l 1,12,-1
 777.703125 -133.703125 l 1,13,-1
 47.71875 -107.71875 l 1,14,-1
 -23 -37 l 1,15,-1
 -34 21 l 1,16,-1
 100.828125 20.171875 l 1,17,-1
 58 63 l 1,18,-1
 63.015625 481 l 1,19,-1
 94.125 479.859375 l 1,20,-1
 33 541 l 1,21,-1
 -47 764 l 1,0,-1
-33.609375 756.296875 m 1,22,-1
 40.78125 548.921875 l 1,23,-1
 95.953125 530.265625 l 1,24,-1
 109.046875 556.484375 l 1,25,-1
 111.8125 562.015625 l 1,26,-1
 118 562 l 1,27,-1
 140 562 l 1,28,-1
 149.796875 561.984375 l 1,29,-1
 150 552.203125 l 1,30,-1
 150.984375 504.203125 l 1,31,-1
 151.078125 500.1875 l 1,32,-1
 148.34375 497.234375 l 1,33,-1
 125.359375 472.234375 l 1,34,-1
 122.234375 468.84375 l 1,35,-1
 117.640625 469 l 1,36,-1
 72.890625 470.625 l 1,37,-1
 68.109375 71.359375 l 1,38,-1
 97.015625 66.21875 l 1,39,-1
 104.84375 84.015625 l 1,40,-1
 111.796875 99.796875 l 1,41,-1
 122.03125 85.9375 l 1,42,-1
 139.046875 62.9375 l 1,43,-1
 141.1875 60.046875 l 1,44,-1
 140.984375 56.453125 l 1,45,-1
 138.984375 19.453125 l 1,46,-1
 138.46875 9.9375 l 1,47,-1
 128.9375 10 l 1,48,-1
 -21.90625 10.921875 l 1,49,-1
 -14.65625 -27.296875 l 1,50,-1
 706.6875 -52.984375 l 1,51,-1
 1006.515625 -23.6875 l 1,52,-1
 1029.859375 48.140625 l 1,53,-1
 1022.828125 125.40625 l 1,54,-1
 857.53125 133.015625 l 1,55,-1
 849.890625 133.359375 l 1,56,-1
 848.234375 140.828125 l 1,57,-1
 842.234375 167.828125 l 1,58,-1
 840.15625 177.15625 l 1,59,-1
 849.40625 179.65625 l 1,60,-1
 894.359375 191.75 l 1,61,-1
 911.53125 553.578125 l 1,62,-1
 850.4375 557.015625 l 1,63,-1
 841.828125 557.5 l 1,64,-1
 841.03125 566.078125 l 1,65,-1
 837.03125 609.078125 l 1,66,-1
 835.96875 620.5625 l 1,67,-1
 847.484375 619.984375 l 1,68,-1
 1002.796875 612.21875 l 1,69,-1
 1028.265625 640.09375 l 1,70,-1
 996.546875 815.5 l 1,71,-1
 465.609375 847.9375 l 1,72,-1
 -33.609375 756.296875 l 1,22,-1
EndSplineSet
Validated: 524289
EndChar

StartChar: Odieresis
Encoding: 214 214 94
Width: 1094
VWidth: 0
Flags: W
LayerCount: 2
Fore
SplineSet
460.984375 934 m 1,0,-1
 715 954 l 1,1,-1
 872 817 l 1,2,-1
 942.703125 746.28125 l 1,3,-1
 938.703125 666.296875 l 1,4,-1
 912.1875 666.296875 l 1,5,-1
 1040 543 l 1,6,-1
 1110.703125 472.28125 l 1,7,-1
 1094.703125 -17.71875 l 1,8,-1
 1039.703125 -72.71875 l 1,9,-1
 398.703125 -107.71875 l 1,10,-1
 40.71875 56.296875 l 1,11,-1
 -30 127 l 1,12,-1
 -31 668 l 1,13,-1
 11.703125 672.28125 l 1,14,-1
 -12 696 l 1,15,-1
 -68 780 l 1,16,-1
 -34.984375 877 l 1,17,-1
 242 922 l 1,18,-1
 312.71875 851.296875 l 1,19,-1
 376.734375 771.5 l 1,20,-1
 408 784 l 1,21,-1
 474.015625 762.96875 l 1,22,-1
 422 815 l 1,23,-1
 460.984375 934 l 1,0,-1
551.796875 386.296875 m 1,24,-1
 548.703125 386.296875 l 1,25,-1
 460.71875 289.28125 l 1,26,-1
 473.15625 128.28125 l 1,27,-1
 492 143 l 1,28,-1
 551.796875 386.296875 l 1,24,-1
468.421875 924.546875 m 1,29,-1
 434.6875 821.609375 l 1,30,-1
 681.46875 747 l 1,31,-1
 858.484375 747 l 1,32,-1
 861.765625 812.65625 l 1,33,-1
 711.59375 943.703125 l 1,34,-1
 468.421875 924.546875 l 1,29,-1
169.625 720.828125 m 1,35,-1
 308.140625 778.3125 l 1,36,-1
 301.421875 831.953125 l 1,37,-1
 237.859375 911.1875 l 1,38,-1
 -27.453125 868.09375 l 1,39,-1
 -56.953125 781.4375 l 1,40,-1
 -6.9375 706.4375 l 1,41,-1
 169.625 720.828125 l 1,35,-1
380.03125 359.21875 m 1,42,-1
 379.703125 363.515625 l 1,43,-1
 382.59375 366.71875 l 1,44,-1
 470.59375 463.71875 l 1,45,-1
 473.5625 467 l 1,46,-1
 478 467 l 1,47,-1
 512 467 l 1,48,-1
 513.9375 467 l 1,49,-1
 515.75 466.28125 l 1,50,-1
 567.75 445.265625 l 1,51,-1
 575.78125 442.03125 l 1,52,-1
 573.71875 433.609375 l 1,53,-1
 501.71875 140.609375 l 1,54,-1
 500.890625 137.25 l 1,55,-1
 498.15625 135.125 l 1,56,-1
 457.15625 103.109375 l 1,57,-1
 452.75 99.671875 l 1,58,-1
 447.515625 101.625 l 1,59,-1
 404.515625 117.625 l 1,60,-1
 398.515625 119.84375 l 1,61,-1
 398.03125 126.21875 l 1,62,-1
 380.03125 359.21875 l 1,42,-1
408.390625 773.390625 m 1,63,-1
 171.71875 678.703125 l 1,64,-1
 170.40625 678.1875 l 1,65,-1
 169 678.046875 l 1,66,-1
 -20.984375 658.953125 l 1,67,-1
 -20.015625 133.421875 l 1,68,-1
 329.921875 -26.875 l 1,69,-1
 964.625 7.78125 l 1,70,-1
 1014.125 57.28125 l 1,71,-1
 1029.859375 538.875 l 1,72,-1
 866.171875 696.8125 l 1,73,-1
 678.46875 688.015625 l 1,74,-1
 676.6875 687.9375 l 1,75,-1
 674.96875 688.46875 l 1,76,-1
 408.390625 773.390625 l 1,63,-1
EndSplineSet
Validated: 524289
EndChar

StartChar: odieresis
Encoding: 246 246 95
Width: 1094
VWidth: 0
Flags: W
LayerCount: 2
Fore
SplineSet
473.015625 891 m 1,0,-1
 727 911 l 1,1,-1
 973 821 l 1,2,-1
 1043.71875 750.28125 l 1,3,-1
 1039.71875 670.296875 l 1,4,-1
 1006.546875 675.46875 l 1,5,-1
 1041.71875 640.296875 l 1,6,-1
 1123.71875 429.296875 l 1,7,-1
 1106.71875 -60.703125 l 1,8,-1
 1051.703125 -115.71875 l 1,9,-1
 410.703125 -150.71875 l 1,10,-1
 53.703125 13.296875 l 1,11,-1
 -17 84 l 1,12,-1
 -18 625 l 1,13,-1
 15.015625 637.96875 l 1,14,-1
 -0 652.984375 l 1,15,-1
 -55 737 l 1,16,-1
 -23 834 l 1,17,-1
 254 879 l 1,18,-1
 324.71875 808.28125 l 1,19,-1
 384.1875 735.234375 l 1,20,-1
 420 741 l 1,21,-1
 464.984375 741 l 1,22,-1
 434 772 l 1,23,-1
 473.015625 891 l 1,0,-1
576.984375 429.296875 m 1,24,-1
 572.703125 429.296875 l 1,25,-1
 484.71875 332.28125 l 1,26,-1
 489.296875 88.515625 l 1,27,-1
 504 100 l 1,28,-1
 576.984375 429.296875 l 1,24,-1
480.4375 881.546875 m 1,29,-1
 447.9375 782.390625 l 1,30,-1
 719.625 790.03125 l 1,31,-1
 720.53125 789.890625 l 1,32,-1
 959.5625 752.59375 l 1,33,-1
 962.640625 814.140625 l 1,34,-1
 725.609375 900.859375 l 1,35,-1
 480.4375 881.546875 l 1,29,-1
178.328125 734.296875 m 1,36,-1
 179.328125 734.6875 l 1,37,-1
 180.375 734.859375 l 1,38,-1
 321.84375 758.125 l 1,39,-1
 314.796875 788.484375 l 1,40,-1
 249.90625 868.203125 l 1,41,-1
 -15.390625 825.09375 l 1,42,-1
 -44 738.453125 l 1,43,-1
 3.90625 665.28125 l 1,44,-1
 178.328125 734.296875 l 1,36,-1
404 402.8125 m 1,45,-1
 403.921875 406.78125 l 1,46,-1
 406.59375 409.71875 l 1,47,-1
 494.578125 506.71875 l 1,48,-1
 497.5625 510 l 1,49,-1
 501.984375 510 l 1,50,-1
 536 510 l 1,51,-1
 537.9375 510 l 1,52,-1
 539.75 509.28125 l 1,53,-1
 591.75 488.265625 l 1,54,-1
 599.59375 485.09375 l 1,55,-1
 597.765625 476.828125 l 1,56,-1
 513.765625 97.84375 l 1,57,-1
 512.984375 94.328125 l 1,58,-1
 510.15625 92.125 l 1,59,-1
 469.15625 60.109375 l 1,60,-1
 464.75 56.671875 l 1,61,-1
 459.515625 58.625 l 1,62,-1
 416.515625 74.625 l 1,63,-1
 410.125 77 l 1,64,-1
 410 83.796875 l 1,65,-1
 404 402.8125 l 1,45,-1
420.796875 731 m 1,66,-1
 180.640625 692.296875 l 1,67,-1
 -7.984375 618.1875 l 1,68,-1
 -7.015625 90.421875 l 1,69,-1
 341.921875 -69.875 l 1,70,-1
 976.625 -35.21875 l 1,71,-1
 1026.140625 14.296875 l 1,72,-1
 1042.9375 498.296875 l 1,73,-1
 963.859375 701.78125 l 1,74,-1
 716.421875 731 l 1,75,-1
 420.796875 731 l 1,66,-1
EndSplineSet
Validated: 524289
EndChar

StartChar: glyph100
Encoding: 259 350 96
Width: 1094
VWidth: 0
Flags: W
LayerCount: 2
Fore
SplineSet
348.28125 -69 m 1,0,-1
 104.703125 -64.71875 l 1,1,-1
 34 6 l 1,2,-1
 -37 253 l 1,3,-1
 40 356 l 1,4,-1
 176.703125 324.296875 l 1,5,-1
 117 384 l 1,6,-1
 -31 600 l 1,7,-1
 53 779 l 1,8,-1
 459 807 l 1,9,-1
 923 745 l 1,10,-1
 1006 716 l 1,11,-1
 1076.71875 645.296875 l 1,12,-1
 1076.71875 468.296875 l 1,13,-1
 976.71875 358.28125 l 1,14,-1
 930.375 372.625 l 1,15,-1
 995.703125 307.296875 l 1,16,-1
 1115.71875 80.296875 l 1,17,-1
 801.703125 -47.703125 l 1,18,-1
 826.703125 -175.703125 l 1,19,-1
 617.71875 -244.71875 l 1,20,-1
 402.703125 -181.71875 l 1,21,-1
 332 -111 l 1,22,-1
 348.28125 -69 l 1,0,-1
580.109375 485.09375 m 1,23,-1
 647.96875 464.015625 l 1,24,-1
 599.75 512.25 l 1,25,-1
 576.71875 511.28125 l 1,26,-1
 580.109375 485.09375 l 1,23,-1
699.171875 278.078125 m 1,27,-1
 555.703125 364.28125 l 1,28,-1
 555.25 363.953125 l 1,29,-1
 699 277 l 1,30,-1
 699.171875 278.078125 l 1,27,-1
351.3125 272.234375 m 1,31,-1
 347.359375 269.03125 l 1,32,-1
 342.453125 270.328125 l 1,33,-1
 175.59375 314.296875 l 1,34,-1
 44.109375 344.78125 l 1,35,-1
 -26.015625 250.984375 l 1,36,-1
 41.5625 15.875 l 1,37,-1
 375.1875 10 l 1,38,-1
 389.515625 9.75 l 1,39,-1
 384.328125 -3.609375 l 1,40,-1
 345.25 -104.46875 l 1,41,-1
 546.828125 -163.53125 l 1,42,-1
 744.5 -98.265625 l 1,43,-1
 721.1875 21.09375 l 1,44,-1
 719.609375 29.15625 l 1,45,-1
 727.21875 32.265625 l 1,46,-1
 1031 156.09375 l 1,47,-1
 918.078125 369.671875 l 1,48,-1
 513.03125 495.4375 l 1,49,-1
 506.90625 497.34375 l 1,50,-1
 506.078125 503.703125 l 1,51,-1
 496.078125 580.703125 l 1,52,-1
 494.671875 591.53125 l 1,53,-1
 505.578125 591.984375 l 1,54,-1
 553.578125 594 l 1,55,-1
 559.890625 594.265625 l 1,56,-1
 562.84375 588.671875 l 1,57,-1
 589.90625 537.328125 l 1,58,-1
 902.875 440.421875 l 1,59,-1
 996 542.875 l 1,60,-1
 996 708.90625 l 1,61,-1
 920.65625 735.21875 l 1,62,-1
 458.6875 796.96875 l 1,63,-1
 59.5625 769.421875 l 1,64,-1
 -19.515625 600.9375 l 1,65,-1
 123.140625 392.75 l 1,66,-1
 334.9375 337.859375 l 1,67,-1
 479.109375 443.0625 l 1,68,-1
 484.46875 446.984375 l 1,69,-1
 490.15625 443.5625 l 1,70,-1
 708.15625 312.578125 l 1,71,-1
 713.875 309.140625 l 1,72,-1
 712.90625 302.53125 l 1,73,-1
 708.90625 275.53125 l 1,74,-1
 706.703125 260.65625 l 1,75,-1
 693.828125 268.4375 l 1,76,-1
 494.84375 388.796875 l 1,77,-1
 351.3125 272.234375 l 1,31,-1
EndSplineSet
Validated: 524289
EndChar

StartChar: glyph101
Encoding: 260 351 97
Width: 1094
VWidth: 0
Flags: W
LayerCount: 2
Fore
SplineSet
46 817 m 1,0,-1
 452 845 l 1,1,-1
 916 783 l 1,2,-1
 998 754 l 1,3,-1
 1068.703125 683.28125 l 1,4,-1
 1076.71875 468.296875 l 1,5,-1
 976.71875 358.28125 l 1,6,-1
 930.375 372.625 l 1,7,-1
 995.703125 307.296875 l 1,8,-1
 1115.71875 80.296875 l 1,9,-1
 868.703125 -58.71875 l 1,10,-1
 818.9375 -8.9375 l 1,11,-1
 792.71875 -15.71875 l 1,12,-1
 848.703125 -133.703125 l 1,13,-1
 662.71875 -251.703125 l 1,14,-1
 480.71875 -227.71875 l 1,15,-1
 410.015625 -157 l 1,16,-1
 415.25 -112.78125 l 1,17,-1
 105.71875 -124.71875 l 1,18,-1
 35 -54 l 1,19,-1
 -36 193 l 1,20,-1
 42 296 l 1,21,-1
 177.703125 264.3125 l 1,22,-1
 118.015625 324 l 1,23,-1
 -31 600 l 1,24,-1
 46 817 l 1,0,-1
580.109375 485.09375 m 1,25,-1
 647.96875 464.015625 l 1,26,-1
 599.75 512.25 l 1,27,-1
 576.71875 511.28125 l 1,28,-1
 580.109375 485.09375 l 1,25,-1
53.21875 807.484375 m 1,29,-1
 -20.09375 600.84375 l 1,30,-1
 124.828125 332.40625 l 1,31,-1
 302.4375 279.78125 l 1,32,-1
 374.4375 399.171875 l 1,33,-1
 378.4375 405.8125 l 1,34,-1
 385.875 403.578125 l 1,35,-1
 628.875 330.5625 l 1,36,-1
 635.203125 328.671875 l 1,37,-1
 635.9375 322.09375 l 1,38,-1
 638.9375 295.109375 l 1,39,-1
 640.609375 280.015625 l 1,40,-1
 626.078125 284.4375 l 1,41,-1
 404.046875 352 l 1,42,-1
 335.875 220.40625 l 1,43,-1
 332.203125 213.296875 l 1,44,-1
 324.453125 215.328125 l 1,45,-1
 176.59375 254.296875 l 1,46,-1
 46.046875 284.78125 l 1,47,-1
 -25 190.953125 l 1,48,-1
 42.453125 -43.71875 l 1,49,-1
 423.609375 -29.015625 l 1,50,-1
 435.3125 -28.5625 l 1,51,-1
 433.9375 -40.171875 l 1,52,-1
 421.109375 -148.375 l 1,53,-1
 589.71875 -170.609375 l 1,54,-1
 765.171875 -59.296875 l 1,55,-1
 712.96875 50.71875 l 1,56,-1
 707.765625 61.65625 l 1,57,-1
 719.5 64.6875 l 1,58,-1
 750.5 72.6875 l 1,59,-1
 756.4375 74.21875 l 1,60,-1
 760.5 69.609375 l 1,61,-1
 800.140625 24.6875 l 1,62,-1
 1031.609375 154.9375 l 1,63,-1
 918.078125 369.671875 l 1,64,-1
 513.03125 495.4375 l 1,65,-1
 506.90625 497.34375 l 1,66,-1
 506.078125 503.703125 l 1,67,-1
 496.078125 580.703125 l 1,68,-1
 494.671875 591.53125 l 1,69,-1
 505.578125 591.984375 l 1,70,-1
 553.578125 594 l 1,71,-1
 559.890625 594.265625 l 1,72,-1
 562.84375 588.671875 l 1,73,-1
 589.90625 537.328125 l 1,74,-1
 902.875 440.421875 l 1,75,-1
 995.859375 542.703125 l 1,76,-1
 988.25 746.828125 l 1,77,-1
 913.640625 773.21875 l 1,78,-1
 451.6875 834.953125 l 1,79,-1
 53.21875 807.484375 l 1,29,-1
EndSplineSet
Validated: 524289
EndChar

StartChar: udieresis
Encoding: 252 252 98
Width: 1094
VWidth: 0
Flags: W
LayerCount: 2
Fore
SplineSet
3 807 m 1,0,-1
 115 809 l 1,1,-1
 156 764 l 1,2,-1
 471 797 l 1,3,-1
 522.125 745.875 l 1,4,-1
 519 783 l 1,5,-1
 583 851 l 1,6,-1
 930 799.015625 l 1,7,-1
 1000.71875 728.296875 l 1,8,-1
 1095.71875 614.28125 l 1,9,-1
 1094.71875 511.28125 l 1,10,-1
 1117.703125 488.296875 l 1,11,-1
 1114.703125 195.296875 l 1,12,-1
 1000.71875 -58.71875 l 1,13,-1
 569.703125 -70.71875 l 1,14,-1
 230.71875 -0.703125 l 1,15,-1
 189.703125 -90.703125 l 1,16,-1
 70.71875 -21.703125 l 1,17,-1
 -0 49.015625 l 1,18,-1
 -30 542 l 1,19,-1
 9.1875 544.8125 l 1,20,-1
 -35 589 l 1,21,-1
 -43 709 l 1,22,-1
 3 807 l 1,0,-1
577.296875 582.703125 m 1,23,-1
 549.1875 610.8125 l 1,24,-1
 548.34375 584.578125 l 1,25,-1
 577.296875 582.703125 l 1,23,-1
565.15625 291.828125 m 1,26,-1
 540.8125 316.1875 l 1,27,-1
 538.953125 254.140625 l 1,28,-1
 565 287.984375 l 1,29,-1
 565.15625 291.828125 l 1,26,-1
252.109375 552.203125 m 1,30,-1
 249.71875 552.03125 l 1,31,-1
 -19.421875 532.734375 l 1,32,-1
 9.65625 54.96875 l 1,33,-1
 114.46875 -5.8125 l 1,34,-1
 150.90625 74.15625 l 1,35,-1
 154.21875 81.40625 l 1,36,-1
 162.03125 79.796875 l 1,37,-1
 499.875 10.03125 l 1,38,-1
 923.453125 21.8125 l 1,39,-1
 1034.015625 268.1875 l 1,40,-1
 1036.90625 550.0625 l 1,41,-1
 855.90625 570.046875 l 1,42,-1
 845.75 571.171875 l 1,43,-1
 847.09375 581.3125 l 1,44,-1
 849.078125 596.3125 l 1,45,-1
 850.328125 605.71875 l 1,46,-1
 859.78125 604.96875 l 1,47,-1
 1014.109375 592.796875 l 1,48,-1
 1014.96875 681.421875 l 1,49,-1
 924.75 789.6875 l 1,50,-1
 586.6875 840.328125 l 1,51,-1
 529.34375 779.390625 l 1,52,-1
 541.328125 636.546875 l 1,53,-1
 820.671875 588.859375 l 1,54,-1
 828.3125 587.546875 l 1,55,-1
 828.96875 579.828125 l 1,56,-1
 829.96875 567.828125 l 1,57,-1
 830.9375 556.265625 l 1,58,-1
 819.359375 557.015625 l 1,59,-1
 520.421875 576.375 l 1,60,-1
 508.421875 366.171875 l 1,61,-1
 570.03125 346.515625 l 1,62,-1
 577.296875 344.203125 l 1,63,-1
 577 336.578125 l 1,64,-1
 575 287.578125 l 1,65,-1
 574.859375 284.40625 l 1,66,-1
 572.921875 281.890625 l 1,67,-1
 522.921875 216.90625 l 1,68,-1
 520.140625 213.28125 l 1,69,-1
 515.578125 213.015625 l 1,70,-1
 412.578125 207.015625 l 1,71,-1
 400.71875 206.3125 l 1,72,-1
 402.0625 218.125 l 1,73,-1
 406.0625 253.125 l 1,74,-1
 406.625 258 l 1,75,-1
 410.8125 260.546875 l 1,76,-1
 457.171875 288.71875 l 1,77,-1
 465.65625 573.78125 l 1,78,-1
 270.109375 552.0625 l 1,79,-1
 250.84375 549.921875 l 1,80,-1
 252.109375 552.203125 l 1,30,-1
274.734375 589.5625 m 1,81,-1
 277.78125 589.9375 l 1,82,-1
 466.28125 612.890625 l 1,83,-1
 470.953125 758.828125 l 1,84,-1
 463.5625 786.15625 l 1,85,-1
 157.03125 754.046875 l 1,86,-1
 152 753.53125 l 1,87,-1
 148.609375 757.265625 l 1,88,-1
 110.65625 798.921875 l 1,89,-1
 9.40625 797.109375 l 1,90,-1
 -32.84375 707.09375 l 1,91,-1
 -25.625 598.71875 l 1,92,-1
 260.296875 590 l 1,93,-1
 274.734375 589.5625 l 1,81,-1
EndSplineSet
Validated: 524289
EndChar

StartChar: Udieresis
Encoding: 220 220 99
Width: 1094
VWidth: 0
Flags: W
LayerCount: 2
Fore
SplineSet
3 807 m 1,0,-1
 115 809 l 1,1,-1
 156 764 l 1,2,-1
 203 854 l 1,3,-1
 565 803 l 1,4,-1
 635.71875 732.296875 l 1,5,-1
 622.6875 628.90625 l 1,6,-1
 756.953125 627.28125 l 1,7,-1
 710.703125 662.296875 l 1,8,-1
 640 733 l 1,9,-1
 703 801 l 1,10,-1
 930 799.015625 l 1,11,-1
 1049 700 l 1,12,-1
 1119.71875 629.296875 l 1,13,-1
 1015.3125 592.78125 l 1,14,-1
 1047 586 l 1,15,-1
 1117.703125 515.296875 l 1,16,-1
 1114.703125 195.296875 l 1,17,-1
 1000.71875 -58.71875 l 1,18,-1
 631.71875 -90.703125 l 1,19,-1
 281.703125 -56.71875 l 1,20,-1
 227.921875 -2.9375 l 1,21,-1
 142.703125 -70.71875 l 1,22,-1
 70.71875 -21.703125 l 1,23,-1
 -0 49.015625 l 1,24,-1
 -43 648.984375 l 1,25,-1
 18.9375 647.078125 l 1,26,-1
 -43 709 l 1,27,-1
 3 807 l 1,0,-1
600.0625 263.9375 m 1,28,-1
 565.984375 298 l 1,29,-1
 555.71875 247.28125 l 1,30,-1
 496.71875 235.296875 l 1,31,-1
 494.203125 229.921875 l 1,32,-1
 528 212.015625 l 1,33,-1
 586 228 l 1,34,-1
 600.0625 263.9375 l 1,28,-1
603.5 573.5 m 1,35,-1
 610.328125 603.78125 l 1,36,-1
 578.3125 598.6875 l 1,37,-1
 603.5 573.5 l 1,35,-1
258.671875 639.828125 m 1,38,-1
 315.4375 648.875 l 1,39,-1
 540.015625 684.6875 l 1,40,-1
 553.84375 794.484375 l 1,41,-1
 208.59375 843.109375 l 1,42,-1
 164.859375 759.375 l 1,43,-1
 158.234375 746.6875 l 1,44,-1
 148.609375 757.265625 l 1,45,-1
 110.65625 798.921875 l 1,46,-1
 9.40625 797.109375 l 1,47,-1
 -28.84375 715.625 l 1,48,-1
 217.546875 650.671875 l 1,49,-1
 258.671875 639.828125 l 1,38,-1
296.40625 629.890625 m 1,50,-1
 302.453125 628.296875 l 1,51,-1
 214.6875 631 l 1,52,-1
 -32.234375 638.65625 l 1,53,-1
 9.625 54.546875 l 1,54,-1
 71.53125 12.40625 l 1,55,-1
 153.78125 77.828125 l 1,56,-1
 161.09375 83.65625 l 1,57,-1
 167.40625 76.734375 l 1,58,-1
 215.796875 23.578125 l 1,59,-1
 561.046875 -9.953125 l 1,60,-1
 923.28125 21.453125 l 1,61,-1
 1034.015625 268.1875 l 1,62,-1
 1036.921875 577.9375 l 1,63,-1
 843.90625 619.21875 l 1,64,-1
 809.0625 626.6875 l 1,65,-1
 842.703125 638.4375 l 1,66,-1
 1029.03125 703.609375 l 1,67,-1
 926.34375 789.046875 l 1,68,-1
 707.328125 790.953125 l 1,69,-1
 654.84375 734.3125 l 1,70,-1
 786.046875 634.984375 l 1,71,-1
 810.265625 616.640625 l 1,72,-1
 779.890625 617 l 1,73,-1
 623.984375 618.890625 l 1,74,-1
 557.171875 322.078125 l 1,75,-1
 610.046875 281.96875 l 1,76,-1
 616.0625 277.40625 l 1,77,-1
 613.3125 270.359375 l 1,78,-1
 595.3125 224.359375 l 1,79,-1
 593.484375 219.6875 l 1,80,-1
 588.65625 218.359375 l 1,81,-1
 530.65625 202.375 l 1,82,-1
 526.828125 201.3125 l 1,83,-1
 523.3125 203.171875 l 1,84,-1
 406.328125 265.171875 l 1,85,-1
 397.90625 269.625 l 1,86,-1
 401.953125 278.25 l 1,87,-1
 416.953125 310.25 l 1,88,-1
 419.09375 314.796875 l 1,89,-1
 424.015625 315.796875 l 1,90,-1
 476.53125 326.484375 l 1,91,-1
 535.875 619.515625 l 1,92,-1
 316.578125 629.015625 l 1,93,-1
 296.40625 629.890625 l 1,50,-1
EndSplineSet
Validated: 524289
EndChar

StartChar: glyph104
Encoding: 261 304 100
Width: 1010
VWidth: 0
Flags: W
LayerCount: 2
Fore
SplineSet
32 774 m 1,0,-1
 430.015625 859 l 1,1,-1
 894 864 l 1,2,-1
 964.71875 793.28125 l 1,3,-1
 986.71875 599.28125 l 1,4,-1
 965.71875 563.28125 l 1,5,-1
 878.734375 556.28125 l 1,6,-1
 911.71875 523.296875 l 1,7,-1
 900.71875 133.296875 l 1,8,-1
 899 132 l 1,9,-1
 922.703125 108.296875 l 1,10,-1
 957.703125 30.296875 l 1,11,-1
 932.703125 -75.71875 l 1,12,-1
 564.703125 -135.703125 l 1,13,-1
 101.71875 -139.71875 l 1,14,-1
 31 -69.015625 l 1,15,-1
 17 -8 l 1,16,-1
 97.34375 -9.34375 l 1,17,-1
 53 34.984375 l 1,18,-1
 58 474 l 1,19,-1
 81.296875 477.6875 l 1,20,-1
 22 537 l 1,21,-1
 32 774 l 1,0,-1
41.65625 765.828125 m 1,22,-1
 32.484375 548.34375 l 1,23,-1
 415.78125 594.921875 l 1,24,-1
 425.4375 596.09375 l 1,25,-1
 426.875 586.5 l 1,26,-1
 434.890625 533.5 l 1,27,-1
 436.375 523.671875 l 1,28,-1
 426.5625 522.125 l 1,29,-1
 67.90625 465.4375 l 1,30,-1
 63.109375 44.296875 l 1,31,-1
 138.703125 38.984375 l 1,32,-1
 148.5 38.28125 l 1,33,-1
 148 28.484375 l 1,34,-1
 145.984375 -10.515625 l 1,35,-1
 145.484375 -20.15625 l 1,36,-1
 135.828125 -20 l 1,37,-1
 29.59375 -18.21875 l 1,38,-1
 38.953125 -58.9375 l 1,39,-1
 493.140625 -55 l 1,40,-1
 853.796875 3.796875 l 1,41,-1
 876.484375 100 l 1,42,-1
 847.421875 164.796875 l 1,43,-1
 788.015625 130.34375 l 1,44,-1
 775.265625 122.953125 l 1,45,-1
 773.109375 137.53125 l 1,46,-1
 769.109375 164.53125 l 1,47,-1
 768.234375 170.453125 l 1,48,-1
 773.03125 174.03125 l 1,49,-1
 820.15625 209.125 l 1,50,-1
 830.6875 582.8125 l 1,51,-1
 539.078125 551.0625 l 1,52,-1
 528.734375 549.9375 l 1,53,-1
 528.015625 560.3125 l 1,54,-1
 525.015625 604.3125 l 1,55,-1
 524.34375 614.171875 l 1,56,-1
 534.1875 614.96875 l 1,57,-1
 889 643.546875 l 1,58,-1
 905.6875 672.171875 l 1,59,-1
 885.078125 853.90625 l 1,60,-1
 431.125 849.015625 l 1,61,-1
 41.65625 765.828125 l 1,22,-1
EndSplineSet
Validated: 524289
EndChar

